<mxfile host="app.diagrams.net" modified="2022-10-27T17:43:32.587Z" agent="5.0 (X11)" etag="Pu9kYednL_ss8S19a3X3" version="20.5.1" type="github">
  <diagram name="Page-1" id="c9db0220-8083-56f3-ca83-edcdcd058819">
    <mxGraphModel dx="1422" dy="755" grid="1" gridSize="10" guides="1" tooltips="1" connect="1" arrows="1" fold="1" page="1" pageScale="1.5" pageWidth="826" pageHeight="1169" background="#ffffff" math="0" shadow="0">
      <root>
        <mxCell id="0" style=";html=1;" />
        <mxCell id="1" style=";html=1;" parent="0" />
        <mxCell id="3d76a8aef4d5c911-1" value="" style="html=1;shadow=0;dashed=0;shape=mxgraph.bootstrap.rect;fillColor=#222222;strokeColor=none;whiteSpace=wrap;rounded=0;fontSize=12;fontColor=#000000;align=center;" parent="1" vertex="1">
          <mxGeometry x="30" y="40" width="1150" height="50" as="geometry" />
        </mxCell>
        <mxCell id="3d76a8aef4d5c911-5" value="Violations" style="html=1;shadow=0;dashed=0;fillColor=none;strokeColor=none;shape=mxgraph.bootstrap.rect;fontColor=#999999;spacingRight=30;whiteSpace=wrap;" parent="3d76a8aef4d5c911-1" vertex="1">
          <mxGeometry x="244.375" width="158.125" height="40" as="geometry" />
        </mxCell>
        <mxCell id="3d76a8aef4d5c911-6" value="42" style="html=1;shadow=0;dashed=0;shape=mxgraph.bootstrap.rrect;rSize=8;fillColor=#ff0000;strokeColor=none;fontColor=#ffffff;whiteSpace=wrap;" parent="3d76a8aef4d5c911-5" vertex="1">
          <mxGeometry x="1" y="0.5" width="25" height="16" relative="1" as="geometry">
            <mxPoint x="-30" y="-8" as="offset" />
          </mxGeometry>
        </mxCell>
        <mxCell id="3d76a8aef4d5c911-7" value="Statistics" style="html=1;shadow=0;dashed=0;fillColor=none;strokeColor=none;shape=mxgraph.bootstrap.rect;fontColor=#999999;whiteSpace=wrap;" parent="3d76a8aef4d5c911-1" vertex="1">
          <mxGeometry x="402.5" width="115" height="40" as="geometry" />
        </mxCell>
        <mxCell id="3d76a8aef4d5c911-8" value="Settings" style="html=1;shadow=0;dashed=0;fillColor=none;strokeColor=none;shape=mxgraph.bootstrap.rect;fontColor=#999999;whiteSpace=wrap;" parent="3d76a8aef4d5c911-1" vertex="1">
          <mxGeometry x="517.5" width="100.625" height="40" as="geometry" />
        </mxCell>
        <mxCell id="3d76a8aef4d5c911-9" value="INICIAR SESION" style="html=1;shadow=0;dashed=0;fillColor=none;strokeColor=none;shape=mxgraph.bootstrap.rect;fontColor=#999999;whiteSpace=wrap;" parent="3d76a8aef4d5c911-1" vertex="1">
          <mxGeometry x="948.75" width="100.625" height="40" as="geometry" />
        </mxCell>
        <mxCell id="3d76a8aef4d5c911-10" value="REGISTRARSE" style="html=1;shadow=0;dashed=0;fillColor=none;strokeColor=none;shape=mxgraph.bootstrap.rect;fontColor=#999999;whiteSpace=wrap;" parent="3d76a8aef4d5c911-1" vertex="1">
          <mxGeometry x="1049.375" width="100.625" height="40" as="geometry" />
        </mxCell>
        <mxCell id="3d76a8aef4d5c911-2" value="inmobiliarias cipol" style="html=1;shadow=0;dashed=0;fillColor=none;strokeColor=none;shape=mxgraph.bootstrap.rect;fontColor=#999999;fontSize=14;whiteSpace=wrap;" parent="3d76a8aef4d5c911-1" vertex="1">
          <mxGeometry x="80" y="5" width="130" height="40" as="geometry" />
        </mxCell>
        <mxCell id="-2dUzOy_2390l5RQ6fMF-1" value="" style="text;html=1;strokeColor=none;fillColor=none;align=center;verticalAlign=middle;whiteSpace=wrap;rounded=0;image=data:image/png,iVBORw0KGgoAAAANSUhEUgAAAs4AAALPCAIAAAD90tHeAAAACXBIWXMAAA7EAAAOxAGVKw4bAAAgAElEQVR4Xuzdd1zb1vYA8OMBGPBizwSyd8jeg5HVDEi6x6+7r3u3r/P1dY/Xvqa7r23SnWaRgQ1ksEdIQvYgq1lkEgJ4Mgwe+v1hY1uy5AUCTM73U6fWvQcjXwn5+N4ribNnzx5ACCGEEEIIIYQQQgghhBBCCCGEEEIIIYQQQgghhBBCCCGEEEIIIYQQQgghhBBCCCGEEEIIIYQQQgghhBBCCCGEEEIIIYQQQgghhBBCCCGEEEIIIYQQQgghdCPjUAvcUH12YUyUgFpqQ1D+78Cugj6GXOoQw3EsohZQlwEoZXQBYC1mqDUjLA9nCFcBQLh6DcL6D4P2OsYYuwr6GHIpeYn9RiY9o7LUMAeAudJpAAD7G8Kugj6GXOoQ0yvauYNtCLY6xhi7CvoYcqlDDPvtzFBrRlgezrC+r4KtjjHGroI+hlxKXmK/kUnPqCw1zAFgrnQaAMD+hrCroI8hlzrE9IR2vnjdmHCPklrFjEstQAghhBDqPJhqIIQQQohFmGoghBBCiEWYaiCEEEKIRZhqIIQQQohFmGoghBBCiEWYaiCEEEKIRZhqIIQQQohFmGoghBBCiEWYaiCEEEKIRZhqIIQQQohFmGoghBBCiEWYaiCEEEKIRZhqIIQQQohFmGoghBBCiEWYaiCEEEKIRZhqIIQQQohFmGoghBBCiEWYaiCEEEKIRZhqIIQQQohFmGoghBBCiEWYaiCEEEKIRZhqIIQQQohFmGoghBBCiEWYaiCEEEKIRZhqIIQQQohFmGoghBBCiEWYaiCEEEKIRZhqIIQQQohFmGoghBBCiEWYaiCEEEKIRZhqIIQQQohFmGoghBBCiEWYaiCEEEKIRZhqIIQQQohFmGoghBBCiEWYaiCEEEKIRZhqIIQQQohFmGoghBBCiEWYaiCEEEKIRZhqIIQQQohFmGoghBBCiEWYaiCEEEKIRZhqIIQQQohFmGoghBBCiEWYaiCEEEKIRZhqIIQQQohFmGoghBBCiEWYaiCEEEKIRZhqIIQQQohFmGoghBBCiEWYaiCEEEKIRZhqIIQQQohFmGoghBBCiEWYaiCEEEKIRZhqIIQQQohFmGr4qvoG/eWrrdRSX3bxSqtCZaCW+rLT1brGJhO11JcdP6OjFvm4w6d62zs6cLJXHRYA4MCpNmoR8jWYaviqzTm1G+XXqKW+bGPO9U1b6qilvmydvD67UEEt9WV/ZjXIC9XUUl+2YoOisLKJWurLvlmr2n20V+VPn/yhPnpWTy1FPgVTDV+VKbu2QV5LLfVl67PrNmRfp5b6sr+y6jbkNlBLfdnaXEXm1t6TPBEErN2qWr9NRa3wWXoDbC7Wrs/XUit8VksrkVvRsr6wV6WDNyBMNXxSbV1baYWycp/q0pVe8vXl0tXWfYc0JTtVyt4yhlJ1qvlMdcvWEpW20Uit802Vh5su1bRlFaj0eoJa55uK9jQpNcaN+WpjL9lEsLWiSdtkWrtdS/SSTQRZZc0traZ1BZhq+DZMNXzSRvk1giAAIFPWSzo21mbVAoDRSGT2lo6NDVsaAECvN8nyldQ637RhmxIAWnSmnOJeMoaSuV0FAEqNsWB3I7XON2XmawGgtsFQcbiFWuebMgubAODMZf3Bv3HGhg/DVMMnZWZZZmlYn/i6TLlllsZ6eS9JNdZl15ufZOZanvg0goDV2Zahk/Vbe0PyZDTChjxLzrR+e29InvQG2FxsyZnW5/eG5EnbTORWWHImHEPxaZhq+J7auradeyyjy/sPqXvBGMqZ6paDVZbR5bLd6to6n//6cuh405lqyyEyv1zdC8ZQdh5sqq23TM3LKVa16Hy+g75gd6NSY9kuG/PVeoPPv6PsssYWneWMpw0FvWEMJau02bpdVudhquHDMNXwPWs31phHT8zWbKyxq/RJ62W2ngyCIDbm+Px5KJl2s0H1etPGbT4/lTJzi+0ttOhMOcU+P5XSvidD22TcXuHz3QDr82yzQWsbDCX7fX4Mxb4n41KtYc9xn/8ScsPCVMP3ZMpIgya94DyUDeTcItP3U401MtJb8PXzUAgCMreRBk0oiz5HbyA25pMGTTLbB1N8VIuOyCknfe83z9vwXdpmIq+SlC2Z520gX4Spho+5dEW3Zz/pC+Who5oz55vtS3zLmeqWoydIXygr9vj2GMr+o42XyFdXK9ihUqp9+Myasr2N1tETs+wi3x5DydvZqG0ijWrJirQ+PYaSU24bPTFbn6/16TNrNhQ1UbbIqu0+3/N0w8JUw8es3UQzXLLelyeHrt5E7ZUhCGKd3ZCKz1mfQ+3DMBqJjb58OQrHa2no9URWgQ93bKzfRu3D0DYZc8t8+JPMfvTETKkxFu3z4S8hjvNAaxXGnUd727VQbxCYavgY2lNONvjyKa9rNtOsvE+PodCecuK7YyhGI6zbQpNVZPrseSh6AyEr0lBLffk8lBYdkV1Okyc55h++Qqk1FeylmfC+vtCHk6cbGaYavuTM+eZDR2kOkVUntD46hnLkRNOZ8zST13bvV1PGIHzF7gNa2jUv2a320TGUkkoN7ZpvLVNrffMOL7llWsroiZm8WOOjo0Kbi7W011XbXNzoo2MomYXNRiPNO1pX0NQLzqy5AWGq4UvWb6bp0jDz0fNQnFyJfEMOY1VPlrmFvvfCaCQyHQZWfALTDFC9npAV+OR5KJkMvRctOlNuuU92AzDNAFVqjHmVPvklJLOIOnpiVqswlh+mSeVRD4ephi+hnHtib80Gn0w1Vm2gGT0xW99+US8fQhCwTk4zemK23gfHUIxG2LidPtUAgPUOczh6vhYd/eiJWabDHI6eT9tk2rqT/oMZfHMMRak1Fe2jGT0xW48XKfdBmGr4jDPnm4+dYDxqnDnffOwkzWBtT3bgaOOlq4wHlH2HNbQjET1ZxT5NbT3juTNllRrKeRw9X8FO+tETs/wKjc+NoeSWaSlnatjLLdf63BjK5uJG2tETs83FWj3jBuyh1uQ12V86iGJNQTNzJeqh+NQC1IWam41GExgMJoOBMJoIg4EwGAijkTAYCaPBZDSSSlwOkXy38uLdt8byeMDncfh8rvkJj8/h8Th883/W53wOj8cJCuRQX6LDmltM1hU2GEy2N2V+YiSMRjC2v6nf17t4R1/8dPnmheF8HofH4/DMq83l8PnmJ8Dncfg8MJebY4ICOz91tr0jA2EwQvtbs39HllqjkfjxL8ZOGgAgCOKrX2oWpoTweRyebc3Nb4TTvuE4PK55ewGfzwkUsPOOjITBAEYTYdATBiNp69i9OzAYiRXrnPUt6fXEF7/WpkwRtr8Fy9uxPLFuLx7R/qY4gQJ29jrzX415/Y2E0dD+pL3EZN5wRuLXzc56Ylp0pi9X1c8YF2zZu7j274ggv0fLhgsM6Px31NRi/iOC9q1jfdK+4cxVRjAYid/kznpitE2mb9cpJ44QWN4LH3hcDp9r3jp2f0TmN8UFPh/YekcmMBhN7X9E5ncEdn9W7e/RCH9udfatSakx/pDVOKq/X/smaN9MXPNGAfsNx+cBj8fKO0Ie8WYDVJ9dGBMloJbatCecjImnXQV9DLnUIYbjWEQtoC4DUMroAsBazFBrRlgezrjKuldnXnnypWPNzd05ZSsoiPfFB0MevDvWskxeZU8beeWqqy++fbqlpTvfkTCY99Nng29bHGErcrUhAAiH92Xx7a9XX/ukurWV8RtwF5CI+L982j9jbgi1woOd2fKMIOC/K6/9+8sren13vqMQCX/1fxPnTheRi9vXleGtkCran5pM8MEPtR/+WEs7f7DLRIXx//okPmViELXCHmF5OEMQBgP8+391n/6mcPKdvgvEhPPXfhw9I4n2IE9eMfKS40FDr4dXvmn4ap2zZKgLJMbwMz8IHz/U380NQS2hYjxotCOs/9Ch2ZnJnDUy0LWzQwF1GYBSRhcA9sUMAWCpuXjdmHAP49CqI0w1yCzFDLVmhOXhjBs769lzzXc8dOhIFeOwMauGDxGu+3n0kIF2x0fyKnvRyKfONt/ywNFTZ7tnJDVpuHDDihGJfQJIpW5sCIf3YXP4eNMdT5w8e4HmHJkuMGWsaM3Xg/rE+FErwKOdmfRsf1XzrU+duVTTPSNTM8YL1yzvFxPh2JnavoYMb4VUQY7ZcaDprpcu1NR1z8hUyqTgtf/pEx7Co64WBWF5ONO+rxbvbb7ztav1yu4Z9lg0I/j3d6NCxFyG9SWXkpeYDhp5lS13vXXdeseZLrZ0VtAfb4UJgzgAnm0IZs4OGgBg+RWMMXYV9DHOGhmY29nJMgCljC4A7IsZAsBS42mq0fnds8hNA/oF7cqb+tQ/EqgV7Hv0/j6VeZNJeUZnGDIgaF/exEfuiaNWsIzD4Tz3SPyu7LHUPKPDkoYHH9g25rbF4dQKlnG5nNcejytdO6JPjD+1rmPGjww6lDOCppuEZTwe5+2nY4p+H0SXZ3TIjHHBR2RDFs4WUytY5ufH+eT56PyfEsNDeNS6jkmZGHRkfb+UicHUCpYF+HO/fClC/kVMiLiTPxfmTQ6sWh3P0E3CosAA7o+vhm36ONySZ6Du480fyfPPDRIJO/l44ZFes9fweJwFaRHjx0q2F9brmKeqdSKJ2G/VD6NffCKBz3fRii6qGfD5nMVzw5NGiLYUNrR1SUd9iNRv48rhT9wXy+N5t8ou+PlxblkY3q9PYGGFqo158l0nigr3z/pxyEO3R3I7+YBvIQjg3rEoNCbSv2iXxtAll+KOifDbsnLgPYtDOKxsIggM4N61SCoV84orm4ymrnhHiXH+2/6XeOs8MUvvSBjEvXexRBDALT3QbOqKPyMYEO+//du49Nkd+vrhpDFEQdz7F4k4HNhxuNV1r0FnGJLgV/xt1LxJXZ3fdAEn7dxl1E3El5sYJ/U78madcQDFRQCAp11wNbWttz9wsHIfu1cpmDxeuvqnUX3irNvOWTt3sJGrL+nufPTo/iOMp8x0iukTJWv+Nywmkvmrv4cbgg5h/ufsBd0dT5w8fILd4aHkqZK1Xw0KD7VP5enWj1RGFwD2xfQBp87pbn7yzKlz7A4PLZwt+f0/CSESHsNamLXXMcbYVdDHEABw+JTu9ucvnL3E7vDQ0lTx7x/GCYPaM0HL+tCvlgVheThDt6/uP6G75aUrl66xOzx07yLx969FBgk4brYz05I7B40dh1vvePN6TT27w0OPZgi/fD5E4O/wAefthiBz96DBoEONDO61M2UZgFJGFwD2xQwBYKnBARSfFBMVUJIz+c2XBnK5Dn8bnYHD4bz6bL8S+QS7PINdiX0EO7LHv/REXw473/t4PM7bLyYWZSY5yzM61YAEwS5Z0lP3t8+i7Wx+ftyPX+2b/+cwcp7BoiH9BfuzRjxyu90s2k4V4M/98s0+8h8GhEi86T31QtIQwcFNg29bIKVWdJJAAffHf8du/KKPLc9g2fhhgsPr+y1Nocyi7TRBAu7aj2N+eycqiIUzg2jNSAqoWh03b3KHuk+ckAi5mz6O+OGVUJo8A3UfbzYG9mq4CADwOi+uqFTe+dCh2uud+bUsKiLgzx9GJU93HJ531s6d1cj5pYr7nj5Rr2C82oQXYqICMn8aPnmsmH4d7Hm7IewQ1n/MthQpH3jxbydXm/BCYnzAuu8Gjx8ZDOD4nqjLADTtTMNWzBAAlhpZgfL+V8430l2r22sD+gas/6p/0tBAAHBsQwftdYwxdhX0MaTSP7KUz3x0pam5M8cehiQGbP6q75BEh9TW8pvpV8uCsDyccbqv/rhB9eLn13Wdej5U0uCAzP/EDIi3n3fsWTtTljw6aHy5VvPad4rOHZQcPzRg00fhfaKYU9sObwgAAPD4oEHWoUYGD9vZhlRGFwD2xQwBYKnBXg3fNn1yyMGyGXNTOm0eYvKM0IOlU+nyjC4yd3booaKJnbgCC9PCDhdOmDyuq6cBWi1MDTmcN27y2E77opkxL/TQliRLntEdMuZID2WP6MQVuDcj7GDWsPY8oxvclxFyYMPgEQOdfCPyzD9uDT2wfgBNntFVHrtVumdVQieuwDN3Sit/70vOM7rU83eKK3+JTaQ9wcpzHA7n1f+T7Pop2lmegbqPN1sFp4WyKiiId89tsSIRv2SHwtSBOW5+ftwP3hz4/X+HBwd5s5U7sZGFwbx7b4328+OWV6o78o4CArifvz1g+bsD2biwlUdEwbz7b40yEVCxT+v6KxCzQAHv23f7/ee1vv7d3dkrFfMevCW8pZXYfahDk1GCArl/fNrvjSei/fy6+R2FSngP3Ryq0pr2VnXoJiASEW/1f/q+/EA4vzuPeQAAkaG8hzOk1xqMB096MB3PUYiYt/6T2GfvlPI6+8/I000eHcZ7OF109rLh2PkO9XqGS3nZn0U+ki5kaSZ1T+NpO7MBp4XSLwN41H3EUGtGWB7OuP78cd0Fd6RKe+v9B6svejNrL7Fv4NqVo8cltX/1p/9dztqZjUauPKC567FjTi5G7sSAxMB1P45IGm73zburNoT1H0cVezV3PHWqts6bA+WQ/oEbfxw6tL/DCbrU30VdBnDRzha2YoYAsNbYAvJ3aO59+Xy90pt5iElDg9Z/1W9AX4d35LQNAcBWxxhjV0EfQy61W9pSpr33tYtqrTfDQ+OHB278om+faPM3b/pf7NiGNAjLwxm399XMfO0j711r9Gp4aMaYwLWfxMSEMX398L6doQMHjV9zGp9d3tDU4s07ShkvWP1uRFSo9UIgdL/CqlM3BDPC+g+dDjUydKCdmRZsbMUMAWCp8XQABVMNMksxQ60ZYXk400k764lTTUkzdlBr3LC3cGrSSKFtmf53OWtnlhp53yHt1EX7qKVuOFE+aWAiuUO+CzcEcwxRulsz564qarEbLu6aEBPpx1I7A9gXMwSAtYYUkFusznj8tH2Jm+ork6Ri2s8w520ItjrGGLsK+hhyKXlp3Vb1Pa9cIBW5x3h4pN0S/S+mbUMqwvJwxpN99VeZ+pH3GG++yCRQwG3cMQDAybp0qJ07sjN/k6l5brnH9yOUiriK7X0sC92xIRgQ1n/odKiRoWPtTLtgYytmCABLjaepxo3R3+Sziss9/tszKyp3dqOHblRc4cHeaa+onN0zgb1WvNPLiy4XVnj5g2wrqfTyFOWSPV7+INtK9jq7p4YTebu8/EG2Fe31ZlSoRWeqOOxNn2IXKN7vzYqptKZDp73pgUNdDFONHi1723VqkXu8/kG2ybcz3mPdOXmelz/ItuwCL7M6r3+QbZvzvUwH5YU9MXkiCNiU7+WKyYt7YvJkNEJOuZdTauSlPTF5atNDXqU3I8UAICvzJutCXQxTjZ5LozWU7PDy06iiUtWg6HHJfoNSX3nAy3u+FO9UNXs1lMuq6sutR7y9qNe2UlVbG3MvZTc5dlpXfdnLc62zClSu+5673J6jzQ0qL89MzirycndlVemBZk2jN1NPAGBDQU9MNbZXNjd7e7lkeTmmGj4AU42ea2t+vde3rCQIIjfP2e2/u0XW1nqvb1nZ1mbaUujlcBJ7svO9zAUBoLnFWLTLy2/b7JEXej9QpWk0lu/vcZ9k2cXepws1dfr9x73p2GdVR3omqq/qT1b3uC8h8g70TBz8u62m3svEC3UZTDV6LtmWWmqRJ7K39bhUI9vb0ROz7Lwel2rI8rxPNQBA3oFMhSXZhV6Onphl97wxFHkHUg0AkJd06MfZsKGgQ8M6HclU2EAQkNWBVAMANpZ06MdRF8BUo4dqayO25HcoV8gvbehR/fPNLab8sg59suYUNBh70rcXjda4Y2+HPoc2betQg3S6muv6PUe8HA8y25zvfacIG6qv6I+f7VC3hKyHjaEcOtVaU+fleJCZrKRDm7jT7Tza2qDu0B+2rMzLeR6oy2Cq0UOVViiamxn//MQi/q/fjVr36xiphPFae83NxrySDvUidK68EkVbG+NwrFTCX79i5C9fDhOLGK+UpNEaynb3oE+y7AKFkxGusBC/nF+H/+/DAU4uodag1O/t2Ed758oucta80RF+eb8O/uLNPoIAxuNG9ZXWY2c69NHeuTYVOOtliYvyK/1twCcvxFAr7Bw9rau+2oNGHLLLnPVJ9I/3r/i17zuPObvc8O6jLQ1qxr/ErpftdLLFoD5+lb/Evn6fs/vaFO5r0TQx/iWinoDxkIG6l5PRk6mTQvaXTL/ntphliyKPVEyfOZXxmt/yrR3qF+lc8u2MKzNzivRo8aRlN4Xfe2vUgfwJUydIqBHtZB0bgulcMuYBnfmzQ47kjZk/W/rIXZEHtiSNHcF4ze8eNYYiY56osThFWpU7InWq6Jl7I/duGjZqMONFx2UFjC/S9eRFjKnG3YukVZsHzxgX9M8Hww9tHDQowfHKYxY9qmNDVsKYajyYITm8LmHKKMFb/wjd/Xvf/vGMVzHfXMz4Il1vfSFjtv3kLeLDq2InDvP/8HHpjh9jEqIZv4fkVDjLV1C3w1Sjh8reSnO2qp8f9/03BxfLJyX0sVxCLTrSv2DzxE/fHRJA90Uze1udt7MwOxlBgGwbTZYQEMD9/J2BhZljottv0JoQLyjZNPa9V/r5+dG8o01baF6kW7S1EdtLaT5TgwJ5370/IOfXYZFhlg6n/n0Ddm4e9eYz8TwezRXzsgs6NDeiEzW3mIp300wCEAXzVn6UmPW/AdbLcw0bINizcdjLD0fT3og4m/nTvYs1qIwVB2k+gcRCXuYXCX9+3EcstOxjowYJDm0Y+NRdYeRAi54zXaOmnv6q5GFSXtYX8Sv/bbtB68QRgsNrEx5ZRp+195zpGier9dU1NJ1GkaG8LV9Effuy7Qat00YFHF0Vd+8CuysT2pGX4xhKj0ZzNEfdbt9BdU0t9YTDQf2DK/OnvvpcP8p1/jkceP7xhD0FU4cNpv4RNijadu2l+TjseuW7VRotdYB51DDh3m0Tnn0knnKfeS4XXn8moUI+blA/6p2ma2pbDx3rEUfJgh2q5hbqCNfYEcJ9uUmP3hNFKefzOe+80GfHxpEJcdSvzlV/N3t9cmnn2lKqdhzhmjgq+JB8xAM3Uz+D/fw4n/wzruD3wXFR1K/Oe4821dTRfHh0vewSjeMZT7MmBFdlDb55DvV2fYIAztevx+St6BcZRv3qXH6gWdNIbZlusamQJhdMmxRcldlvySxqz1mQgPPjm1FZy+PCpNQhvPzK5mYdtWW6hYxu9GTJjKBjq+MWTKH2nAmDOL//O2zDRxFSEfWTK6eipUdN5EIU1A2GegLHLo0nHuq7v2TayOHUZMJq2ODgvYVTn3ssgUP+3O4h56FQLsDF4XBeeKxv5ZbxwwZRkwmrsSOFB/LHP3pvLKW8h5yHQjnNlcfjvP5U/M7NowYlMl6zf8Jo4aGtY+6/JZJSnpXXIzo2KKe58vmcd5+P27FuWEIcNZmwmjVReDR3xLJ51CG8HnItL8q5J/5+3E9fiin6pX9cFDWZsEqbHFy1edCSZFIiYjQSPaRjg9IbESjgfv1KVN7/4iNDqcmE1ZJZwVXrE9Mmkf7Q2vTEtl00n/Fdj3Kaa3Ag96fXw2WfRYZJGD+bbk4OOr46dtYY0h9as85UsI+mvwf1EIybE3UjmV2qERkRsG3DxK8+GSZwdTtTf3/OZ+8NKdg8ITrS9tV5YzbjnI+uJNtqSzXiYgIKM8d++tYAlzf/FARwv/toUM6foyPDbZ92PSHVIAjYvN22GgnxguJ1I997qS+f7+IdCYO5Kz8dsPmnoVKx7dOuJ1w21GiEHLs5of37BOzKHPbmEzE8xo8wC7GQm/l1vz8/6ycR2UKdzJDoMm16omCXrQ9gWH/BnnUDXnognNKF5ihMysv6uu+Kd+KEdvN5e8JlQzWNpuJ9tg/mUYMCDq5JfOoOZ/MlzSJDeXnfx3/zSqT9LZF7whhKg9q0u8rWpTdxeMDhP2MfSWf8QmUVHcYr/i7qv8+GBtjdEhmv5dWTufj0Ql2v+mLL8ZOW49ri+ZGHy6enzgolhzgzc2rIkR3Tly2y9OFXX2w5eZpx1lXXqDrZVH3JMpK6bGHEkaLJM6fQDyHTmp8ccqRo4vxkSyMcrNLW1HpzJ9VOVHlQ29B+79P7bok8tG3M1PEicogzi9NCjuaNSZ1maYQd+7ReX/yxs5Ttta3Do3dGHMoeMXY4Y4eTo7sWhxzJHj5trOVDorhS2+2Xdt2+w7IOHA7nuXsjDmwYOGoQY4eTo4duDjm4YcDEkZZG2FqhbdN384jDlh1N5jOeuFzOKw+E7V2VOKgv4wlojp68XXpwdd9RAy3fQ2SlTQ6DS11tc2mTeYSLx+O8/XDIzp9i+8cxdjhRcDjw4p2iA7/FDEu0NEIWTtfowTDV6HGycmsBQCjk//DFiE1/jg0L9eBoYiaV8Nf9kvTz1yNFQj70gDGU7Lx6AJCI+b9/M3z9ipFiu6+/bgoL4ef8Oer7jwcHBfIAYLNdH0m3MJ82IhXzN68c9vN/BwqDPf47io7w2/7n8OVv9RMEcI1GQu7tbUc6i3n0JCyEn7ty8PfvJgQFevyO4qL8SlYN/uilOH9/blubaUtpN484mEdPosP9tv/U7/NXYvxddaE56h/vX/FH/7efiOTzOc0tpoLd3Zyyy0obASAu0q90Zd+Pnwn3c/dD2WZQX7+9q/q++kAol8vRNBrLDnbzZ7N59KR/nN/OFbFvPyJ12YXmaFii38HfY1+4U8zhcGrqDftOdvOXEMTE4z8/wJvIE5aHM66/LzDehjh1yR5dq3HVT0n9EwOZYgDAnXa+cEl33xNHCQLKciZSKwGoP0le6sRGnrpovx+fs+aHEXExAeQYulcws9RQA85d0N35+PHQEP621aOBoAmg6sCGaEdY/7EamXYgLibg9y8GR0fYHe/pX4dc6hBz8kzz3c+eHtQvcP13gyxF1BjqMgB9O1PZihkCwNbOfWYeGT008NdPaCZFutHOpDY8+rfu9oEwtBMAACAASURBVOfOTRwV9MenibaA9n8YtNcxxthV0MeQW8QE0bOOz5oQvOLdePOJMx3Zn/dWtdz96qW0KcIf3qK7Akd7G5JLyVy3ITjfV41GCE85vWSW8NtXI60nzjhwt513Htbd+XrNbXNEn79AuQKHZ+1MWfKokZt1ROjcC/feJPzqhTDriTOOP2BhK6YPKDvUeudbdY8sEb33D+qEX5IObwgAAPDmoGGnQ40MHrazDamMLgBctzOApQZvIu/b1BpD6uyw8q1T+idSZ197IaGPoFg+ceG8cMezP7pMXYP+lkURZbJxljyjY/onCPZsHTdtgkTbfSMO1ZdbH/u/mO2rRkRHeNzh5GjYwMCDW0aPHNIJm9trJ8/p/vVkTO6KQTR5hudGDRYczBrWL74TNrfXqs7oPns5JvOLBOsJuh0xcWTgoQ0Dozujcby2/4RuxVtRf7wfzZxneGDaaEHV+gRRUCe8lNcOnGpb92HkijfC7fIM780aE3Dsr1gv+kVQ1/BmG2OvhosAAPbzYrDVMcbYVdDHkEvJS+w3MukZlaWGOQDMlU4DANjfEHYV9DHkUoeYXtHOHWxDsNUxxthV0MeQSx1i2G9nhlozwvJwhvV9FWx1jDF2FfQx5FLyEvuNTHpGZalhDgBzpdMAAPY3hF0FfQy51CGmJ7Qz9moghBBCqAfBVAMhhBBCLMJUAyGEEEIswlQDIYQQQizCVAMhhBBCLMJUAyGEEEIswlQDIYQQQizCVAMhhBBCLMJUAyGEEEIswlQDIYQQQizCVAMhhBBCLMJUAyGEEEIswlQDIYQQQizCVAMhhBBCLMJUAyGEEEIswlQDIYQQQizCVAMhhBBCLMJUAyGEEEIswlQDIYQQQizCVAMhhBBCLMJUAyGEEEIswlQDIYQQQizCVAMhhBBCLMJUAyGEEEIswlQDIYQQQizCVAMhhBBCLMJUAyGEEEIswlQDIYQQQizCVAMhhBBCLMJUAyGEEEIswlQDIYQQQizCVAMhhBBCLMJUAyGEEEIswlQDIYQQQizCVAMhhBBCLMJUAyGEEEIswlQDIYQQQizCVAMhhBBCLMJUAyGEEEIswlQDIYQQQizCVAMhhBBCLMJUAyGEEEIswlQDIYQQQizCVAMhhBBCLMJUAyGEEEIswlQDIYQQQizCVAMhhBBCLMJUAyGEEEIswlQDIYQQQizCVAMhhBBCLMJUAyGEEEIswlQDIYQQQizCVAMhhBBCLMJUAyGEEEIswlQDIYQQQizCVAMhhBBCLMJUAyGEEEIswlQDIYQQQizCVAMhhBBCLMJUAyGEEEIswlQDIYQQQizCVAMhhBBCLMJUAyGEEEIswlQDIYQQQizCVAMhhBBCLMJUAyGEEEIswlQDIYQQQizCVAMhhBBCLMJUAyGEEEIswlQDIYQQQizCVAMhhBBCLMJUAyGEEEIswlQDdTNto3H15tq8EgW1AiHUYbLSpvV52sZmglqBUBfCVAN1m6vX2h7756nQoeX3P3MiLMSPWo0Q6rDAAM5db9RIZp1+5tPrDWoTtRqhLoGpBuoGTc3G95dXD51Z+cuaGgAICuSNTxJRgxBCHTZphMD85Pv1qiHLqr/4S0WuR6grYKqButryHy4NmLzrveXnW1qM5pLkaVJyCEKoc0hF3LFDLdmGUmN8+Yu6PjedX7FZQ45CiF2YaqCuU75bPXxm5asfnGlQ6u3LF6SE2i8ihDrRvClB9otX6wyPf1Q7+f5LR8+02ZcjxB5MNVBXMJng/eXVc247ePpcM7UOIGNBBLUIIdRJ5k4JphYB7Duum/LApZ+zsHsDdQVMNRDrauvaFtx16L3Pz5tMNNPghw0Kjo32p5aiHuzo3y3frqrbe5Qma0Q9UMqEQGEQzaFe12p69MPa+/5d29RC84eJUCfiUwsQ6lT5pYr7nzlR18DYVTsfR098gckEFQca5YUqeaHq7MVWc2FclP+SVEnGHGnyRKGfH4f8E6gHSZ0YJC9tpJYCAMBfWzV7junWfxIzehBm/IgtmGogFr33efX7y89TS8luT4+kFqEeo7WNyCtXywtVOcXqOgVphg0AXKlt+2FN3Q9r6sRC3oJZ4vRU6cLZErGQ5gs06l63pImYUg0AOH2xbezdF1a9H33XAiG1DqHO4M0XkeqzC2OiLFOa6bT3xTH2ydlV0MeQSx1iOI5F1ALqMgCljC4ArMUMtWaE5eEM4SoACFevQVj/YdBexxhjV0EfQy4lL3W8kd/+9NxHX1XblukMHRh0tGQStRSsr0P3K6wIy8MZ1jdEhxoZOqOd6QPAvpghAKw11AC11igvVMkKVHk7NM3tJwq5w8+PM2uiKD1VcvM8aUyE9VopztsQbHWMMXYV9DHkUocY9tuZodaMsDycYXNf1bUSUXPPNja7uK7Guk9ibk1rn9hB9zrUUvIS+41MekZlqWEOAHOl0wAAVjcEAJAq6GPIpQ4xPaGdL143JtyjpFYxw14NxIrPvrvoMs8AgLtvjqIWoe5zpVa/cbtSVqDcsa/RaGQ+1jDT64nCnZrCnZrnPrg0dnhQepo0PVWS1H6yJeouggDO4pnCtdtdTAK947Ua2fLYxTNJZ6wg1HHYq0FmKWaoNSMsD2dYz4vBVscYY1dBH0MuJS91pJF//OPK06+folbR+XvnlH596fYly2vT/QorwvJwhvUN0aFGho61M+2Cja2YIQAsNYdONMsLlfIC1aETrMz0TIjzT0+VpqdIZk0U8njUWgCwrSHjmvb8dmaoNSMsD2dY3ldlpU03v3SFWkqn8Ie45PGBDK/jrJ3Zb2TSMypLDXMA9IgNQaqgjyGXOsT0hHb2tFcDUw0ySzFDrRlheTjD+s4KtjrGGLsK+hhyKXnJ60belFt352NVhOsWgJtSw+R/jKKWmll+2umLEJaHM65Xo4MbokONDB1oZ6YFG1sxTYDRCDv2aWUFSnmhqvqyZZon20Ik/JtmidNTJTfNFAeTzoloX0OaNTXr+e3MUGtGWB7OsLyvmkzQP/38pWvUCTeOggO5O3+NH9mfdpaos3Zmv5FJz6gsNcwB0CM2BKmCPoZc6hDTE9rZ01QDB1BQZyooU9zx6FFqKYNnH4mnFiGWtehM28s1sgJlbrFKoTJQq1mmVBtWZytWZysC/LkpU4TpqdJlcyQRoXgU6gpcLjx5m+T1b+qpFQ6aWkxzn7y6+9f4hBjcNKhzYK8GmaWYodaMsDycYT0vBlsdY4xdBX0MuZS85EUj1zXoR8zcrVS5/toEAP0TAk9VTKaWWllem/orSAjLwxnWN0SHGhm8amcAShldANgXEwqV0dyBUVChbtG5mBvYlTgczsRRQUtSxempkhEDBUxvxRfamaHWjLA8nGF9XwWF2hh/0/nWNrd2gFEDA3b+Eh8koHxGOGtn9huZ9IzKUsMcAD1kQ9hV0MeQSx1iekI7Y68G6jYPP3/CzTwDAP75VAK1CHW2C1faNuUp5PnKigONtNdP63YEQew50rTnSNNbX9YM6BuQniJJT5NMHxvMxRNmWRAq4d5zk+gXmZpaQefomdaH37++5kOcuI06AfZqkFmKGWrNCMvDGdbzYrDVMcbYVdDHkEpVKoNUYks9PW3kDdnX73qsyr7EifBQ/wv7pvnTjgWb+cyG8KyRHWM8bWcLUhk1YH9Vs7xAKctXVv3NyjRPtoWH8BfNFqenSuZNFwdavlX3xHa2sBQz1JoRloczrO+rAED8fUE//NYL7kylMtv0WUzGbPvrmjtrZ8dGVmlMUhHdpBx7HjQy6RmVpYY5AHrIhrCroI8hlzrEOLazQwF1GYBSRhcA9sUMAWCpwV4N5A2TCVKX7Zs7O+yTfw/ieJ5/tuhML79zmlrK7I3nEvz9Oc72ZuQhg4EordTKCpTZhapLNV00zZMl9UrD71mK37MUgQJu2lRReookPVUcHkJ/7gryyOAEv9vmCtfnaakVDF5YXk9ONdxlMsFzyxv2HGut/CWWWoduPJhqIACAtZuuVZ1orDrRWFvf9vOXw3k8z9KND5afv+L2x1t8jODx++KopcgrTc2mbWUqWb5yS4lKpenqaZ5sa9GZcorVOcXqx9/hTB0TtCRFcss8Sb84J71hyLW3Hw3bUODugNqFGv0HPyv/9XAItcIpvQHueKM2q7QJAHIrmhdNxwt13Og8+0QxwwEUFwEA7HfBga2OMcaugj7GUmoywcjpO8+ct3S2v/xU4kf/Guh+I5+/qBs8ZSe5yplfvhx2763RAOD4ijaWGuYA6CEbwt1Gpl0Cb3fmeoUhK08pK1AU7dS4Ocuv1xjaX5CRKklPFU8aFWTXA8dKO5PL6ALAWsxQa0ZYHs6wvq+Cte6R967/KndrxgYABAq4f29MiI0w9yo5a2drI//jw/qf5ZbLhU1PEpT/aO3YoFs5DxqZ9IzKUsMcAD1kQ9hV0MeQSx1i2N+ZSc+oCAAcQEFeyNpy3ZpnAMB/v6ueOTVkYZq7d0H7xI2rglqNGSFqzzOQx85fal2X25BbqNp10N0O8E4XG+l/64KQ2ZOEuw42bdimrL7ibm9WZzl5TnfynO4/K2tjIvzSUyUZqeKUyUI/PJJ54uOnw9blaZvdOxepRWf67yrl8hfCqRUMVm9vtOYZAFBxWLfneOuk4QF2IeiGg70aZJZihlozwvJwhvW8GGx1jDF2FfQxltLUpft37CblpyFSv2M7pkaEWe9hAQCOL0IAgEJpSBhfodO5e5uMHdnjJ48Vty9RX9HGZzaEu41MuwRu7MwEQew53JhdoJQVKE+caSHVdaGkoUEZc6RLUqVjhwfal584q5MVqrILVXuONLs/2bBziYW8m2aKMtIkC2eJLHdLd1gRl+3suAxAKaMLAGsxQ60ZYXk447r1Orivgq2OgC/+Ur38ZR2pkplUxLuUmxgkcJhfRV7iAHHuiiHpnstNLaQk5v8WiP54JwIAqD9g5kEjk55R+cyGsKugjyGXOsSwvzOTnlERAJ73amCqQWYpZqg1IywPZ1jfWcFWxxhjV0EfQwDA0eON41N3U2sA5qWE5a4eQyqivggBAJ9/f/G1D85QKpjcuTTqz++G270O9RVtLDXMAdBDNoRbjcy0BMw7s15PFO/WyPIV2YXKq7Vt1JguwedzZkwQpadKb5kvjYsi550kBBBQpzBkFajkReqiXdruGtPx9+OmThFmpIqXJIujw0kdHUzt7GQZgFJGFwDWYoZaM8LycIb1fRVsdQQAwOx/XN5xyN3k9ac3Ix/OEFNfnbJkIiY9eOXASWpHF5/PuSTvGxXKo/6AmQeNTHpGZalhDgBzpdMAAPY3hF0FfQylWUlL0BU7M+kZFQGAqQbTMoBHDc1Qa0ZYHs6wvrOCrY4xxq6CPoYAgIefO/7nuqvUGgAAWP/z6GULzd9FAMDxRQgAGDJ117kLbh2tJGL+oaJJ8TEBdq9DfUUbSw1zAPSQDeFWIzMtgcPO3Nhkyi1SyvKV28pUGm33TPMUBvPmzRCnp0mXpEolIp4b7Uxqw+YW07ZyjbxIvaVU3fUXJDXjcDhTRgelp4qXpkkGJfiDQzsDOL4n6jIApYwuAKzFDLVmrtsQ2N9XwVZHAABUXzUk3XXB5e1ezSYOF+z+LZ766uSl7zeon/mM/mqk7z8e+uYDUuoPmHnQyKRnVJYa5gAwVzoNAGB/Q9hV0MeQSx1i2N+ZSc+oCABMNZiWATxqaIZaM8LycIb1nRVsdYwxdhX0MYReT4QPLmlhuEv4yKHCg8V2F/SkvghRtkuVdssBSikT2R+jF6aFAdi/DvUVbXxmQ7huZCdL0L4z19brs/KUsnxFyW5NWzd1CUSF+y1JlaanSedMF/v72R0ZXLczfRsajVC+r1FepJIXqrt+SofVsP6CjFRxRqp40ijS0I/DOlOXAShldAFgLWaoNXPdhsD+vgq2uvb/by5uuvUV+m8ajo6u6zu8H+OgqsEIiekXaurpk8sR/f2PrnbIVMw8aGTSMyqf2RB2FfQx5FKHGPY/AUnPqAgAz1MNnEx1Q8vNr2fKMwCg6mRjXoliXjLj/NDM7OvUIgZPPxxvyTOQnRNnWuT5Cnm+Yu+Rpu6a6DCkf2BGmnRJmnTKmGAvLqniBI8HyZOFyZOFy1+PO3JKJy9UZRep9x/r6quKnTinO3FO98nK63FRfkuSxUvTxCkThXw88gEAwLKU4Edvlvy0ya2zUTYUNP77H4xnvf6Rq2XKMwDg2Lm2k9X6oYnY7jcobw4t2KvhIgCA/bwYbHWMMXYV9DHEHQ8f2ZzrLF1YkBqe/VeSZYH6IkTCuIqr11x/Wx07UrRn+wTbsu11qK9o4zMbwnUjU5YIAnYf1MrylfI8xelqt8aeOh2Xy5mcFJw+J+TWBSH94gOoK0nhup09aMOaOkNWgUpWqC7dq9XrXfwYSyQi3sJZoqUp4gUz2qeRAtC/R1IZXQBYixlqzVy3IbC/r4Ktzi5G10pMuv/SsbOu/5AnDBdU/ka+Io7d64y889KJ884mFf3rwZD3HpNSS8GjRiY9o/KZDWFXQR9DLnWIYf8TkPSMigDwvFcDUw0ySzFDrRlheTjD+s4KtjrGGLsKupimZkPkkFK93ll3PZ/PvXR4RnioHwD1RU6dbRo5k2Y+KUVsdMCu3Amx0XaXXbK9Dt1qmfnMhnDRyNbStjaioEKdna/ILlDW1js7IrNHEMBNnSpOnyNdOjckPIQP4H07Hz7ZkjTUOh7hTRs2NptyS9TyIvW2co1ay9i1xqoAf27aZGFGqjg9RRQZSnc1UtI6M7xJb9uQivV9FWx15JiL1wxTHrhU28DYJ2HG5XKURf2EQZTBNQCAo2faxtxzyVZOZ2ii//G1dNfu86CRSc+ofGZD2FXQx5BLHWLY/wQkPaMiADxPNbA768ZVvkvlPM8AAIPBtDn3+j/upTlA7KhUUYscSMT8rWvGkPKMG4xGa8wpUsrzFNvLVI1N3fOBGirlL0yWpqdJF8ySBAV6fx+zFh1RuEsjL1TlFKuvN+glIt6CWZKMNOmiZHGw5y8rDOLesTDkjoUhej1RulcrL9LIi9SXr3VpEtbaZtpSrtlSrnnifc6U0YEZqeJlaeIBfW643bVvNH/L17EzH77s/EobJhNRcUQ3fwp5ygsAAKzJa6QWOThZ3XatwRgdRpfSod4OU40bV/EOBbWIzuYtdbSpxv5DLq4iJRDwtq4eM3zwjXhN4prr+s3bGmT5irJKtcHA/P2ATYnxAelpIelpITMnCnkdOLzXKw05xSp5oSq/QmN/A3q11rguV7EuVxHgz02dKkpPlaSnSqPIp5i6w8+PM2eaaM400df/ittf1ZJdrJYXqY+c6tKhJZOJ2Hmoeeeh5leXXxsxUJCRIs5IFU0YQfOZ2luNGRwgWx5707NXnO+u+0+00qYaWSVN1CI6BXt1/7fAmzuqIF+HAyhklmKGWjPC8nCG9S44sNUxxthV0MVMnLP7cJWLdAEAQkP8ao/PAqC+yNSFe/cdsl0T0FHuX0n0U0ptr0O3WmY+syFIjXz0VLM8T5FdoNh/1PWXPJaMHR6cPjckPU2aNNSa5DGuvZN2vnClLXOrMrtIuetgk5v3y+BwOBNHBS1JlaSnSUcMtD9EOG9DsNW1///SNf3mfJW8WLNjf6PzDz/2xEf5paeIM1LEyROC+XxgfAPMbWhDWB7OsL6vgmM7U8hKG29+uYZaaue2OcK1H9ndVp4AAGhtI4JmnrMVMns4XbTiDYerjpJWhmHNbMUMAeBDG8Kugj6GXOoQw/4nIOkZFQHg+QAKphpklmKGWjPC8nCG9Z0VbHWMMXYVDjFqjSFicDG1lMGFgzNio+2vhwEAEJxYzHRaZnAQL2fVmBmTrVcFJbO9jsNqWfnMhiBMJti5TyPLV8jzFOcu6qj1XYLP58yaJM6YE3Lz/JCYyPbTET1vZ4KA/cea5QVKeaGq6u8O9Sv07xOQnipdkiaZMU7I4zlvQ7DVOcSotcacEo28SL19h7axuXtGoKRi3sKZoowU0U0zhDRDRT6zr4KTdm5HFO5tyXixxr77yt6I/v5H1vaxLRMA7k3UMBvUx+9UZjy1lLQyDGtmK2YIAB/aEHYV9DHkUocY9j8BSc+oCABMNZiWATxqaIZaM8LycIb1nRVsdYwxdhUOMWU7lXNu3kctZZCzesz8lDD7F7l4RTdgYoVt2Y5U4rd97Zhxo0U0v9XMVswQAL6xIXILlVnb62V5CqXaxXw6lgQF8ubPkiybF7I4VSoWOoyRuN3ObXpT8W6tvFCVXaTq9CuThkr5C2eLM9KkC2aIAwVMB5z2NWRcUwIAtpZpZUXq3BJNTZ2eWt9VFs4ULUsTpyeLbDe194V9tZ1b7bz7qG7eU1cpFxc34/M5uor+tpOiCQCADYVNd7xxzRbklK68nz/lwrOklWFYM1sxQwD40Iawq6CPIZc6xLD/CUh6RkUAeJ5qeDywinqHY6c86OE/8XfT/BTSVTGqGb6+DxsUvPm30QMSaUZzewel2pBdoMjOV+SVqZqZL0nCqphI/yVpIelpIWnTxH5+DrelcJum0ZhdqJIXqraXq9mbsqpQGVbJFKtkikABd+50cXqqZHGy2HL+i4dumiW6aZaIMMGeo83ZxRpZofrEOfr9kD1byrVbyrWPcTnTkoIyUkUZKaIB8b1tGumUUYKKX+IXP3/1ci01hzYYiDqlkXK2ztnLHmR+R860TRjW21oMueTNHzzqBc6c8+BKSgol9YhTW0fz3Xdectj6FSODgxy+Xvu+K9faNm1tkOU17NirMRq9/GjvoOGDgtLTpEvmhExKEjJ1DrjjSq1eVqCUF6hK92hdnoLUiVp0JnmhSl6o4nI5U8cEL0mVLJ0jGdjX4xt+cjgweXTQ5NFBHzwXff5y28Z8dXaRetfhZjcnlHQKk4nYcbBpx8Gmf35+beRAQUaKKCNFNH64k75eHzNqoP+BVX1ve7Wm9AB1HK1ORU016tUe5Klnr+gx1bgBYapxg7pwyYOvgy0ON25VO9ye443nE999pb+3X7B7qEPHm+R5DfK8hsPH3Zpg3+m4XM7UscL0uSE3zw/t18fuU9nzdj58skWWr8wuVB3spvdiZTIRFQcaKw40vvbfK0P6CdJTJUtSxVOSgrkOsyBc6hfv//KDES8/GFGvNMiLNbJCdeHuRl1r1+VPAFB1Rld1Rvfhiro+0X4ZKaKMFPHs8UEdOeWnhwiTcIt+iHvyP3U/biRdS7SxmbrzaZo8aPCL16iHDnQjwFTjBnXtuuuLA1o5jl1SLme++oeRt6VH2pf4LqMRyveoZXkN2fmKC5c9SMg6UaCAmzZdkjEnNGNuSKjU+08toxFK92hk+crsItXFqx5s8S5z6rzus591n/1cGxnmt2i2OD1VMmeqiHlKB6PwEN5DN4c8dHNIcwuxvUIrK1RvKdMqunYOzaVr+m/XKL5dowgR8xbNEmWkiBZMFwZ5/l56lO9fjRg1wP/pT223m9e1UQ8HJg8yDahTUr+3oBsBpho3KI/G5nk86uHSOogwcqjw92+Hjx4uJNf7nhadaXupUp6nyC1UKFQejD13orAQv0Wp0ow5ofNmSgIFTi+Y7VRTsymvXC0vVOYWq7rr3qqeut6g/3VTw6+bGgIF3LnTROmpkow0SYjY4zQrKJCzbI54WZrYaITy/U3yYrW8WFN9hWa8jz1KjXFVjmpVjkoQwJ07JTgjRbRktihc6nmnTc/wxK2SpMEB971de/4K/d+FR7fOadJ5vD+jXgBTjRuUk7usORI5nN3A53MA4N1X+r/xfCKlikKtMRw5brswQ0AANzFeEB3ZUwZrFSqDbHuDPE9RUK7s4o53q/59BelzQpbMCZk5UczlepFaWNTW6+UFKnmhsminppXhPOSer0Vnkhep5UXqx97mzBgfnJ4iWTpHkhBLOWnBNR4PkicFJ08KXv5q7OFTOnmRWl6sOXiCOvOAVbpWU3apNrtUy+NxpiUFLk0RLU0VJXr+XjpdTb3x/FV9W/s9aHhcTtJgf3EwYzI0bbTgzOaE5z+v/2adKjCAmlnQnADMrNWhUwTdCDDVuEGZcwU3ScXU/WTEEGHRpnEzp9DdPAngck1rTl79gSOavYe0VSdpTnWJjxGkLwifNFY0Z2ZIVEQ3pB0XLrdu2lov296wa7+mK6cT2hs/Spg+NzR9jnTUkA5dUPXMhdbMLYrsQmU33h6WDUYjUbqnsXRP40v/uTJyUGB6qnhJqmTCiEAPdtx2SUMEY4YE/PuJyCu1hs2FalmRpmx/U1deGcxoJMoPNJcfaH7p89rRgwUZyaKMFOHYoV06jfTKdUPhnuY9x3SyksardTR9XaMGBkweJZg8IuCm6cEx4dRvFwDw5Uvhs8cL4iKoRwMnOYojfz8vNiDyed5sdbyuhosAAJrZDVQdPDMbbHWMMXYVDjFuXirU7I/vRt51c5TDi1CXAaByv2b5Dxc3Ob1bLMXNCyOefih+5hQJqZSdDbH/SKN5mmfVqe6ZGunnx509WZwxNzRjXqj5Wlte78w7DzRmFyjlhcpT57r0m3r3io30W5wszkiVzJ8hIteQW8mhzSjtrNaacko08mLNtorG7royWEKsX/psUUaKaNa4IB6Puq/S8fKgkbe7+X+ZKnkpTdLP5Pa5opf+TzphmOP5QTTt/PU69QvL60nlzF64S/L5c+SLCJNe0mHtzWzFDAFgrWEOAHOl0wBgcUO0s6ugj6FpZHteHzSYFmxsxQwBYKnB62ogt4wYKnQ/1XCn4+HCZd3Lb5/O2mqbPuamTVvqHrsvllraeQwGonS3WpbXkJ3XcLmme6ZGikX8BbOl6XNDF6WECD35CkjRojMVVmjkhcqcQuX1BvqB897t6nX9T+sbflrfIAzizZ8hSk8RL0mRiIUeN6lExL1nsfSexdI2PVGwu1FWpMku0bi8tWnnunBV/80axTdrFKES3qJZoqXJwnlTOL56CAAAIABJREFUg9mYRtqmJzzKMwBgfb52fb72llTh8hfD4yNdfExEeDJzOUTs8cZCvYA3uzX2argIAGA/LwZbHWOMXYVDzLcrL734r5PUUgbHK6YN6h/o8CK25U25dQ89d7zJq2+Hzz/a57N/D6CWdnhDNDWbthYr5NvrtxYrVF17JoJVXHTA4jkhGXNDk6eYr7VFs77u7Mz1CkNOkVJeoMzfoWa6YvQNy8+PM3uiMD1FnJEqjotyvCi7hct2Jghi95EWWZFGXqw5Vd09KWmggDtvSnBGsnDJbFGoxPEj2fuDxqMf1P6cRTpn1U1iIffP96IXz2C4nw4BAFB2UJfy+BVSObMVb0Q8nE6eRU56Sbq1B/tihgCw1jAHgLnSaQAA+0dvuwr6GJpGtudyZ3ZcBqCU0QWAfTFDAFhqPO3VwFSDzFLMUGtGWB7OsL6zgq2OMcauwiHmcJV24pzd1FI6PB6n6UIKj+fY6gQAGI3EP989881Kt+6A4GjyOHHp5rGOZ7h4vSHqFfqsbQ3yvPqiClVrN03zHDkkaMmc0PS5oRNGC6lrSF1fZzvzhSutmVsU2QWKXQcbu2tCiW8ZOyxwSYo4I02SNJh6gHLSzo7LJ8+3you1siJN5dGWbpn+wuNxZowJzEgRLUsV9Y22dip4f9BobSOm3H/xyGkvU6jXHwx9//FQDgeor04AAFyqNSSmXyCVM6taEz+8H3liLOkl6dYe7IsZAsBawxwA5kqnAQDsH73tKuhjaBrZnkc7sw2pjC4A7IsZAsBSg6kG/TKARw3NUGtGWB7OsL6zgq2OMcaugi4meliJQum6E35Q/6DjFVMBHF+EUKoMtz58tGyXBzucvbAQv0OFE+nPRvFwQ5y/qNuYWy/Lq688oO2uz4Zp48Xpc0OWLQhLiLMf4SavjMOqUXZmgoD9R5vk+Qp5gbLqbw+u6Irs9Y3xT08Rp6eIZ08Umq+m5d1Bo05hzCrUyEs0hZVN3XVST9JgQUaKcGmKKGmwP9062iOs/ziqvmpIurO6sdnLd7FwevCaD6OFlBnM7b8raOY5d04tiQzlXdvSl1pK/guwX7CxFTMEgMcHDUauDyAdPHrbVdDHkEsdYrzbmclldAFgX8wQAJYaTDXolwE8amiGWjPC8nCG9Z0VbHWMMQQAFJUrkqeHcum28+0PHc7a4nr+5tKFkZk/jwKg/qKLV3Spy/Z35CJX29Ykpc0MoZaaubEhCBPsPaSRbW+Q59WfPNM9n8pBgbw5MyTp88LS54aEOJynAwDUt+Dwhsw7c1sbUbxLIy9QZBcqO/2GZzeyUAl/0WxReopk/vRg6jmZ1G1BXQawlTW1mLbu0MqKtVvKtSqNNwOFHZcY65eRLMpIFs4YE8hwNVIXB411edq733B2j3jnRg8KKPg+Nsx+ZKf9d028//KBk667TO6aJ/zrvQhqKQFGI5Qe1KVOEDCuva2YIQDcOmgAYXk4w/rR266CPoZc6hDD/icg6RkVAeB5qkF7cES9RG1d26I7DvTrG5j5a9KIodSrbM1PDXMn1Rg1jPqDAFCv0M+//WBH8oyXn+zLmGc4pdcTRRUqeV59dl5DTa3roxsbIsL8FqWGps8LnTdLGuDfnscx/20y0TQacwoU8gLl9jKVRxdVQ25SqA1/ypV/ypUB/ty0ycL0VNGyNIntpqxuCw7k3jpXfOtcscEApfub5MVaeYn2Yk2XJoXVV/VfrVZ8tVoRJuUtninMSBbOnxoscLjKhRN3zBPm7Zb8Jvdm0gYAHDndetOzV4t/iAt2OON45AB/d1KNm6bRnNe9/2TbbW9cr2kw1G5JEAdTa1HvQN1j3IG9Gi4CANjPi8FWxxhDfLfy0gtvngSA4CDe2pVJ81NJd2dtaTEmji1Xuroy5oZfRmfcFAFg+0WtrabZS/fvP6yxi/LMknnhG1aO4nIZV91xQzQ2GXMLFfLt9duKFRqHO7B0jYGJgUvmhmbMDZ06Xtx+ww67t0D/bsilBADAlWtt5iGS0kpNV97wDIH5tjJJQekp4qWp4oF97Qfv6LYfqYwacPCkTlaklRVrjvztfc7dEUGB7dNIZwlDxO1Xf6Oupj2iTU/Mf+pKmcNN1Nw3f2pQzhcxlv2//Xct/0v9z69dnO8aE86/IOvDJ6d5G4qa733nunnwZdW7kXfPo8lFAOzfFPPbczho0CAsD2dYP3rbVdDHkEsdYtj/BCQ9oyIAPO/VwFSDzFLMUGtGWB7OsL6zgq2OMYaYd8v+kh0K8wKPx/n8/SFPPtTHPuCDz8+/99lZuxIaFw7OiI0OALD9onufPLY265pdiGemTpCUZY0DACer7rghnnzt9Iq/rloXu9LksaJFqaGL54SOGup4HLR7C/TvxlZ6+ESzPE+RXaA4eKx7ruqBKIYkBmSkitNTxJNHBdEnvqQyugAAIKD6qj6rSJNbpi3a0z1bNiNZtOnzWDcPGpom04yHLh8767oTgsmr94d89FQogO13lR7QpT7h4iSU/z4X9uJdYvuS939RvbNCZZ1cdccc4Zr3w+0DbGxvivntORw0aBCWhzOsH73tKuhjyKUOMex/ApKeUREAmGowLQN41NAMtWaE5eEM6zsr2OoYYhqbDJGDSwwG0pfmD94c9Mozie1LhEpt6D9uR2MTYydBv76Bf1dOsywQAAA//Hb5mTdO2YV4Ztwo0fa1Y6QS88gdw6oDzYZ44tW/V672fpjZC/NmhyxKDb1lYVhUhB/zmtpV0MUYjURppVqWp8wpVFy84v3BHbEqMoy/eLY4PUU0f5qQdDlL0jal28BA2leVGtPmQk1uWWPe7sbmlq7rr/Io1QCAq9eNKY9dPnPJ+wGgrM9jlswMsv4uXSshTjlvvTWSo1AJ70JW3+BAW8mLXyq+XEsaygmT8Oq22X8XsmN7YcZf4XjQoEFYHs6wfvS2q6CPIZc6xLD/CUh6RkUAeJ5q4FyNXmvHbhUlzwCAf314WiLiP/ZAvHlRKuF/88nQB5+pIkfZzJhMuvT4yTPNL71z2r7EI+NHi/LWjxU73FHFHRyP7unkLZGQvyA55JaF4QuSQ4KDyH3EnmhqNuWVq7LzFblFyu66eRty3/UGwy+bFL9sUgiDeAumC9NTxAtnCb242VuImPvQMulDy6QAkFPWuCFfk1OqVXbTNFInYiN4ZSviUx67fOqCl9nGQ+9dP7auT2T7rBdBAGfs4IB9JxgHkv54OzI4kGP9a3pnhYqSZwBAg9p49Kx+1IDuv0cM6nSYavRaFZX0Keezr58cOUw4vT2HuOe26G1F9es20w+IzJxKmrl575NVbd6e8pc8PSTrt1HBQTyvPruB1QtL9IkNWDwnLGNe6OwpEo/uDkNRW6/PzlfICxRFO9XddVUP1BGNzcYN+eoN+WoejzNzXFB6snhpqtiLm70BwOJZwsWzhCYT7DrSIivSyks0py96+bnukhcneEeF8cpWxs998op3F9tQqI2PfFAn/zzaWjJjjIAp1Xj6NsnCabYODVlZ83s/0x+ddhzWYarRK2Gq0WtV7qd+aTAjCOKR544dKJ4a2D6N/PvPhv19tvngEZppnvNTbHcrWP6/i4fcvpY5xR0ZUb9+NcxyxcweY/Sw4CVzw9LnhY0b2aGJ72eqdRtyG+T5in1HGr046KMeyGgkSvY2lextevGzmpEDBekp4owU0YQRTgaO6XG5MH1M4PSkwE9fiDh+rk1eopUVa/ce0/WE/SRcyitbEX/bqzX5ld6cK567o+mHjZrHb7FMv0iZEPjlGhU5BABg1tjAz56xHUbqlKYH32ecQLr3eOsTN1PuboN6A28O/ThXw0UAAPujfWCro4sxmSB8YJGTSRjP/KPv5+8Pti4qlPqU9H0nTpMmtY0cKjxYPNn8/MJl3ahZuz269bzV2y/3+9cLibZl2wrTrbqZw4boxGmhKdOli1JDM+aHJ/YJ8HpDmEyw55BWlteQna+4oW54diPrG+OfnixKTxHNGh/kZ+39cthXaRCWh9nVOoO8pDG7VLutwrNbkzDxdK6GfYzRCA+/X/tnLs03DZckQt55WV+JkAsAzToibM55643pzaaMFBR8G2N3Yxfi9jeubyhinDw7eqD/oT/p7ojk1UGDBnlD0GP96G1XQR9DLnWIYf8TkPSMigDAuRrI7Gx1s5M8AwC++/nSI/fGDRts+TYfGuJXmDVh2X2H7PtCFs+3zQZ/9vVTXuQZIiH/ly+HLb2JYVa5Jzo4gBIcxJs3O2TJ3LDFc0JDLJNSvdGiMxVWqLPzG3IKldfr2eoPRz3TxZq2b9c0fLumQSLi3TRDmJEiXjRLGCxwvFmJC7ER/Mdvkz5+m7Sx2bSlvFFW0ri1olGt9fjvy6ojfSQ8Hvz2TtTkkYKn/+P6KjsU6kbjJ7+rPn4qFACCBJzZ4wLtO0jmTg7a8HGU/Q3kSg7onOQZAHDsvF5vAD/v/0BRD4WbtHc6fsrFtyWTifjXh2c2/p5kLQkP9SvcNOHp107+tsZy0trCNEuKUFKh3FLA2OfJZOYU6Z/fDo+LcbwPtTe4tFc8dSUsxG9haugti8IXpZHvW+0hpdogy1Nk5yvyy1UtOu8/ElDvoNYa125Vr92qDvDnpk0OTk8WpSeLosI8nkYqDOLePl98+3wxAOTtbJSVNOaUNV6u9XgecccnTT9xq2TOpKD/e+vavuP08y2YfPqH8pnbJbERPACYO9mWarxyr/SjJ6nXKX76swbSsgOjkThzWT8sEadr9DaYavROZ865HnzN3l63c4962iSJtcTfn/PT8mHLFkU+/eoJHpczdaKl6sW3/rbGuCNE6vfPJxP++RTDeWte8ahXY3D/oCXzwjLmhU0ZJ+rIQfjC5VZZXr08T7Fjr8bJiXzohtXaZtpSrt1Srn3iA87EEYL0FFFGimh4f2/S63lTg+dNDf7u9ah9x3XykkZZibbqjLsTNjvSq2E1qK9f5e/xH/+q/OwPlbrRg3z6rR8VP/8rAgDumCN85euG4f38f3w9YnoS6WI8ALB6e+Px8647As9cNmCq0ftgqtE7nb/g1uyBH3+/bJ9qmN2UFnZq93TrLNG/Nl47esJFH4lVXEzAS48nPPJ/sYGC9msXdhI3M4a7lka+/kzfYYPar7Xl+SGYIODA0UbzJIyqU846e28oQ+IFTy2J+L+U0BAhDwDqVG1/Fin+t6X+zFXXHx7uu3t68PzRAcNi+cNj/VTNphNX9AcvtH2X33Sh3oNPvm5BEMSeqpY9VS3/+uZ6/3j/jBRRerJoxtig9qvKemDCcMGE4YL3ngy/UKP/6OeGlZto5lpSdLxXw+r1B0OevVO6YrP6sz9U1xqcDcJa/ZateeOBkAHx/D5RPPnn0YumB9GuzkqZW5PKq2vc+qXIt2Cq0TtdvebW9yH51ustLcMCKbehAuDzOZPGWSaWX69ri40OcP6CsdEBGTdFLF0QkTrDm9uauMPNnGHmZIktz/CEXk8U7VTJ8xQ5BYqr3XRrlR7rrbtj37svFggAIMxbIkLi9+KyyBeXRr7229X/bPB4jN9RSDBX9nLEzKECIAgAAggIFnDiQnhzRgb8c6HwiV9VPxS57qjrIc5dbvviz4Yv/myIDOUvni1KTxbNmRQc6GQmPYOEGL/504TupBqd0qthFRzIef5u6fN3SfN2t2wqbswqaaxTOkv14iP5h0+3DojnA8DiGfR/ffUqU/lht4Zmauox1eiFMNXondycsdjUbJRtvX7nzbaT4x298HjfFx7vq9Eaz1W3XL3WerW29Xpdm8FIABDBgbwRQ4OHDQ5OiG8/jnbmEa8raLTGbcXK7PyGrSVKtQaPcTR+e7nf/XPCmTbtJw/EDIkLeOirS9QKTwgFnN0fxAyOZjwc/e9BqT8fvs7zmWzD7LrC8Mtm5S+blYEC7rwpwenJosWzheFSj6d0dJd5UwLnTQn84fWI81cNJ863VZ1ta2k1AQCfB1Gh/LhIXlwEv1+snyiIrhODbHNpk5tDkA1qvCBNL8T4t418msrtK1RukNc6TzXMxCLemJHCMSPt7/Lq1oGjs7g5LdTNnuQr19rkeQ3yvIbS3Wq84RkTSTAv6+1ByUki55v6wTmhCRF+N39crW7ysiV/+kf44Bg/5z1XX/2fpOxU26ELPpkOtuhMshKtrETL5XKmjg5MTxbdNk+UEON6RoJ7u7O7u73X+sX+P3vnHdfk8cfxyw4khL33FlBEURD33ntU1KptHdXaOuseVX/uVVdbd+to3VqtdVTFhVvcouJi7z0DIcnvjyCEyyW5B5KYxHu/Xu0L7gmS8Nxz97nvZHo6MXu2MoWfelV3rBanruH6IguK6ziLCPoMkRrGSSl2YurVmxRyoz8hmGGhqi3JT2JLTv+X88/FnEfPcaNPPls87DnnV/j7u3Bx9pOOjfl31np3XxyfkImrcatp3YAzrBUf57dsHCFov6KqfaCBIpFIbz4uvfm4dPbGjIY+3L7t+f06mIUGcJVJBZXTuQbV0/6TI5EATO8JAEBYodefhVA3iNQwTkS1C+mooLCo8n1CmZe7XB8kKojF0uevSl6+KXn1pjQ1vTw9s6KkVGzCpQcH8k249JCG/E5trEwVYkF0TOyb0u37085cyk1MwV3vPnNCfXnnV/jbmKuxNMjTwIX7YINP958+xLyj9kce0wG3OmS7BmwXK3pyrpGcep+/FT5/K1yxK9vJjtWnHX/cAIsmDeqSuqIRRJXg3+iSm0/KmAzw7E1FqVDCM6E72DCcbZkBHuwAT3ZDb3YdQlxlvEoQFWFbvMS4LyQYEkRqGCcMhpJTEorY1yVUpYZIJL14LefgifR//ssuKUVYUC5cqUmg3/g/v0nfOMtd1DWHTmX9ulczlUY/Bwa3tTq60A9fZFRjI2A+2OAzeHXi8VsUSk+28qcQMNkhgL3/JjUpo/+kZoq2H82TSKTb5qt3ZWqDtfvy5mxRUzhHwKcPaM+P7Mrv1NyEQTHa5Nk7rNAxGUyK/zjBIKirTCXoNyZUKhjiFOGopqJC+sueZO+wm/1GPTn0dwZSZ8gjMGOOHPJpFlBCHZgd6XR0oT88SoVjs11nD6RQH9ZWQGGu+tiR05HmGdlLwOWouQuFxZK9Zwp7TE71HZi46+8iEZWYmdcJFNxqdai+StB/yE01Tqys1EecVaM6kVWeo6czfVvcnLrgdRp2OujM79wEZho4p2g2LJSgCIMO9s7yWTXWHb5AnVWj7PdOcWLgrS4sKhY4HofCi40AzOlcz2nvYM2YOqyq1bNaEtJE367I9B2QcOIKbqRnciYFYWJnhTdvCAYFuanGiZM9BadveqZ63SAWS6cvejN8wjN8XQIAcLDjTBmvmZqhGgkLJSiDb0K/uLbhqK528IW6MqqDxcXFbuamZIWpF5jTuf7TftZoS3M+hSNBUkblkNnps7fkSDBCK1KzKEgNZ1tiuDJCyEJgnHi6owvpIMnNU2PeLCwSdx3yaMuuRPiCOhbP9KTkyiF8EtzsOXe3Nu4QAteNrScdGvHurfVwIzuHIWDOp8/7hnL9vXUH8ntPSysVqhE6WfkYeuQjslJgBCODbAPGScMA+QIYalBduqqkVNx5UMz125RzYkOCzL4Z5giP1hXiQNESoX78mG0hgR4UtCk+fk6cmLUeod4UAj8J8mBOZ41M+ynDLHFKfUBcuFPaY0pahcrTSh6VprWNfdjwEMHwIVLDOAlvhut5BQCUCZWeOcRi6ZAxzx49w2peALF5hZ8mFsAqiANFG/SOsIreHGxjTnmDwcdGwIxe7jawBQXtS6gGczprZNqzmGDjjxTieauJflw2clEGPCpHSRnu27MUMDydiFXDCCFSwzjx9zFtFIhbrkBFucwfF7+5eFVN32ck345yiWhW1UWFoJ9MH+J8alkgl631RYDLph/70Wn2AMr2eYKO6duWN6hjXUThsaji/+1WavjEr8rVKphCkBnBgND6KkP4VAwfjOu8UGZ9PXo6c+uuuvS2cHbkrFrgDY/WD+JA0SB0Otjxo+/677wx/6r1h0ajrfrSdu/3DphpKQQZmNNZg9N+yyxbSvGh1SzZmXf5PlZDaRV0bk6twA/BUCDPvdEyfLAD5kbCYiFe9iFROG5aLDyKAY1G2781iM+ry2qlAuJA0RR8E8bZVY3G9cZVohpkVHvBxUXOJC0FH8zprMFpb2/N2D7fFh7FQCqVDl+YiWyWhqkvmUzasC48eJRgFOBNAYIB4mjP6d0Va8lAVu+ZuThObXkuJMvnerdpQSFShKBLnG05d7c17RZmBV/QFR0amt5b6eJmQ/zx+suQzvzJ2GU25MnKE/+0A+FG4bARhxlFBnfg2Voi1iKCEUDuqzEzf4YXPISCz4PX/agbuafOZUGDOPTvYTtzkhs8StAPgr15MTtCAz0+8cHRz4kds9o11It45fWXtVNsWofUxZex7UTh83dwOooJXuG1BV/XRd8QDAIiNQyeA0fSxkx+HvsK0aq0SbAZTsSGuaCW1BCJpJNmvZIfwSQ0WPDH5kB4lKAfdAuzuv1bqL1VfTMJx29OmL4zGR6liI2AEb3UaWD4JxY9BGUwGeDYagdPZ8qpSRKJdPJ6uJ0KH6Ph4sSBgkBPxK97FFcxcnH20SgKzRMIeoj6GUDQc+48yN9/ODWk3a3+Xz56/hIWHOuW+jvYqTk+WpjXkho796e8i6f8YHu5m/x7sDHPVMMhGgSNMHmwy9k1wabcet2dUqG4+4I3O8/n/Hwys8+Sd8IKhFceHy6bfnyG/ex+5pSiDCi9mFAfbC0ZUb8521vDJk+1XI0pO3urVnyoBV/NRuPlzFo9CXbq3Xle3nFSeujo1D8vFD96TaFIMUEPUTMDCPrPi4/2jLMXs5p1vL1wxdsKudQyG2vWyf0hXJV7jKNcFfPycsnyDe/lLmLh5MC5fLyptSXiUEL4tNDpYMesBpum+GHGCCsjI08UMf3VhZiqlq1n7hW2nvkmu0BV8TccVg235lOpJ1uvz0CgiJsD8/xmJ4E6oaDI4h258t/aW6lafwQ8+pn19nzTmntbXCr9fl1uy3FpVx9WdfF9RaVhG0EPoTyHCPrGuw81FgiJRLp60/v2fe/Jt0MLDRH8sbWhinQ4Z8caqfHX8fSsHAodnwEAPp6m0WeauTipsZ3UE8ydUsXH/Awx5dLPrg0Z18cZvkCRp+9LQ3+Iffqh1lE15m1Z6NTXsYnG1tJdr8Ccztqb9sG+7Fu7XV3sqdk2Hrwsj35SMzEcbZRKDRaTdnqdfQP3mlPKu5TKsDGpvx6vErUy4tPrK2oJnxYiNQwbkUiq2CztwaOC0A63n76ocaYM7G33+5YghpIWmq7ONXWjN+1IlLuinpCGZjfPNHPVss4AJNmVOvZW7NvbmncLt4YvUOTCg4KIaS9TshHHysQsUfiMN1eewm47gqbAnM5anfYBnqy7f7iG+FF7xrefqCkx7KSkDw6HTTu11r5tSM36c/WhsOno1Ffx8GRLyapLNhxBfyBSw7DJyEJbILJzKroOeiAfujF8sOOZg02RnpRqqfHwaVHsa9xtg0ajTfjK5erfTa0s0esI4RMS6MmL2RMe7INbMVYZO89l9lwYV1quNCyjuEzSZeG7fVGIFEeC0eBgzbi2w2XiYAoN+Y5fKckvqpo2TiirhpU548Z2p+4RNXku1x8Le8/ILCpBTLacAglOC1mC3kKkhmGTlw/L/2py80TdBse8flvjXunU1urexfDgoFrbD51O8/aoetp37sfNLAgPNX9wsfmWFX46iwPFtBBrz5JsQHQLt767I8zZtl5NziQS6YztCeM3xqtd4sUSMPrnpLn70rV6tiaoQAfTnm9K2zrL9vbvLo18sMwbwnLJXxeqzi1eCpksHZuZPD3g3CygJh/q1rPyntMySpX0Y5JIpEWl6EsEg4BIDcMmv0Cp1AAAZGVXDPjyUancI9rAl3f7fPicKZ7V5g1PNxMOhw4AKC+XHD6pqmeSDBcn7q+rG9w43Sw4sC69EuoM5i5GdrtxfV3Orm/KN62XqUlYIen3U9yG4+nwBeWsOpY1eFVihfJ+OgTtobNpHxbEeXjAZctMWweMzJQ/z1dJDV/XGqlhbc74eZr1pa0OTrY1p5SMXHG/mUp1hoyiUh19RoI2IFLDsCktU/VwAgDefigdO/WF/AiLRVs61+fN/dZTJ7g72nMC/KpqG0RF5xWXKI29MjVlfDPM6cLhpu/vtxo30ln7hygCZWg0sH6y/445QZghtMrILhC1nvrizN18+II6TtwubDvvQ14xcasbM3Q6+G6IIOlf9zMbHYd2NWOj2hrIuP1MmFsoAQBYm9MtzBj+7uyl31rG/+06ZWitRoyVYjBwTmZOgZppg9+zjaCHqFemBH1GRVPWao6dSu/R0Wbk0Fq1vOxt2WsW+y6f7xOfVJVWkJombODLe/WmBADAYNC8PUx8PE39fXgerlwvD5N2EZYmVJISCTqGy6EfXRbSu7VtPUtPxCaU9pj7MjETHQOklrtxZc1mvDu30N3Pub61wgj6DJ0OerQ07RFhWlBsc/2R8F2y6H2K6H2K6FW8KD6tUmZlCfRkv0sWWQVyAADXtjk28mYjC6Ms25N/+5n6PKZKMeJnCYYCkRqGjVo/uoz5y98M6WfPVdAKLBbN18tU9vWYL53HfFmTFUlTXBQUBgh6gr0V+8z60GYNzOt5k6IeFQxY/KqwBH2+7BdhMaWfXYgnVywBT96XLj+cjsw9eZ8uCp/1/vR81zYBVVOLYMSY8+l92lTdaBWLRiNvtPTMzpes+6sAHkVBLKkGDZEahg2TifX8pWeW/7InacZ37vAF6iSnlp+/kvPwaeHbD2Uv40qqU22dHTneHqYn9jSCypwTtE2gJ/+/Tc2d7TiK6zwl9v2X+c3aN2KUeGUxabumuo/qZAOAVBY10ynErFMIf+s/WVN2pCjq3fwSSadFCfsmO0W2oZCzQNArcgs9yQh0AAAgAElEQVQlg2elxSWK0rKr/KqONsxAT7aPGys8iNO9panqwlyYrD1QoDpEoxqOck8NQf8hu4JhY4rRXEDG6k0fxo9yMePXcXVITS/fvDPp7MXsl29K4GsAAABS0srtbNhEZ+iYDqHWp9eF8k0Y9bFnSKXS+bsTVv6Fzj8y5zHOLPFt3ZCv+Bu+723r68QeuDxBMRtWVAmGbUh9nVrx0xc20CWCQWAloKfniKt1BgAgLbsyLbvy8n2w/TgAAAT7cnq3Np06zMLaHHcVgsjOl/xyrFapLhXwFIyyBAOC3DzDRmCGu7XnF4j2/JkCj2JQWCSe87+3fi1urf81QZnOkDGgpx08pDkwzac6yPrTH0b1dL64JayeySYVIsngxa+U6Qw3O/a9zYGtGyqtz9GtqeD2Wh97C/R7WHwoe9iGFFGlgkghaBQtTft+7VT1w3v6pnzF73le/ROW7sorK6/LLd79TxGmSQMAYGNBdisDhtw8w8bSAk5YV8GBo6nwkDp++z3Zu/nN9b8mlCscWxUZOcQBHtIcmNl8Osv6++Ss/r7B3p9ClFWAxSSvSNR26rMTN3LgCwAAAEJ9eTFbg/xc1NTnCPY0idnoG+iKLrdwKLqo40+JBUriPwgaQUvTflSvWqkiSIpLJUt25nr1TzwWpeocgmTvv4hYHyQCHl07aoqgI4jUMGwc7Dj4B5onz4tiX+MuBxIJmDT79eR5r1WX7qima3trbbdBIcjgcujHVoXOGuUDX6BIXFJp0/GP7r6sKSAtT98IixsbAm3MsbSsszXr9lrvTo3Rh+Dol2VhcxI+ZGBNJNV0CGBb8nAnPKGeBHiywoLUCE0ZmbmVQ+emz9mai6957sdWvIrHTXRyVlLanGAoEKlh2JiY0OX7sqrl0Ik0eAiFUCjpN/LJjn1oozqSCV/Vt6cXAQcbC3b0zlaDOtZKXa4D0c8KwiY+ik+HG+jImD7Y8eRPfiYcCuuDwJRxYbHnqA4W8AUAAABxqaLQWQl339Rq2FYHmnqwHiy28rKrY8gRgSrfDqQQ2Ltmf/7A2RnleAUwqgt84eDrSqSGYUNhKSHoJ34+FFIKz13OhocUqKiQ9hr26HyU+ldW4+Fq0qszif7TOn7uvJj9bUMD0Ns5PoeiMjtOe4p0atDpYMc0r/XfutehDhiDQds71WXlKHTITl6xpO3C5BN3KGwwSLzsmA8WW4Z7k71HF0R25VuYURB2p66V9P0xQ4yYWTBnbtb0TFBLgAeWdY2gtxCpYfA0DFAasqfIk+dFuXlq7NgTfoy9cYda96wfxrrQyVTSMq1DrO7tbevmQEFZIlnyR/ywpS+RoZqmXPrZ5QHjetrDF6gwZ5Dt8dmubFQadkWldNC6tFUnqc0uRSx59OtzLQeGoks1EDQIl0Oj1GUNAHDxbunUn9HRP9UkpFW+T1GzEMmjrCwHwVAg+4PB0zRYfeiWPPcfqcouO/Fv5oGjWE6Wasz4zHEjifdEu4zq7Rq1rZU5v15nO1GlZNjS2MW/x8MXAAAA2Fuybm9u1K15fU0mAICBEYLrK9wt+ejlZe5fOaO3ZoglCK2DD5tJO/a9YE6vmr6gBC0xeag5Zv2ean45WnA1RlUB0OinaM+dMsICKbiJCXoIei0gGBAd2ljBQyq591Bpbb7iEvHUea/hUXX8MNZFBzXLMYNf8YNkDYhl3wXsXdKUxazXH7mguLLj1MeHLmfCFwAAAAS6m8RsaxzshY7rrAPhfqYP1np62aO10b5rRV3+l1aMneiIhEajrRzM3zuWz6jXH8YY0Oq0t7NijMZIRYEYsyxLRdDG3eeqhAiEmwPTx4X4ywybz/4ZNXycHTmNAin4UJ6/VOosX77hQ3X1T0wsLVg/aqIIqVowI9u1lPX3qWCz6MfXhc8f4w9foEhihjDs2wfRT9Eqs1tzi7u/NHa20fDB0cuB/WCdZ7gfOoXhyouy8HkpKblKO/xhMqoV9+IMAR/9Sz4XtD3tF4+34rCpqZkPqaKNh5QaUB/F4eaeAAD6tK6v05DwySFSwxiIHEghH+HFK7TUeJ9QtmVXIjyqjqWzvOpcgZSgGksB6/quNgM7OsEXKHI3tiB0zP24j331IMb1sj+7MohvopWbaMlnXP+fe2RrtBSOTRaFzkmJeU9N3SrSIYB1d4G5syW1vZCAj5Mt48cvLeFRdSz/PS8zDx0g+uwtBanxZXeNGdsInwoiNYyBEUMc8Us5fUgsq0SFBM5aHFdRQc2g3bABf9zI+m6EBCReLrwHf3YMb0TNO6bIiWuZbb+PyUYVR6HRwLqJnjtm+NYh2QQfNot2cLrzwiHW8AUAAAAZBeLWi9LOPKSQjIAk0IkZs9A82EUrgokAAJg92tLOipoXo7hUsmg7IgQ4LVtcWIK71Hi7sMKDNGxvI+geIjWMAScHzuhhuIGZIpEkOQ0+R76MKzl9PgsaVA2dTtu9MQBf4hDwad3E+sGfHb1c6nuYW3UgftD8ZxUihLLksumnlwfN+MIFvqAdlkbaHJzmwEJtVUKRtO/ajJ//RTt38LE3p9+eZ9YtCPU7CPWGZ0LbswidxqyCPWeKMnJhw8a7FApes1E9+fAQwQAhUsNImDPFk4kdNpioYEvfvIOy62T+NI+mwWjDOKE+RHZ3jdrR1lJQr+w+sVg6etnzudvewhcAAADYmLOitzTuHYG2NGiJyNaCqJ9czU0Rs1QqBdP3543fmSOpX1qKKYd2dgp/XNt6/ekIyujR0vSrPtTiQysrpTv+hsvRfkhF2NiQsFm0sX2I1DAGEI89wRDxcDOZjh2emZxaK/y7rExy6ES6/IhamoUI5k3xgEcJ9WbxxMCDq8JZrHo9mMWllV2mxuw7h05a9nM1idnRNNT/E8jE1gEm91a5utmgDQ87o4p7rs5UbBJLCTqdtmOU6YYvuNrMyfh82TjdxtUeffuUse8sLDXi03CtGnNHmzvaEKeYMVCvFY2gVyyY4e3njWVyz8yudao4+W9mSSls5FSBvS3n+J5gqqn29QRz59Bq1p9WYTHpB1eH/zQhEL5AkZQsYfi4u1ceInzkAIDWjczvbQt1s/9kCRt+TuyY1a6hXmjv+4WnwoifMjIKKMxGJNO6cE5PMuWiM22NEJ1NezMe7dxmJ3MqkeDvkkW3alfRyMjBur+Bnux5ozVQ5YWgDxCpYTxwufTDexqz2ervKdRBbf8R9PEXCc+UcfZgiJMDeqvQHpjZfNrO+tMSlgJ21K52kd3d4AsUiXlVEPr17dgP6KZ6kZ3sojY2NudTO5VqHBsBI/p/zr1D0RmMTxNFofMzniZSyFBA0rsxK3oWz4avoz3406LLaR/gyfp3kyOXSn+cA+drGTay8tVLDZ4J/eRqO2RwD8EQoTBdCPpPUAP+rk0N4VEF8gtqDJjFJeIr0blyF1XB5TKO7g4ODiTeU03i5cJ7cKhz66a28AWKnInObP3tvYxc9Ca9dIznwZ+C6lkHTFNw2fRTMx1m9EFXvE7JFUcszrzwlEKVJySh7oyY+Tw/+89CbeiSiEacwyvt8dXGP9G1Mozyi9T7yA79z5a0WDMmcOcKQX+4Gp075ofn0XfyJagHNnKgw6JZatqLl5bVnCqu3crDjMVzc+be+rdZl3b1Tb8kyBMebP3gUFcvl/qqt42H4vvOeihEpSuzmLSDPwUtHO0BX/ik0Om0dSOtd4y3QWbalpZLe67J3nkFXQMGHzdr+r25vNY+ZKHTML1bm97c7exsh6UGUjIr3ybXHG8KS9QsOL/MtO7VClFyvlIMrj0qH7U05/ZzOIeOoOeQJ9DweB9fuv9wSse+9xz8r0ya+fJ9ApxOsmCG1+rF/irct+VyG9J5jF6vAICenW1iLoU3CqjvjkiQZ2Bnl+t/dLQ0r1fGhEQiHb/y+bSNr5BGdEszZtSmppGd69VBTXuM6yQ4O9felIOYqxIpGL87f8afBZhSWBnmJrSo6SaRzbA2RQI+IX7sRwdcu4ajHWEQF+7UGDbKlEf+spi03xfaTBwIxyy/jBeNXppt3T2xw6T0A+eLkzLUu2AIegWRGgZMfoFo596kBmE3vvnheXZOrfCLaRPdL51spixKVCyuWbuv3EDHD1YjMGNuXx9wan9jC3OyWGuS+eODjv3cis2iEGGnSKlQ3HPa/Z2nkuALAAAAvJxMHuwKax2s17F13Rqb3l7qZG+O/jtsOFfcb2OuUHk3DRxYDNrBsdylfT6bMFFdYW1OP7fZ8dfZtjwTNVvJtYc17rAKJQkoTf05d3c7jq5dSCMlSzx4blbQ8JT954uLPhb+qp/4JHwC1MwPgh6iWDXrwJHUhq2i9x9OlR9sE2Hx+HrE0nk+ioGi1cff/ILKuHfoEEIAAINBGzfS+cnVFt8MJyVBNQmLSd+7osWyycEqLE84ZOSUR4y5deEO2i4VHmT+YFeYlzPCEK1vBLuzY1Y6BruhpcCZR+Wtl2VnYzj4VbOwF/vgmHpKOwKCbwcKnh50Hd1boKLs7MPXNS4PkUK1YksB47fZNvd/dwrxq7HwSaXgl+NFgcNSTlyF1ygSLmpwwJsQQf9BRvbl5onGTH4+aNTjnNwa8waTSZszxfNpdMuhAxzkV4HqDe5ZLNoX7uFqMuM797f3Wv26poGLEzrZJDev8vb9gmu38vPylRxSNIqKVUyeem7eOsDcjBX1e8dR/bzgCxR5+qYwdHT007dw0QIZA9vZXf+lmaUAvXnrIc5WzNtLHboFo7NwYz6IQhdlx1KpMokkshkzairH3ADUVxWY01nb0z63UHI1puz2M6GyiE4PR+aehbZvjrtOjTR3skUIgQ+plWXlVQpDPsiMy6F/O0AQd8Tl2/5m8h8iJUvcYVL6D+tyqi0Z8phQ7P1G+OQg5gRBz+ErT2r/50JmcJv8o7+HtAyrsZl7uZvs/63RL2sCTp/Lysyu2LQ9gfMxdPxpbK2NqlGg2YBedgN62gU14NEAfPJIy6i4eC3n1r2Cxy+K3sWXVWfMPr/RwtJC6xMJ02Gvy6y/OuDmyLu4u6OfO+yKpsqF25kDZ8eUCtEe6zkjPVd8602j0XBThPUDUw797Gy7CbtzdkbBp1gAQGKOOHxJzumpFh0C6hXa0tqHcW8Wp8uWisRcA/jjYN5AbU/7+FRRp4kpsq+tzBm+rqwQf067Jtwu4aZWgpqTj6cTc8M06w3TrB++qjhxpeTwpeJ3yVWrhFQqfRUvauLPAgDQaMDPjeXtwpo0WNAxlMtV0A3/3iwb/lMWUmTIEPAQxy2CPqP1HYKgcQRmqu5aVnZF78iH546GhofWKiEsMGN++YUjAGD6d+65eVXPf6A//9gfjc0FTL4pw8fT1FyA+JcrK6V/HErbezj1zgNElwoul+HriRUXRggNsjq/o4ONJRd3A1HCzpMJE1Y9ReYfMRi0PfOCRvVwquev+FTQ6bQdY639HZkz/ypQ/ATFQmmXNXl7xghGtUYbPzDxs6fHzOF031oek6jwOwgofFxrzGO5BeK7BeK7z4XbjxfQ6bR2Tblj+goiu/LlbRJNG7CbNmAvm2gJpKBCBN6niGLjK7gfg38f7Xc2M5V7de2bcP5O2YA5mciWkNXI6xuCQYDYWgh6jq21mlNdcUlljyExl06GNm2MblhgZVm1cHRoLdcYGvVoHzmVsWDFuw+JcJJLNY2D+HSdPPWG7kAZ2MXtz7WtuApxM5SQSKQzN8Vu+PMdfAEAAADflHF6TZMOTa3R99JwmNFL4O/IGrIpW6jQK0MsAaN3Fr5Kq1w+iFefW23Dp0VPZ4/4Q3TiMUqy6Q2Yn1Hb017Ao3s5s96nwPdDIpFeeVB25UHZyj/y1ky26RGBkIBsFmjgwWrgIVtzpACAWjqjNufvlPWbqUZnAADsLJVadgn6Sb0WPsInwdkJ8TxDFJdU9op8lJGFruaEQ1GxeNj45yMmPFehMwAAbVroKLvBoB0os8cFHdvUlsup1/ooLBf3m3FPmc5wtuXc3RXRIVSnHdS0R+8mJtE/2dmYoReolWdKB28trFC3IamGy6IdG8uc2bleN0XbYE5nHUz78Eaqlp0X7yt6TU2dsj6nAlYjFHibXDl4bpZi0CgEk0mzNkdPDILeQm6Y4WFhzuTx1JujcnIrIsc8VXs+QPLmfWmTDneP/ZMBX1Cgra6khoHCYND2rmq1akbTep47s/PKW4+NPnMDfUeCfcxi9rYM9DSqqiehnuyY/9n5OaCn+omY8rYr8/OUu/NxoNFoa/oz945kMMhCqI7WjdUH0245UtBqXEpWXl1uirBC2n9WRqlQ/c96ODDr9zARPgHkCTNIfPDCI27ezZu/7A08qo74JGGnATEJyaqMGTLodJrOrBqGCJ/HvLiny6j+3vAFisQlFId+eS3mZT58AQAAQLcWNrd3RdhboROFDBo3G+a9pbat5RIg5bn7rrLZkrz3mejYWHxGhTMuTmLwjfDvp0lah6iyalQT87K83YTUdLyGavJM/Tk39gOWFdbLGa0+CfoMkRoGSYA/ujaXIj//lnA3BhHOqYzU9PKug2LSM7Hq/jYLEfB5em1//oS4OfHuHunVoYUjfIEiV+5nhY26lpiOVn5Thnqc/bm5Kddo74K5KT1qrnVkC/SR+n2WpNnS/Oi4eljtAQAAdPCj353BdEa3ZCEAAEBDb7a1kjJrEK/iKzpMTMvIpaA2bj4t3/F3ITyqhAbuBpPCTaiGSA2DJNCfgql86rzXmJ5ckUg6YPST+CT0rqZI1/akHwqa0IbWMSf6BPrU1+Sz70xil+9uFhQjtlI6HeyY22jj9EDMgFnDhcWkHZxkuXQges7nlUg7ri08dBdLHKsg0JEWM5MRTIrVKaczXg1yAMDrhIoBMzPEeGJDIgGT1qLL0CEJ9kFbuQj6DJEaBknzJhTOXzGPC/4+mwmPoli48u2jp7hnCwDAgJ71bUZqlPTu4Bp9sKeNFZbBWRlSqXT+1hejF8XIV5GvxpTLOPtz2Lj+bvAF42Vhf7OD35kja32KxGDY9uIlp3ElsjLsBbTb0+ndGsDjBBn92+EaUwEAd54Ll+xS0/RAxp8Xip++xXKdyGjWgEgNw4NIDYOkRXMLSmGGS9ei0xbkefW2dOP2RHhUOQG+PNJNXpHp3zQ8ta0Tl1Mvd3KFSDJ45p0Vu1/DFwAAANhbc27vbtUtwg6+YOxEtjCJmmNlyUPP/MWnyoZtL1abv6AaUzbt7Lf0cRHwOAEA0LMVj6NQbksFq/blx6epKfAqlYLFu9BBSEgEPHpDL+JAMTyI1DBIeKaM5k0pGDZevCq+fV9NxMa8/73BTCiVQRqjKLJ2TvP1c8Pq6dHIL6poN+baicu1OtpU09Db7MHeNsG+6IopRk9rP/bthVZedijjBgCH7ok6rS8uLKMwjRWh02k7IukLusLjBL4pbWgXCqeLykrpwu1qDBvnbpd9SEX4B5XRMZSrm0I+BM1Cbpqh0r2TDTykkl0HkuEhOR49LTrzXxY8qhwWiz56aH0DHo2MqV8H/Ti2ETxKkbj4otBhl+88zYUvAAAA6NrC9s7vbVzs0TGSnwn+jsyYxZYtvNF2oxtvKsOWFyXlqs+ZVM3/etLHtoAHCd/0o6Zx/7pQHJeoSklsP0nBYwsA6NHys578hguRGoZKn+7U4iSO/J1eUKjUmLnhtwR4SCX9utvqoO+JAWFrxV0+vRk8SpHoR9ktRka9T0Z0AAEAjOrlenZTC54J+bMDCx792lzLgaFon/3rdEnT/xXffa90tmOyug8Q1CvexghpE8L1dqHgv5BKpVuOKBUTGbnif29SiLBhMGj92uCGphL0CiI1DJXGDc3cXSkI/PJyydFT6AJQmdkVx06jLylj1g/u8NDnzfejAk3rJwIOnUvsOPZqXiH6CLjqh8C9S5oyGPVyzRgTbCbt2PeC2T3Rj0B2sbTt2pITD9F/TEyseLSvw+BBwsyR1PKq9pwpKlHi0tp1upiS07ZzM66dJdmzDBJy2wyYL7+gFi1x+jw6D+XwyQxkmoMy+nazbdKwvr1JqYIZAEEpWlaD9OtcL+21fGfssNl3lIU0HlsTNvsrX3j0s4dGo60awt/5FTp6oKISDNpWtvZCvZJg+zaER3QM5nTW5bT/qo/AxZ6Cqi4TSk7fKIVHAQAAnLyKNuAp4+veul52CJqCSA0D5tuvXSkdc6Nu5JaUIlLdlVk7lLFghic8pH0wTz86aAaBxMu17ovgsFm3F2x5Do8CAACwFLDu7G03qBM1TflZMbYdN2qmgK/E0zHrePno38vEeJNHEX9qXkrNgzmddTntWUwwe5Rcm0YMjl8phocASM4UP3xFQQg62jAHtifeE0OFSA0DxsGOHTmIQmxmRYXkvys50GB2johSOdEvBzvq3qSh/9TtWFlQVNFm9KVD59A5xn7u/AcHOoQ3InXS1NAhgHV3gbmzJfoW7LtT2WWjsFhYl80YWcaDMH6gwN8dHSiD5MKdMsVyXievUTNpTIsUMMntMFiI1DBslszxwWm9Vo2i1LgSnYt/JLK2Yq1b8mks+XruQHmfVAQPqSMprSR8+MXoh+g6iW2a2tzd397LhULRpM+ZQCfmg4XmTdzQe9GV1+IWa8pS8ymnpbxB3xzdgTmddTztmQywc4Et/i8tKZPci4UNGGepBITaWDAmDSInHAOGSA3Dxs2F+/Myf3hUOdduwlmU0Xco1M9ZtcDX2pJC/LkG0XMHys2YdHhIJfef5TQZcv71B7RAGdHT9frudhZmFA6OBAdz+o05Zj0boZX3i1RJ0xXCR0nU1MZ19aXvtAvmdNb9tG/VmLt0AgV7282nQvlvRZXg2qNaI6rZONXKhIOrbAh6CJEaBs9Xw53797SHR5Xw9kNpVk6tsPxb93GlxuihTl9FUvDXaBY9t2ps++sVPKScExeTWo+8mJOPLsa86NuAAytI5kNd4HFo//zAH9cWLdEyCqUt1wrPPFMw5StBIpFuvwUP6hjM6fxJpv3crywiu+JaGu4+r2XVePCyXFiOK/u+6MQb3pWY9wwbIjWMgb2/NgoOwn3mb8tpC5FI+vwlImJLkYG97HasD4BHdYieWzWevspdt+sZPIpi9a4Xg6beqBAh1lkWk3ZwdfiSiUHwBQI2dDptxyjTjUO5yM1XKAJ9fyvfGIVVcmPROZCgptal1sGczp9k2tNoYN9iO8zGKI/f1JIakJFDBc0COHsXUStXSNBDiNQwBkxM6GcOhTrYceALKJ48rzHaxyeV4aS59upi8+e2hqQesGpmrrq3+0gcPFqbcYvuzNnwGB79yMHVLSK7u8KjBOpM6czZMRJdckMqBdOOiSYdQpuUqtl6Q7r8IjxIgGAwwMHlDt1aqE8MSUivrJQzJ8W8VPP3l+HmwDz3sz2lxisE/YTsHkaCgx377JFQc4H6QIpnsTVS40OC+sis4YMcTvzRmMn8xE87A+8NKAa665Kx86KnLruTnYs4sT2Ly2s+5NyuY0qd/6P7egzq7AKPEurK2Dbs7kHoKFEAwK/XxRHryl+mI2xLaQXSiUckPxxXL8F1gFhJqRUIFt7ToQ3YLPDPBschndDVTaqprJSmZtUYkx7FwVGiijhYMy5udrA2J5uUMYAOoSIYIg0D+DfOhvX8IiY5FbHVVfMstsZjkpKm6oGn0WjzpnosnuUFXwCgqFh85WbugaPpDXxNl85GvEDjcDlYKw6+A1hLbNobu2lvbL/Obm2a2TX0seByGDl5wku30347qMbgMbznZ9QRXjcMaso6/0Kp9rzzQRr4P9GU9oz2vjRLE2lJBXiZLr0cJzkXC7/yEyKswJIaOjj3z9qcY8qlNQ/itG9qwjOp9esYDHBohb3HVtba/aocTmk5YjcHBgBAWC59k6TGh+Xnxjq/0d7DkexQRgK5kUZFA1/eg6iICdNj/z6rtCrX+4QyoVDC5dIBAKnpSqVGeKj51lUNQhrWOqxcvZn397ms2/cLHj0vkrmH+1FsxVJnDEVqyDh1KfHUJXS1DGU426EN/oQ6422rfs5suiredBUe1B+EFVjzGfPpqA8PYoXXHpYBAOh0WlgQJyyIO7q3WYhvTQTuqu+tvujMm7AqK+YlelXJzKuSfU/fVagOLvmqF3/zdGu+qdb1E0FnEKlheHQf/MDZkRvezLxjWysfT9hLamXJOvJ74yvRudPmv4p9hQj5lEqlr9+WNG5oBgDIykZ4TP19eItnew/uXUtDPHlRPGn2K8ViX3yeUhu1ZsFcTJFSg2+qozdZHzBTbAj4sA1qebM0Q8xSYbmqLbkarvatGtWGE4lEeueZ8M4z4eZD+b1a8TbPtKm2PYQ2YN/73fnA+eLFO/IUW8PnFlQ9m8/ewpeq6dTcZO33liF+6ByiuMTKSw/K7r0oT88Vn//ZDr5M0GMM6lkkAAAAiH1VHHU9Z//hFACAoz2nZZhF7252kQMd5IuUd2ht9ehqxKlzmXsOpFyIyoHOEG8/lMmkBlSnvHULyzEjnCMH2DMYNACqfiQ3r3LByre7DqQiDyKWFuqjQzRCfaQG5s8SCJ8QLqpuBKYDBfmzmkXAQzxE/94suXiv9McvLeZ/bSl7DzQaGNmDH9mFv+tU4YFzxbef1Thzqz/L6wT4hMNm0Qa2543vb9a+KRzbXikG+84V/xtddudFeVp2ldvFy1lHyw5BUxCpYXi4uZqkZ1aZKNMyyo//k3H8n4wVG97Pm+41fLBjdY4fjQb697Tr39MuKUV48UpOzJPC6Dv5tjash0+KUtKqnn9RpdTWht0i1Lxze+u+3WydHeHn/O9zWeOmvcwvUHoKsbdFnz80DoeNWOkUKUcZnHWwEBMI9YSLmuFlQsR8VkQH5a2szBFGFwBAhUi64ve8/WeLjq5yCAusWg1YTDBxkGDiIEF8auXf10r+u1t253l59dL0IbUSAECn05oFsFs35oYHcbqGmZjzZR+/RlrJRMbS3fmJ6XBgh68L2bkMDHLDDB9m058AACAASURBVA8fL9N7MXDdrTfvS77+/tmm7Qk/L2/QKrxWl2dXZ+43I5y/GeEs+7a8XJKaUaVU/tgqV8JB4fi04bfE2UvfwKO1sbHW0fEC0zJRjrJqmAvIPCfoO0hBjGvVQMkUzWKtRGrISMqobDMu5dgq+z5tarl0PRyZUyPNp0aafxyQAgCWfmt5dKWc+wP1Ec/cLJu1NfdVPPqQE+Slo2WHoCm0PkEJGieogdK8ssfPCjv0vTd2youyMsSOK4PDoXu6qY9A3LwzSa3OAAB4uCppqalpOHhSQ4g6BWLKFALhE4KMt8CVGiiZolmcbVVJDQCAqFI6eE7GhTvq8+cDPFQJhbwiSZ8fM/v+mKFMZwAAgn10ZEwlaAqyBBseaguD7juU0qLrnZdx1BonyrP3UOqMRWqSM2X4esFxqVpCljKjFhKrQTBQLPQ7LNTbRf3uLqqUDpqdce8FOgMFhxuPy4OGpfx7sxS+UJum/urfDEGvIEuw4dG8SbU1Uikv44pbdr978SrcxxWHtIyKyfNew6MouFyGu4uOrBomeFKjBGXOsSAOFILeg6yNUYyaz4roIFbDz02VKaKaUqFk6PzM4lIshQSx50xxh0np6TlKS6HIEPDogSrtIgQ9BGv5JugVVpasoAA1hg0AQEmJuN+Ix6fPZ8EX1PHT6ndlZWqedhmBvjoyaQDshNVMVPoupvOFQPiEIJ0gmTlwRCQSM1R6iGbxcGJiWgcT0kTzfoU7SKtlz5nicSuycVodtWvCJU0SDA5yxwySthGW8BCKykrJF18/OXJSaTkvRZ6/LP7jYAo8qoSQhuoVj6awtcE6x2RkIfy7mEskgfAJQTpQ1B7xZdhZ6cJuhx8h8evxwtcJiCdRGfvOFY9dnoVMp1ekfVMdWVIJGoQswQZJp3bW8JASJBLpV98/j74DZ6woY/EapU06FIFSXbSKA15WbQbKqmFhrouFmECoD8h4i/SPlSRU42CtixkeEYy7x0sk0qW7VBUpl+faI+GY5dnwqHI6huK+DYL+QKSGQdKpnTWLhXvvKislX4x5kpWj/pAR9670nwsUnvm2EbqTGjZWLBqyL3htKiokeQXw6sw3xf1bEQifCgszeJZKpSA7H8uq4WiDsIhonFaN1WeuVXP4Uklypvo3n54jHjA7E6e/tAx7K0ZjXywDJ0GvgCc3wSDgmTK6tMc1bAAAsnMqps1/BY8qsGNfMqYNEwDg6szVWaYrAIBGA472eIYNBR8Kn8cgpTUI+gyTSXOxg3fQ9JxKnOeRyaTpIFYDANA+lILUkEiku/4uhEcVGLM8O79IvSKpZnAH3cWHETSILiYoQRv07UGtBcCRv9OjbqiK1RKLpQePp8OjyunbTUeN1qrB9KEgI0M9dJUpQyDUAWc7JlNBDKdnY+3B7o6wRtES1ub0sCAKz9GfFxA9mOQ5fqX03C01ea0QI3sorSpE0GeI1DBUBvW153KpWU0nzXxZobwi0N2YwqwcxCatjAE9dS01MIugI8M13F3gmusEgv7g4YiY2xm5sCsQiYM1tXWgPvRrx4OHlPMuWaSiDFepUDp5PbVsfD83VnXtc4JhQaSGoWIuYEYOdIBHVfIuvnTn/mR49COXrlF47J0duboM1JCBa9VQcKAAAHRW/4NAqAPuTgjLRIY+xYTKGNqVmlHh0n2lxUPXHiiobp+GyVe9qP12gv5ApIYB890YN3hIHcvWvy8uQVtlHz5V71itZsJoZ4wYTQ3jgBerkfKxw4s8xIFC0Gc8UFIjFW8ndrTVndTwdGJ2i6AQLfE4DmFiBABk5IpX7sVNi5PBZtHG9tFddj1BsxCpYcCENDILC6VmWsjJrfhldxI8CgAA4GmsGsdqNQIz5vdjXOFR7WOPV1oj7h3iIEUcKAR9Bik1Xn5A79MQ9jopqlHNwrFW8JBynr1Df4RVewsqREqduUhG9+TbWJANy1Ahd86wWTjTGx5Sx8ZtCaUK1Y7LyyXJqVWd5dXy5RBHPk937uFqXJ2xLBNx7xGBZsSBQtBn7FFOkLh49D4N4eaA+FntEdGI06s1bsTG6wTER8jIFW87ScGGCgAw4dAXj6F2rCLoFURqGDbdOlq3wascWk1ObsX+w6nQYNw7xPaMhMWiTx1P2XGjEfy9sSy3ce/LxAo+Ig9XYtUg6C8ONgi58PIDwhWoSANPLMeiBlkz2ZrFxHKgFpZICorhg80vRwvLlcenI5n1pUA3tUMIWoJIDYPnl7WB+OW8ZGzZmQiNpKZjLWoAgGVzvD3dPo2FwMfDhMFQv8CJxdIPSbCFxkLAJKU1CHqLogMlLbuyuBTepJEEeOpaRjfwYC0ah+tGSaudslteIf31RJH8iFpsLRkzR6jvMUnQZ6htUQQ9pIEvb9YPnvCoSuLeldy8WysmKzcPkbWhSLMQwbQJn8akAQBgMEADHyzDxmuUkYZEhhL0E2sLpmKp0Fd4gRpujiyeiXr9rXFmj7II8cOSOHlFtQTT0ajS3AIFq6NKtsywNuV+gs9I0CDw/CYYIvNneAX4UUsD2/ZHreDQomL1D7+DHefP3xoiE08uXc+9ea8AHtUCmFID6Q8ikaEE/aRZIEIEv8YL1AjUsvfkakxZ1ANEnDWDAQ6usLe1VO/UKBHWkhpbj1JbKEb24H/RCeupJ+gzRGoYA0wm7dSfTRzsKGylJ85kylsyhOVqpIaDHefKyVAv91qViROShd/PjXNverNH5OPTFyh3q68DuFLjPWJxbBxITY0RCLqhsT9KaqACKhVpoGXvyf6zRV2+S3HvEz95XXZqVq1Vws+NdXWbs5W5GrUhksvYfRxXce8Frq8WABDsw/51JoUODAS9hUgNI8HDzeTyqeaO9rjrjkgkOXKqprm8YhylPE4OnMsnmvp41uiMMqHkf+s/BLa+s31vsizOIxujnVv9CfDDCn1HSo3wJiQpn6CPhPgjHltcq4aXdq0asipbyRmVvxzJ9xuUsHZ/foXcg97AgxX1q5O1SrUhbwb94wxuRj0AwNmWeXqt/SdxDxE0DpEaxoOvl+mVf8KcHREnJCQn/sms/pqpPJ68SSOzuxfC/D5mf4jF0l1/pvqE3Vy6/kNFRY1pFKdzbP3BtGrcf1wkUYioa9KQT6cr/ZgEwqeisR/imb31BCGXFdF2TGh6Ts0ppEwombMlx3dgwoGzxdVt4Br5sB/sc2ngoVTxsD5GY0ul4MjlklrXlOPuyIze4eDmoErEEAwIIjWMCi93k8unmoc0EsAXUNy4k5eXX2Xc5HLQM2HEYMerp5o52FWtIwWFld0jH0+c+VKxpVluvk6kBl6+a5lQHPsGDtews2H5yhlmCAR9wM6K6ecO79Nvk0RFSqr6QjTGi82sMxlyUkNGckbl6MUZA2emC8ur5IabA/PWbufeSoptVHedvfWsPD0Hq/5peBDnxjZHd93WCyFoFXIvjQ0vd5O7F1ts+z1p8eq3eSq3f7FYev5y9rBBDgAAgRk8E+xs2Dt/DuzZucZRmpAs7D388au36HNJWRm8JGkDDofm42HyNl79ge/eo8KG/rAuaRzIQyanfObsOZeRlCkEAABp1X8AAFDTvlxaPSb3tfTj/1S8XgoA8LZnfdmOZCoqpUkDLl1B5999pn6GAwCcbJna9i8UKUm4PX29pN23qWc2OMgiQ8359FPrHf46XzRlQw6UYGLBr/p4f19FLx3y2FgwVn5n+U1vPjL8nGC4wBsMwQig0cDEb1yH9LOft+zNH3+lwJfliLqRK5MatnI1v22s2T9Ocp8w2plnWmO9zMiqaNcvJiUNrldRjYhimeE6E9rYDEdq3H1Y+E0k3I4uvIngyD+6CF81LPacy7j5nFr1Rny6hfCI1FABMib09lP1MxwoSV3RLELltbYexAo7TEy9tdtZ8NFuMaI7v2dL042HCjYdKigsqdIoLnZVu8x/91SpfBqN9m1/sxUTLRTzfglGALmpRouNNWvHz4FvHrSZP90r0B+dfHHuUrbsCxcnLgAgwJe3fX3gh5jW0ye6y+uMklJxnxGPVegMIH+m1TItmmK5h+4+RJQJIpGhBH0DGRN6B09qRARr3SEoFqt6sF9+qPhiboZ8ULmlgL5kvGXyGfdNM2zcHVkO1kxZSYyEtMpnb2Gvq4zGvpxlE6ySTrv+Osua6AxjhVg1jBx3V+5Ps71/muWdmV1xNTrv4tUcNxfurXv5MU8K7W3Z9nbshCShuyvX080k+t+wMCW7+Nc/xD56hti55cGp46kRIpqh3yTEi7iSwiKx4KPxVkZwIM+EyygT6sLXQyDgoBgTKiyXPonDygiNaKx1qaGWi3dLZ2zK2Ti9Vkoq35T2wxeCSYMFT99UyYvXiaJ2TU1SsyqzCyQNvVh0Oq2BO6tLuEn7plwrIi8+A4jUMGA2bUuYueg1AIDLZQQ14Hu4cr09TcObWbQOt7S0gO+snQ37i/72X/S3lxurOa+wWDRlOuP67fyTZ2tyVZShLLBU4wQH8DHlwv0nRZ1a1TLdm3DpjQJ49x5py1lAIFDCUsBQ7GBy93mZRKLKliCDyaQ1174DhcWkiSrVvJmtRwrGDxAEesK11el0EOJX9em6hpt0DTeRX3NqUBjLKZBceyS8H1v+NrkyPq3y+fsKWc+UX2ZaTxyANtAS9Bx4QyIYEC3DqlodCoXimMcFMY9ryvBFNLcY2Md+dKSThXl9b/G0BXHwEAozMx2lpbFYtOYhZtfv1CqsjuTeo0JIagAAGgcSqUHQF7pEILI27j1X5amsJjSAy+Vo3ZTIN6XnFaqR9VKpdMLKrOs7nOALFMnMk+w9W3T0csmDl2ijTsdQrUsrgpbQ0UmUoA2aNTE3F8AnCRm37+fPXPTar3n0uq3xFcoDu9Ty1/H0p7FqXCcy7G3hw5n2CFdigIG4dAMhR7q1o9YIl0DQHt1bIs7oF2+rz9QAALRopAvvia0F1hHi5pOyE1ew3jaSolLpoh15XgOTZm/NVaYzPJ1Y/m7o5Y6g/xCpYcDQaKBLB1VVe/MLRPP+9yagRfT+w2mKJa1wWL05Hh5SAqWy6PUkIhRLatx6UFCikKrXPsKCoytfD4GgAhqNpmjVKBVKr8aoytSopmVjXRzx7aywpAYAYO1+hLJXS4UIbD1W6D0oadnv+aW1u6VA9GujC2lF0BJkzTVsvhgA53MqkpQiHDPlefPOd+IVWqur5uHTotg43JOKh6suFj4ZmJGhlZXSSzfyoEFzAaNdC9irQiDonmA/jpMt7N+Mul+iOumjmpY6iQl1sYffoTLuvRC+ildVyEeRx3EVfkOSJq/Pyc5X46MBAIzqibAAEQwFIjUMm15dbC3MsYyKz2KLwrvcuX2fQlvF42fUR4NW4+sF18vSHjZWLB8PrHX2v+uw1AAAdGtnBQ8RCDqnG8p7cuEWlrh3dWApyhRt4OOCtbzIOBqF9eZlXLhT1np8WmI6Vv3QRt7sEF/duWgJGodIDcOGxaING+QIjyohL1/Usf/9k//iCoiLV3PgIeU0CkCsm9qjQyuskIvzVxBSoysJ1yDoAd1awt4TAMDfUVgNyTo215Gyb+hNYYO/fA+rHAgA4Mjlkp7TMlR7TOQZ149UxDFsiNQweEYNpRD4LRZLh49/ev6yeg0hEkmfvMBa9QAATg4cJwcKS1L96d4RyzKRmCJ8/Q5e/hr4mPjj9VIhELSEuRlD0QPyJlGUmoXlg+ippOGIxgkNoOAYVRbRCfH3tdLhC7Ok2FX/2Czal9109HkJWoJIDYMnNEQQHERB8ovF0qFjn9x7qMaT8uJ1CU5yv4x2Ebq2E3RqbYlZNOy/a8SwQdA7urXksVnwBL5wC0vcMxi0nq11ZET0cmY62uB6akqFkoQ0NQ6Raw+FwxZm4q8tAIChnXmkiqihQ+6fMTDlW3d4SCVlZeK+Ix69U9lJ5O0HrDB4GV07YNkYNAjPlN6hZVVZEdWcv5oLD5GUV8KnBpnmev4mVqxDmyYmsmrfuqFLOAUT4LsUVVLjxXtRv5kZsnpc+EyLxAoDJ+gzRGoYA0MHODo5ULBzAgBy80R9hz8qKFS6LqSlY9lCZXRTmXOrJbrj6ZvL0fm5+fDHbB9hYS7APasRCJqFxaL1bANLjbxCyX93sKRGj1bwz2qVoV0p/DoVbeKz8iQ9p6VXt2HDpEeEaXXJUYLhQqSGMcBm0+bP8IJH1fHmfemo754rc5gWFCldMiBCgwW21hTC1DVFj45Y+kYslv59AY5N4XBoJOWV8Kno2Yov670uz8moIsw0V50Fasjo1sLUxxV3sy8qRX8EsRgMmpOelIG7qlSzdDyW8ZKg5xCpYSR8PdzZz5vyAnTuUvbPvyXAowAAAEpK1We6y5j4tTM8pBP8vEy83eHAOiRHUY3jRw2WbwdDIOiOUX0R2+eR/7Dq5TvZMgO9cDd+jUCjgZkjEW8YibKm8/O35UY/oVbXBwAwrCs/tIFOPyxBSxCpYSQwmbTVi/3gUQwWr3mfQLG0lzxuztwRg9SXEdMSmHkoV24hfCg9O1q5u1DzOhEI9cfWktkL5T2Juo8VHdWvPYUYcE0xqpcAMziUjoohefKmYt2fauLQFWGzaKsnkZgqI4FIDeOhV1fbiOa4h49qhELx+Gmx8CgATCZqzVBg9g/uiq9MSBZOnh+372g6NK5xeuCFa4jF0hNns6FBFotGDBsE3TOsh4ClsGsf+a9QH7wnO08WTl2fnZwJ63I2C8wahbXrK6bVVIrB6CVZlFJOZMwYbu5iB7uZCAYKkRpGxaaVATQa/Kir5Up07o69KdAgz1T9Q96imfk3w2tV9UhOK/9qcqxfxO3f/ki+fqsuPREo0bGVhRlfYdlGceQMwocyeoh9Hf5cBEJ9GI30nlzA8p7wTeldWmhRaly+X7blUL5X34QxSzOz82vFb04cbI5TY8PMFH6gluzKe/qWQoy5DEcb5vyvSDSV8UCkhlER0shszhRPeBSDuf97k51bq3aQtaWaSE9rK9ax3Y3kTRrb96YEt7/75/F02QnmTgxlkylVWCzaF31s4VEUV28VKPpQ3F04bcJJHh1BdzT254b4w40JM3LE1/BarH3RFWER0SA3HpUBAMRi6R//FDYYnHDkYk2dDxYTHFnpYGGm5gQChbu+ThCtrlMbtr+W2ugyoZegbYjUMDYW/OjdhnpBraLiyuUb3suP2NvCC6I8DAbt8I5G1Y3jKyulo7+P/X7u66Limu389bvSwiLc2NI6M6y/HTyEQiqV7j2aAY8CMH4Ebll3AqH+jO6DOKnv+ycfs3Tm8B5aDNSIT61Mz655fvMKxcPmp8/YmF3dFNrDiXngf3aqDYEudrWk0MwtuZWVWB9NnnmjLdo1UW9BIRgQRGoYGywW7cS+JoH+cNyZWvb8lZqVU2PYcFfZqXXf1qB2HytolZSKuwx59NcJRGRGzFMss3B9aNvCvFrxqGbHgTTF9XxgD2sbKzX2GwJBI9BotOE9YakhlYJfDiMK2ipiZ8VsH0qhmhZVHr1GuDk2/pU/aFZa5ccjQ4+WptvnKbUj0mg0T8caqfHodcWZaKxKIfKM6slfNgHhYyIYNERqGCHmAubFE82otlotKxMvXPm2+ltv5a1Tt6zw/6JfVUBlZaV0wFfPou+ibaSv3mCZhesDjQZGDMSK7nwbXxZ1E36fLBYN0y5CINSTvu0Q5TQu3CpJSsfqezKyt0ClQaG+xL5HSA0AwOnrJV8urDlIjOlntmISuqSNmwOTy6l5iz+sg2Ox1TK4I2/3PBt4lGD4EKlhnNjasC+ebBZEsdvq73+lJiRXJb7yeQwXJ9iwwWLRD25vNOErl+qRsdNeXolGVP6W8fqd1qUGACCyn9JjFsSOA2nwEACjBhOpQdAFs75G7NDbj2GZNAAAw3toN67oZbxSxXP0UvGC32oe89mjLXbMt6MrJLYGetYYCP+7W3brKbUs+gHteAeX2jJgMUYwBojUMFqcHDjXz4R1bINY3ZQhlUp/2ZVU/W1wYC2lYmPFvnoydHCfmo35z+MZfx5H+E2qiU+kttbUjSYN+T7KbTDy/H0hJ12hc2ZIII90XyNom/BGJi2C4VmakSM+cx2rxZqXC1sxnlSzvE+ugIfkWPl77vVHNY/zmH5m57c4mvNr6YLQBjXvcD3FQhp9WpseXm5HdIaxQqSGMWPGZ5w90vSn2T6K5w9lbN2dlJFVteI0aVQTg9aimfnDy+FhTWvOVZnZosnzXld/iyQpVRdSAwAwEq9ChkQi3fUXwrAxa2KNnYZA0AZTRiBqwGw9lItZcOKb/nCQh8ZJTIdTtCC+XpJRVl7zbjs1N4nZ7xIkV7q0WUCV1LjxWHjxLq5Fk8GgrZho9fcaeybRGcYLkRpGDp0O5k/3vPtfeHgoVqRVZaXkr4+GivatLAEAbDZ92Vyfq3+HOtrXir6cteRNobo+KSlpaO+vxhk+AEtqAAB2/okww7RrYR7WRIux/YTPHGc71qBOCPfHzuNw8JAytO09EVWCNLn0EyTxqaJlu2u5ezydmPf3uswebUmn0xgMWodmVWabbcdx48HbNzV5tM95zihzrYahED45RGp8FjRuaHbj3+ZnD4f26WbHZKq56b/uTpJlaoQ3Nf9hnNvbe61mT3ZnMGqtBNm5oiOnM+VHkOTkwd4KLeHhyunaDnFqVCQ1o/zoGUS02qyJrvAQgaAhZoyyZirUwzhwpiArT83uLqNHK767o3bzpAqKsfLSfz1WALWA57BpK76zen3MbflEK1n9ruRM8ZHLahJP2CzaoA68qF8do351aOil3Y9G0AfU7DoEY6JzO6vjextnxbU/tKvx8MGOPp6mSMdKhUjy9EURAMDEhL5hqS9kzJCx73CaSITVDFokwrIP15/vv65Vt1QFq7YmwkMA9O1i5ecFu9IJhPpjKWCMHwQHA0mlYPkuuOGwMn4YDv+4xikpw3pOC4slf55HBJd4OTOrW7KlZlUO7sgL8GRDRcqZTFoDD/Y3fcxOr3PIu+R+dKVd+6Zw4DnBWFFQ2gRjh2fKGNjbbmBvOwCk5eWS2NclhbK6W1LAYdN9vEw/1plQtfTs/gsuZK6M0jKxuVYLHH6kewcrb3eTdwll8AUFnr4suRyd36l1LY8SjQZmfec69sc4+UECof6MG2RpwqVBD9SZ68VxCVjuRS8XdldtFiOXUSrEOjkAADb+lf9NX1XexrAgzsFldgAAqRSkZIqTMirLRVIrAT3Qk81kqFpVCEaMLvYAgt7C4dCbBH9cNbAXgRevS+Kws1irSw1qGxoNfP+N87SfakqDqGDtb8mQ1AAAjOhvu2htQmoG1gZAIGDy3VCEa2/ZToQXD8n0L610EMeAF5wKAAAv3lfEJYr83NR7PWg04GLHIC3TCIBIDaMkv6Dy1r38Z7FFFRVV+7ydDTvQn+/nY4pZWFM1l64pLaShiLlAd3Psm0iH+as+lJap9zpfjs57+rIkOKDWYZHJpM341nnG0loF2gmE+jB+sKWrAxPS8dGPyh68UG9+AwCY8Rij+2o99wQAYGZKwZkedb8MR2qoJS1bHJcoiv0gysytemY5bBDsw24VzDHnU3g/BP1Hd9sAQWeEdb4dn4heyPg8ZqA/r02EZdcO1h1a19EB/ORFETykBJ4pg67DFcPUhP51pMMvv2M5d1ZtTfrrlwbQ4LjhDss2JeYVYAXrEQiqEfAZS75DFIhb8ztulMbYAea66TrGN6HwoD59q6oCh2ou3Ck7d6vs1jPhy3hRSRna5tnQm/30AG7oFcEgoDC9CIbCN18qrRJRXFJ572HB+l/iuw2O8Q+7uXkHIkBSLW/j0TpGEUsLDRx9KDHpK9wV6uiZrLfxcNkPEy592SwPaJBAqBtTv7Sys4LdB8/flv97A1esTxpax/MAVQRUrAgfUihnlpWUSVfuzXftm9RjavrmIwUPXpYr0xkAgO8Hazezl6B7KEwvgqHwzQhneAjFh8SyHxfFeYdG//5XKnxNJenY0QweKnu2aQNfT5PuHRCucSSL18fDQwCMiXQI9KXWPoZAUMTOijntS0St3gVbs+AhJfRrb+bprCOxzmQAH1dc72rGR38HJpuPFHoNTJz/W25Kpnp7oYUZ/cvuWg+DJegYIjWMEDsb9oghuIf7pBTht9NjG7a6fe0Wbi8GfP9CkP8nWDJmYlfIOHw669krOL6VwQBrFnhCgwQCVeaMsVE0Fdx6UvbPNVyTBrJnivYI/VjrUy0FxUoNEhCX7pd5DkiauiE7Kw9XnUwYYKYbnxFBl8BPAsE4mD/DCx5SSdy7ki6DYlZvjocvoKiONlVLgO8nkBptW5hHNMONpPsRFQTarZ2l7ruiCMtx12KNU6rNXy3UVWEVRYSUzfwaw8OJ/e1gxBSasjoDHlJC1whei0Y6NQo2we6xUinGuqdLduV1/SEtIY3CbTDj0Wd9ifvwEgwIIjWMEx9P01GRuIaNahaufDt8/LNS5T5UGVDlUBW0CP00PtelP3rAQ0qIupn/3zVEcei1CzzxP6ZGiH2PW8tZ47z52M5XG7xKwXW3aZwnyVqUUKpZMdlOvp26jGMXix6+xI1z+mkCbr9iTdGmCW4JOxYT/mgQJWXSHlPSl+zENZRWM2O4uYUZ2ZWMEHJTjZafZnnDQxgc+yejQ/8H1R3XkJjVbueoDBcnbmhjRKmf569KtF2wvH1LCoaNOSs/wEMABPqafhPpAI9qk5/3f5rqYWsPJxdjpAfXmYx88d4r1Jp8aoTScunGy6qmsfZo6MMd2h0W2WIxmL1RfS1/GV1aaNGkkZEjfoXqF9+iEdfVHis0xELBMSRPUoY4YkzKhTuwa1ItDtbMGcPgvxvBOFA1YwgGjaszdwFFN4qMR08LW3S7l6T8MGptibUejRoCb9VisXTS3Lgmne/tO4LoeaZZFk93h4eU8OxVyYETiD1gyXQ3gZnussFjYvO+X/kQHtUy/93Pm7U9Hh7VND/s9IfRaQAAIABJREFUyoh5p0XDCZIRu0uTcrHs/JqFwaBtmQvPfADAtqN58am40mfxRC2aNHaeLGg0NGH6hmxZqyN5hnXnw0MobCyUHjZexYuajU5+/g73k8qz5nsrnokaewnBQKnLfY1/19PRXoXi/jh/FebxR+QuoF9Te1ThNTTFIXgA/h4AaAz1AlA9rOSqDGnVf6pQfIhhpOr+DWn1/5Tw8ZrS10jLyiT+YdHpmUpFgwq8PUxvnGlmay2nKj7+on6jnpy9pL7W4YsbLeS7ihQUVg4Z9/xKdB4AwMfT9OWNcBVvXSM3ou3AJ7cfYJ2nHe3Yr641M1UoLbDmt+T5q+OhQa0S3shq+khfeyuZ1/zjJJFKP35dfdNl00NaNVJz6ePL5H+wZrzmB0vLxUevZv1+Djd0oP7M6GvZPcSUxaj+EHIfSv691Yx//Fw14x9HoB+sulQ1/ipdvOZ8+fssNX5ALTF5hPXPM+E+w/mFEu9eb/KLsKxHncN5F35DhjZrYNGQSoF7rw+yTJA+bfmHVjjIO3qevytvHKk+AX5sf8H2ebYAwL8rMU3Ucmyq2g6xSMKDuLd3OcL/YjU1w0peAKqvKH8BkF1U+QIgm0iqqeeNkLuAfk3tUYXXaH8HrPUVjBQAABIzxe4jKDjIiNSoTdWwkqsypFX/qULrkxXUXFP6GikA4NCJ9FETn8FX8GgWIog6EWpSvQF//EXTF73ZskvNevRFX/s/fwus/jYxpbxH5OO49zU21dtnmjULUX6E0sSNuHQjv8eIp/CoEmZOdFkx2wMaLC+XBnWKSdBmKAPBmHC2Y8X+7c1XqLw5cVnajmO46/LNvR5KvCcaWDQu3i3tPqmmxl1oAPfsZic5K4V04I/pp64hGqrJs2ayzQxZ8Kbc78orlLQam/I6oS72DADAgz+cm/qzlb77mmElLwCaWTQAANpfveUuoF9Te1ThNdrfAWt9BSMFgLrUgB8JgpEROdBh2CBHeBSPB48Lv/rhBTwKQKCfmrwSOp22cEZNvmhiSnnbfjHyOgMAcOQfhM9Cs3RuYxGBHZe6cVfq+0RYUnA4tL0/++o4PpRguGye66CoM569Kd95HBF6jKRTmBajNAAAh/+rJSNiXgrbjk3OL6qxAC0ch0icgWjog6jAMXBWep11xurvrZr6I/5NgtEAPxUE4+OXtQEerrix5RAn/s1cuSkeGgxpqNwaAQAAYORghwY+VVWwcvJEPSIfp6TBTpxzl3FrM9eHdQtxo1VEIsnEuYhWba2aC74bXUetRvis6NfBrH8HOA5aKgVjF6dK1R+Uq1g3A1HIXFNIpeAfBYvF64SKHj+kCMur3mETf86Qzmoe8GYKFTi+W519/RFucg1Ep+YmM0fgBnETDBQiNYwfPo/xxy8N4VFsFq16JwuwqKZxkBmTqXTmuDhxNyz1q/526PgXkD1Dxqu3JckK+kPjhDUx+6IPboRd1M3842cRAmjpDHcfjzpqNcJngrUFc8tchCTddSIfs7MaAODrfhbBvvAurkHux5Zn5yPiRe69EH63usbKuHW2nYrATy9nlrV5rcf/wLni7SewgqIUsTJn7P8J9wklGC5KNwyCMdEyzGLnxiB4FJvhE57LJ6SwWLTwpmjHBI1G27s5UGBWtU7t2J+qogjp+SgKHWLrzLpFXhwO7jyftvidYlkRPo++a40PNEggyLN2ur2zHZyvlF8kmbMRN/DWjMdYNUW7m+7FOyXw0Ef2/lN47lbVkcDGgr5vKRzZWk37ZrVk9+O4igmrcEutK3L2Z3sHa6WyhmA04C7BBENndKTTvGm43gSI7JyKgV89kR/p3hFdMnn9Yt+2ERayr5PTyqf/9Kb29Vpcu43rwK4PjnbsWdilytMyKxatS4BHAWjVXDBuOCKDkUAAAEQ0NkW2ep+6Jh0z6wQAsHCctQpbgka4+kCVfWXM0oyyj26UbhGmC8agewn1bFXTISinQNJvRlqZEFbnmJxe5xAWqEUrDkF/IFLjM2LxbO++3evoCX78vGjKgpoaUwN6If6daRPcfhhb01R23a+J5eWq1qCryg0emmX2d66OdrhBZ5v3pN57hOhSsWaeJ3GjEBSxMGMcWInopXz5bsn+f3DFtJcLe/Jw9NauKSrF4OYTOPBZnoycyt+O1fhBlnxrNaoXbLzkm9K7R9RIjWHzM5IxOqghWfGdVe/W5IH6XCBS4/Ni/2+N2rWs44r2656kG3eqlk5/b9Mg/1qxY2OGO61eWONlyM4V7TmYJncdQXpmRVKq1sM1AAAcDm3dItzaqVKp9KvpcZWVcBwfcaMQkOxZ6uzhBBe1Ky6VfL2QQsPkTbPtWbD7RcPEvBSWq+te9POf+ZVyVphdC+wGtK/1mPdpyzP5WIdj65GCy/cRYVg4/DjCfM4ohB2IYKwQqfF5YWJCv3gitE83hE0ChwkzX1Z/PXxQjTd39FDHX9c0oMnlhG7fl1KGUe76+SulzmPN8kUfm7Am8BFNGW8+lP1vUxI8StwoBAXGD7Hqp5B1AgCYuSEjJRNR/BtJp3Bez9Zqkj7qz7M36mV9albl4f9qTHoMBvhruUOv1jXJ7V/1rvqw6TniOVvrGGu15P/snXd809YTwM92nL33TsjeA0jYG8reG8osm1JaRhktG34tBcosu+y9w96rbAIhJISEkD3IjrN3/PvDji3JT7Lk2CGAvp86te6OWDk9P53eu3dvitFfsxR84GH5QmFDjW+Rswf9/1wqXSRCnw9xpf/sSxW9H9rPAgB0ddT2/O25d6MnF9+Ubj2g1Q1FvCcuvVMdO/5gMCbxv63JsvvLA8Dm5U7NURu7sHyDeDlrbpiHCD3vvSylX7ALALahCpkrnXAaoQYAXHqIi/7V+RCywerPWaY8HsfSRK1zXU7o4n/yFEjRsDDm3dpqtWSiOJ2L5duBDTW+UebMcEgIa/f9MMTyPGqW/BmXkVUJAE3sNadPsH1xI2j8COIvKSuvfRFGa5/S2HiqPDXl4uep8+sMuvmhADB5PmL/Mz6fc3ybu6G+ige7WRo92lrck+tstTWJ5d1Ky4WTlzOYOln9o7mbA91EovrwIYnWKMut52WEIiAcDswfY/hwj83yKcaiJ4qHYeUHL9P6gmOZMkA/+pRtlyAVFihjabSwoca3i42Vxr4t3uEPW/XvyWA+pai4eu4y8T14yxo3V8wuJxKevyqoqqL1xJOTR6v7UxbLfnFwtKPb072KKP5tLWI1iqOtxr/rXYlSlm+MbYusvJwRqyd+/N+nhDS6RTO9nDTmj0Mv5lI6WXm08jcFRTXPIxHZoy19NCcPFE9BTljBrNTvgA460afsdi40NaDcEpblK4a98N86nm46p/f7Pbke/Ossx0A/+dkM/t56gb5yZhDoZ2A0cKihrs7Zt4HBzNG6nal3HyNqE/XrZjx/GmLRAcs3wth+huP6I2YBTt8sPHiR7qoTHo9z+H82ag01QIYs3oXkTQxVqFRWIZzUX9/bSf5ITJCX5u8TjF4dtD231sLNnpg5y/JN0VDNnKVx0zxAv7m//urFUFBY/fptUVhEYWJyWXpGhaCgmsMBextNTzedQF+94EADSXkuCuiXAc3Lb9BQAwDatTCYPMpqzzE5q2NECIXC0bNiIm43NTUiflNWz3d4GV50/ykiEGH5uvFz09z+mzVRCvAxuXLiMgZTJ3PHmgS4I8ZFVER2Pt1QI51ya1YtDc6iCYaLJhjmFdY+jygPi6l8F18p2s3VSI9rY67WxFqtmYdGUw8NPW3EvmAs3ybEDpTlG8dAX61TW6NObY0QnYSMgIyCQqquCovc1Xeq4K/fm1y8lZuZTfXoJiEnr2r0rJjrh72x62sAgMuFI1vcm/V6Q/P3sHwd2FrwL21z0JJJ0aiqhmHzU2VLzZLhYq++YropUapKqmTWb5NRWELrrzDW5/Zsrd2ztbTMBqLTYGEBAHYChUUV1NTQ7XH4fGKX3QDo6vB2rWWQbHH3sWDdTum+2xIsTPlHNrtxuZ/hT2D5LGhpci9tc7C1QDyhzV2fER6DSHEg4/AaG/WGbfz6uvLHI1lYVAQbarAoH01Nuu1K7TPtz967i/Hwfgz2m/jtr8T/XiBS7ju20t+3nsEaWpYvFy6Xc3CNjZ8bYsrjzK3Cf07QWt0tYvowo2AfuunJykJ2sQwZOrS/vywsNEGE5yzfDo+fC16FF8Z8LI1LKJXUx+TxON4euv7eukGB+t7u0uo99DE2pJsCpq2FftIqKKw2UPGC0q2rXR4+K/iURXf6Y8jU6LDrAdYWxGy40QPN4pLKkSW/WL4mVs8yH9wVkTcdnVA5YSli0IsMNweN9XNINzOrPwXFtciFHiYGvAzKJAwJpoaIf06HiI+VL6Iq3sZWvouvrKmbhFHjgasd391BPdhLo5Uv8evD8o2g2t6cpXFyOiRz98HUB09In8PuPRKr7G01u3cy+X6IVetgBlWEHWgvKPV0lU70SrhwLWfarzFht4KsLOiGLApgZKB2ZKtH1xERQkIZARLyBFUDJ71/dM5PdtJn6c92OfnVOw7RSjVl+RIZP8BowUREakVBUW2/n5Lop2io8zmn19to1tX2VjrJGdXNRycdWmnVA5NCIcLLSf1dHK18bdk669TcDS07cq34+tPSzFx0KHPnpbR8TrdgramD9Ad1JJ4ey9eNgtEryxeNtaUGRZyBJTm1fM/htA79Q1t0f3kyhO522B4udPuRAB/iutl9xz8NnRyZm1+1bF0CQaV02rc0+HUGgzWrryOLZy+PJ0oBAGDTsiZ9u7K1lr9O2jfT+XeFDVEKIBTCsHkpcSl0B8YAYM0scx8XxBSMsvh1U3auoKbvz2mnMPXFRQS6030A8HamO/Zw6EpR4Pep3WamH7xcSBZnELj1oszZhn3E/eZgQ41vkTYtDLt3RjyiUfD6beH30yObd3vxkMbO7/7exACCjAAf3NYPtx7kT50fI3p/4FRG1AdEaXDlsnyOfVP8OVCz51jG8ZAcohSAy4VjW906tWYw9sPyReDtonnmb3uiFAAAVu7Mvv2MQWX9ri105oxRYTz6PLL89K0iAKitFY7+PYOwjysyy0QWLU0unRoYd16W+Y9MnbAy6y29eucSxvTU9XelG8qwfDWwocY3yta1ntra6DwJCsLfFXUZ/GrUtEhRbXIytLW4bk7yBzb09dRaNpVOfienVYya8U5yKBQKF65BDyEoETU1zvHtHjpMXDHp11hkiqimBvfsTg8fd/l/OMuXgpOt+vUdjiaGiOZx5mbhql3ZRCk5pkZqR/9EDI0okbkbpOdTWyscuehTboF0ZqddgJaGuvwOP8hLTkSSmlUzcF7GdzPTI+lNx2AxNeT9/XMDVUdlaVTIb3ksXyWOdpqrFyu4dOL0xcymXZ5TD290bGtEFMkwtK+ZZK2KUAjfz4wSFODGYK/dzY2JU/kmKU72mptX0t1iHgAqK2sHTHofjToxPV3elQNezg50R6pZGjPW5vwbuxytzRGj/Y/CSkcvSqWZ5SPi6B/WpqiQRVk8fF329C2uTaZlVY1bKs0f0tXmDOosfwCvSzBVrHztSanfiJSL+C3Z6HNwmZmJAXvT+RZhr/q3y8wf7JhOo0jIzq38bljY+u3JREUd3TvKf3YZO1S6oeXmPalPQxGVN9eRf4QSGTfEfFhfBmtfC4uqe455l5GNKHVqbaF+/bC3oy0bbXzZmBiqXd/p6GSLGOp/H1/Rb1ayZMUWHX4cady1hSKLueiz4RAi++ra45Jj16RJG2PrtoCnAFuSC0ttLfy+I6/vLxkFxXSrjhKY3F+/ZyvElkks3wKKJEInxvWysqDoSeu+gaTfRIwCbYOXytggatIRBcRjAIIMZQASMYlWhFD8okL+445Q3u8QSn6QUKcjtcEo0DbCfEF1YMen6RmMB0IlDB9gsfdvT2khjboPKi2rNfN6WEleDNTfSzf0ZnPR+6TUcu8OLyoqEMaamtyU0FaGBognS+VeiOKSmua93sQlIcYqyPD10PnvrK+ONvFvB4DE1Ipuo94lpjKo6cTSeNDT4d3a4xjko4VvX0IASM+qbjE6Pj0LEWWS0dRT68mhJnw1eU2RdluVJelTtVOfOKIUAACMDXgfQ5qIlr/W1go9Byd9JM9jtTJVS73mKD7AfFZxqXD4oozrTxUczAAAf1eNsMM26C+sjJMRSMUkBiDRkBuAkjsNcoSSHygwCrQNXipjo/o7IO4dESEAQHJWjcPofKKKHHZU45vGyFDtwD8+RCkTTl7I7Dz4dXYusefV1uL26041ZLJqoZPk/Yr1icg4AwDKy2tPhDDbRlIxdHV4F/Z5aWkyGOKOiC4ZPDWaKAUAAEdbjVvH2LGNLxI1Nc6FLfZBPojnb0FRbc/pSYziDCN93oXNdnxUqKxE9ocgRgRF5BXUrD0gHvDgcmHFNKq81O97IYY9EtOrW05IqU+coaPFPbmGwfbRLF8fbKjxrdOxjdHq3xRM2hDxMqywbZ/QeJnxgIkjrQgSCc0D9Ht2Fs+wRH0oPXKWahntgZMZRJFq8HDWOriJwb6vAHDnkWD4jJhaVJgkijYszRAj8CyNmZPr7TsGISY7SsuFPaYlRn5kMFLF5XLObbSzQWV7KBGhEA5eJg01AGDzcUFWnnjWY1g3Pc8mpG1Ssk28hDcfKltNTH2fQDoQQofDy83prGph+YphQw0W+HWW44hB0rQJBYhPKuvQ/3XUB9xzT9f2xlYWiGx2NTXuvo2eksMjZzKo0+tevS1KTGHQv9eHgT1MfpnMbJnAuWu5UxZ8JEoBQBxteLHRxpeCjjb39t4mAzojnuwrq4R9f0x6GUmMp6lZ+7N5+2bo1Acl8ji8LPkT1UBLeUXtmdvijA0uF/Ytt+QQNg8EAIAuwdrOtriA4GFYecepqVl5tApmkLFqmvGADip3Aksjhw01WAAADm336dBa/poRCjKyKroODouJk1bC4HDgl6l2GBMxv812wBYJvXI7F6NEc+Yyg1WF9eTPRU3atWBWHuPgmaw5KxOJUgAA8HDWYqONLwJzE7Xbe5p0CkaMZ9TUwNC5KfdfMptBGNRFf85Y+cnR9edsXRhBwZVH0pMP9tb4cTiihf8yGtcDPHpT3mt2ehG9XV7JmNxf/7fxhkQpy7cHG2qwiDl3MKCpP3H4lBHZuZXdhoalpEuTTKeMsTbC74fSspnBwlkOksPElHLCWAiS89cQVbNUBJcLp3Z4Mg0Otu5P/+OfVKIUANho40vAzlL9v4NOwb6I/AwAmLQ87fIDRCUVCjydNA6sZjY8pjCnbskPNe6+LC0tl44d/vGjqbsDrkE29dDErj0JjaroNTu9rLxeccaI73R3LaJK2GL5dmBDDRYxerq8ayeatmtZr7GNT5kV/caE5wnEI6462ryZE6Qdrq6O2uF/vNTUpIO3z1/T6sFfhBUWFim4xE4BTI3Vzu3xIkrlsXRD8tIN6KW5Hs5aT877+nognphZPjsu9hr/HXJysUfHguN+Sz10kUGmPQAY6PHObbTT0UJMUiidd3GVdDZRq6wShsVInwG0NDjH/2fFx3wTF02Upot+SK7q83N6Ce2NXZBM6q9/bBWbCsoihg01WKQYGardOd9swqh6PY1FRhf3GB5WUiqODGZPthPt0aqlxbt4yM8RvxNb2ie662yf0QtKlEVQgO7VQz48hnvc//FP6o9L45GZJ3bW6ndPeHdshRi4ZvmMBPtq/3fIyc4SkbQoFMKoBalHLlOVqpNFW4t7Y6eDG37MQHUQynZRQNirxd9N/cQfVlwuBwCCvDUHdRLHwfFp1R2npGXn1yuy3zzXdPdidjyDRQobarAQ2bXBc9HsJkQpE8Iii4ZPiRS9NzRQW/mrk4kR/8aJgHYtiTda7GwLNc9eNWioAQDd2hse2OiGTKCjYNeRjFGzPiDrOxnq8y7v8+zduV7jRixKpH8n/Tt7ncyNEStEampg9MLUk9eZxRlqapxLW+2DvBtukfOTcNqhRioxdXRAR53z6620NLlbfxUPPxSVCHv9lE5z4zQyzvxpMWtYvaZiWb4+2FCDBcGKhc5Hdvgw2hmEwI17uX/vTBG9nzLG+s7ZwFbNEb1PZjbdRXSh4fInpJXOiH5mm1dI63/Q5MzVnAGTo5Hz3BrqnDM73CeNsCAqWBqcqcNMzm5y0CaZ5hj5a8rJa8ziDAA4+odtx+YNutoiNIru4qzkDEQA0aedTuRJB8m+JxNWZMYm0/1KyuJkw39xwEYyQMLCIoENNVjQDB9gEf6g5YBeis+2Llj18e6jfABQU+N4u6N7Hzr7P4mIjVf5Lq9Ipo+1XDwLsY6GmhsP8ruMfJebj+jc1dQ4O9Y4rZiD3iyUpQHg8Tjbl9hs/90aOWJVWibsPDHh7C2qShVI9q20GdINsVBWpSRRLnPFwiN5cHC0Fg/q/LE///w9BhvVEpgz2vDNEdvmnoj17SwsdDt6lm8QB1vN0//6Prka1KurItOuHi46+rqIoWksJsaIOXIkianlyByIBmDFXPtxQxiPQ7wML2o7OCIlHf2MuHimzY41ztgMWZaGQV+Xd3Wn49Rh6KKZ2Xk17cbFPwiVvyqKwJpZ5uP6EecHVU1pubC4FDF4hsRM3mZvHZtruZLkxlIzro9+4kWHdT+Z6Gqz7ZkFDRtqsMghKFA/5LD/8xvB0yfYEVauItHW4o0ebHn5SEDEg+DmAXIe8kxphxrV1cJUVA7p3UeChGS6Y8gKs3edy9DejOOtj4llrQdGRMSgx2MmjTB/cdHP1RG9wJJFFTjaqD895ty1JXqD04/JlcEj495E081+kPDLGNOFPzBuHvSJTqy8iaoLnpaFGDYjw9xYTqjRylcz+qz9ufVWAzvpamrIvzWYGPBmDTd8fcRu3xIzOws5DxUs3zhs+2ChRVM/vaa+elvWuIW+KXz0XBAdW5qYWhafWJaQXGZrrelgq2lnreHcRLttsEHX9pLnRfmjEK5ODG60gsJqO2vc8Oyrt8X9JkS6O2k/vhhAp3OsD4c2uRWX1l67h9g/k4KM7MoOQyMv7/Ns3RwRdfm6a78I8Zm0MP7sNfl1zFjqSdumOuc2O5iQPNy/iS7vMS0xm3llzEmDjdbPtaDT2hWjpEw4ZG5aUkbV88MOXvia4ow2WaW5KKZ/B53+HXTKKoR3X5Y9flMWn1admlmdlFGVnl3tZMN3tuU7Wqt5Oqq3DdBs5qmhsj+a5WtDkfEudmdXOQYAqt8bEKQ6UhuMAm2Dl+KPVO9kABAmp1U4t3iK0VER9TDYtYk0NMnLrw7sFpqeWQEAk0ZZ7fjTVWoqQakXorJS2O+HqDuPGGcLamhwD29yHdjdWPazRH5euzN96d8pNTUyahZlwONxFk82XzLNHJevgHH27WfFA2cnlTKvJPF9H8MDq2w4HCBt7SKE4hcVJG116Ly0c3eLAMDJVj3suCN2kiIqvtJ3aILUlJLM286mhnXhOPqjAKdA2+Cl+KOG6TQwUjxiDbkB1OtCYGDQaaDAKNA2eKmMTWPwM7uzK8uXhL2NhrkprYctADDUxw3CzVn+URRnAMDeY59Oq754ubo658JezxaBiPEJaioqakfM/LDp309ERR0LplnfPMy4RCkLHews1e/sc14+Ex9nYDh2RdBreqICccaAzvr7xXGGqth5WiCKMwAgPrXy9+24Ri7aGp4OzrbqpiTDOSwsDQDdlsrCoiJ6dEIn6BHgcDhGBtJQ48HTgqPncPvBzlgUm56JzsFUIpoa3OuHfZr5oif7KaitFc5fkzj9t/gakjHvDi30Qy/5dmiBWBLMojD9Oxu8Puvatil6AapQCL/+nTFmkSLjSb3a6Z1cZ8dVZQ8am1w1b2MWVrL1eH7ER2nGkokB3eihZxv0EjAWloZBlV8Ulq+asMjiB08Ekv/exZSUoypJyGVoP1rrab3dtbHrNX5fm4BRAgAICqpn/YbeYVW56Opwbxz18fNUpO/eeyKzx7ioApIi65Zm/NtHvXaucdLVoXsLYSFDV5u3f43d2c0ORvpoZ5aWCfv9mLThgCKDYV1b6p7daKem4lS3cUsQu5Cs2i1N69HU4DjZ0hoJG/4d46E4ACirEEbGVd5/VSb5LzxW5dE8y1eJir8rLF8RmdmVZy9nRb4vjksqe/G6sLgEkUDXPEC/Uxuj9i0N27Yw1NWhFch2bWdkbMTPy5dTHqCpr7SvvP9E8OwVouzBxZs5N+7nd++o8nKcBnq8W8d8uoyIjIxBrAug5v7TgnZDIi/v97S3RtwkOByYNNy8cyuD8fM+Pnn9GaqWfR208NPev8bOzZG0xkNWXnWvaYlh7xkvNgGATsE6IVvs1fmqnDgBOHCx4HkE4vTO3il6n1DpWZcf2tRDIz5Vzu3fwYrf2p8iuw5HUYnwweuyB6/L7r0sxW6bIkFPh9vSR7OJDb+pu3r/9jpyF7awsACbFkpELCbRihCKX1SoPLEIpDpSG4wCbYOX4o+wTj53JXv7vpQHTxgkAQHAmKGWP022C/CWmWuQ/mLxuwWr4ySlRcnYvd59wnBL0fsR06LOXkE/jDo5aEXcaa6uXtewVXkhBIU1fca/ex6mSEBgaswP2eMRHKBL1phramDtrrRVW9OqqojPtSwU8PmcxVMsfptiTpjawPo5Mrai57SE9Cw50S2SPh30zvxth92orO4Xy1xHLELxiwpMWy0ornXrH5+DKgEHAD+OMNo8XzwWuOV4/i/rcZMssqyeYVq3m1rdR6DO5WlE+a6zBYevMNsBoHtL7RlDDfq01YaG6Jlx74io4EKQoHinAQA4BdoGL5WxaQx+ZtNCWZTM6GmRwye9ZRpnAMDh0xlB371s0/fVqYtyusKZE2zlbjXSpa14rCI3vzrkBume8vFJZYfO4HI4VIehPu/mUe+u7QyJChrk5FW1GRyx6yjpqfJ4sHiGzZOzPoHeiszUfJv4u2s9O+G6ZDoxzsBy4ELMq0L1AAAgAElEQVR+6+8/KhZnTBxoFLLFHhdnqIZNR/PI4gwAOHylsKJSfCeQWwddQ507dbCcJnrkalHQmJS2E1OYxhkAcONZaf+5n6b+gQ79WVhEkH8jWVgAAGDBT45EERNevC4cPf2dR5tn56+Sdkb2Nhr9upsQpRj8PHXtbcSD4eevZiM3M5Pw57bk2oYaCNDW4l7813MI8+peIn5cGj94+of8AnTqBgAEemk/OeO9cJo10z1mvzX4fM6ymZbPTrr4u5MOuBaX1o6Yl/LDktQS2hU2scwcabJnuTVRqgKKS2u3HKOK7AuKau6+FNeF83PVsLeiqoP3fS89YwPSfv7I1SLHPonjlmW8jq5XHbx538uJZli+cUibIAuLCD8v3X/WehClDIlLLBs2ObL78HCyXeP/t9iZ4m46caR46gQA7j+VU9YiKbX8RIiccRQlwudzjm11mzCMceVyESE38/x6hD8KJZ2F4fM5q+fZRd3yZ7eEJcPLWVM0mEEx3vAqqsx/UOzpG3IaDxmrZ1lsWShthCpl24l8AUnisISHr6VpHOP7khZE11DnLp+KDuLj06ra/pA6bllGSqYiAzxYjq6ycLWjCndYWNhQg0U+U8ba1HNbeRF3H+UFdHmJTLNwc9KaNBr9yKinq/b9YGkv/0BeqAEAG3enEkWqhMOB3WudF0y3JSro8SmrsvPIqOUbU8nWwQKAs71GyG63kN3udlakqY7fIOYm/O1LbV+fdacYzKithf/tzmo9Oi4xTU76JBIOh7N/le2iSWZEhWqorBJuOko1pCHi4Stptfspgw3JclQXjjeyNkPk/u8LKQwYmfz0LSLtlCmb5piO+E4mH4uFBQ8barDQYuVCp/Ej0KEAIwQFVSOmRg6cEPFJpgbG0jmOyG3rf55sa1C3XrGyUpiRRfyHsrx5V/zfc8QSFZWyer79jv85E6X0qK0Vrt6W2mH4u6Q09KiPiN6dDd/d9Js/xZrdp01DnTt3gnnMVY8pw0woFp2mZVZ1/SF+6dYM6kk3MnS1eZe2OYzt13CzAydvFGWTZ2lIiEmSfgusTHkT+iMGNsyM1OaNJRatiU+r6jI1bfLqzBLmJctkWTzBaNZwxEezsBBgQw0Wuuxc59G9E3owlimXb+X4d3nxED8+YW7KX/AjcWt1S3P1X6ZIRwuycuXHGSK2H0wnilTPpBEWj876mZkoOJj8LKwooNfb/acRoz4StLW4f/xq9/qS73cKpaN+BXA4nBG9jN5dcl8710qPckH1kUsC/0EfHoYquDG6nSX/+TGnnm0b9JF96wlam+zkF9aUlkuDpyWTTbW1iK5Y+5OptiYuJA15UOI/PPk+ZkSkPozuqbdqGjGUYWFBQmydLCxk8Hicy0cDukh3U6sX+YKqLkPf/LM/DSucO83ewwWXUb9uqbOernSoI08g/4FPRMiN3OIS8gkJldEiUPfVlQB/hQp8AUBRcc3kRXG9J0ZnZFPNoHu5aF3d5/7otPe3FnB0CNL974jLkb/sHW0QVUkk5BXUDPwpafziZEGhgm0gyEf71SkXjyYNOl2VkFb1KopueiZ2W1crU96yKbjc5LYBWmP74CrP/r49d9Dc9FKZmmCKMbqn3qEVtIrvsbAAG2qwMOX6icB+3ZU2b/3zktiR06IkMYG6Omfv3x6Sha8tmxmM6I/rzuSveK+jqqr20q3Ps12qlTn/8Xm/YX0UXJYCADceCvx6hp+6Iuf8WwboXt3n/ui0V/f2X3/A0SFY985+lzsHnFv6y1neef2/Iu9+MZfuKT6DNvQ7g4cHm5DtAas6Lj9kMABTjS+m/tNIQ8lSFG1N7sGVVpL149n5NV2npf6xT05zos/kgfpsnMHCCDbUYGHMmX1+c6Y7EKWKcuZyVrv+r1PSxTkKLZrq/7XEGQDU1Di717nhTAH0MSMccjl7BV1+IyK6tKKCdsyiEBrqnKNb3DYsaUKxrIaaPEH1qNmxQ2d+yJU3c98yQPfKv25fccDR0l/nzn6XO/udOwTLGSsqKav94ffUPtMTFNgLXgSHw1k1y+LEejuyRMv6U1oujIpHzwMyCjUM9XDfBXU+59j/rLhcDgBsW2DuaC1OYEn6VN1ibPK9UOVMmgDAkknGOxcp7WGD5RtBka8TWy1UjgHQefquZ705kOpIbTAKtA1eij+S6+Tj5zOmzosuK1NwgJqAuan6rVMBXm7iB9bpv35oE2zw/WDik1NNDei6PKSZ4qelycuPai27n2f3URHVNXDhXy89XV69L4QcJz96WThkWkyuvLLrFJiZ8P+YbzdusBmuyBnus6QHoREla3d9CrmVX1uLOpsvjU4t9H79wbxbGz25fgYQhtwp/PnP9JRP6Ls4HQz0eEfX2uGSM0j8jEMsJtGKEIpfgqLaPrNS9HW4V/+xI5hUVNQatY+tqKQ1waGhzi1+7CpTqUy470JhWEz51l/FX5yIj5XfzUjNUjTwIqCjxd231HxIF0zAh/+j5XYasscAjJyMe0eEyYWgQuW9N0aBtsFLZWwag5+ZVgtlQw08YjGJVoRQ/KJC5Y0VpDpSG4wCbYOX4o/oOPldTMmQiREfE5TzwGRooHbjuH9TPz0Aqgvh1zn0fSzdnUdeXW9K2Bdt+8FPs5d+BIBu7Y0uH/Thcut5IeQ7OfVT5YBJ0eHv6Z4zkmB/3W0rmzT1rps7wH0W8YNj4svX7f509GLuF1rUnMfjDO1hOHeCeaCnVp2Mys/pWdWTliTffExam4QOgZ5a5zbZE8thUfpZDHlblSIEAGFVNXSflvzgVQkA7F5q9cNA3ChU6LuyFt8nYiUUBHpohh51IErxbfVJeHnv2WmFxcp5GHCxU7+w3sqzCX61D/6PptNpEI4BGDkZ944I7QtBFBJQee+NUaBt8FIZm8bgZ6ahBjEqZmGhj7e7zsubQRNGKmERLAAICqq7DQ+/9UBO823ZlME26x8TcZUDiktqlm1IFL2/9TB/5uKP8nuVemNrpf74vG99UjcA4EV4ccuBkT8uS6ST5+jupLn3zyZx9/wXTrM2M1ZwOcxnwVCf9/M486grnkf+csDEGaTU1MDGg9mefaLrGWdMH27y5IgTMc5QKjU1MGFpuijOAIBlO3LK8bN4H5MZjMe08pPjnJAHJT1+TFVWnDFtsEHYUTvPJir0D8vXDRtqsNQLXR3e7g0eZ/b5GRspoRviq3Fq5I389+zCYAlMGn44fe+xDEGBdDB57/FP0xc2xL7zGuqco1tc1//uSFQwobZWuPNopnuX8H2Uq2ElWJvzV8+xTXwYsP8vpyA/OVkOnx1/D60dy+1S7vms/9Xa2Y5qdYkIoRDO3CjwHxgzf116SaniN1Qdbe7JDQ7bfrNWXXIGAAiF8P1vacevSTNVP2VXHcMcAkByBoNpjr4d5CzB5auBUv4ic2O1Sxut/1lgRlg3y8LCCDbUYFEC/XuYxjxp9dsvTfT1yKspyWPkQIuI+8E9OsmJJHp2NkZW+kIiKMR139sPEYtt/HsiY/vBTwShipg90erFRT8PZznPo9Tk5ldNWRQfPCDyyj35VVMBQEOdM2aAydMzXi8veM+fbOXiQDH1+RlwsFafPdb84VHXV+fcJw8z0aJ3P7v2sCh42IcRcxOj4+kuDUXi6aT56qTrkG4MxskUY83enFM3iDuZ7TiFu4KFJXRnu0yN1LoGy1mG06uNTuRpx2Hf6REVtDHQ5S2fYvLhrEOvNnI+i4VFLrS+2ATYXA05BgCqn+0DqY7UBqNA2+Cl+CPFnFxQUL3zYNrOQ2mp6XTvAbo6vDFDLWeMt8FV1BD/bsRHAMDMxbG7DxODBiS/zrBbs8BR9P5JaGGHweE4NQAA8PncpyH+/l5kz/3UF0IRJ8//X9Kmf2mdPzXNfHSWz7bt2ZGkXKP0k3HnEB5dduFm/tX7gleR9UofqQ8+rlq9O+oP6GoY5Cu66HVniPYhSBRvY8pnr0n77xWDlRpkjB9gvG2xNSa4QX02ToYyADltFQDuh5Z2nZwkRPUJMRddXOp2D/l1Y9aGQ7TWoy6YYPK/H5HzcULJDwlvYyu3ncz/9wKDpb9NbPgzhxpMGWigoyV7g0C0ZwmKdRpMnIx7R0TehQAQKSkNAFTfe2MUaBu8VMamMfiZaa6GbEuSDxtqyDEAUH1jBamO1AajQNvgpfijejr5zn/5+46lPw0tSCGJOYwM+e1aGIwYYNGnm4mWpszomvj3oD4C4H1sqX+XUGTfTWD1r44LZopT/ResSfibZG8UB1vN0KuBhnXlz/FQXwgFnfz0ddGYn2Opy5DTpGWA7rLZtt3ayjyaSz8ZfWbZedU3/yu4+V/h7ScFmTmKr5GhiYmhWpdWet3a6Pdsr29pShj9qjtD9JkCgDDsfdnijZ9u1S8nQ4S5idrWxdZDuhFCNNRn42QoA5DTVtOzq/2HxOWRbN679meLeePEw3grd2av2IVeno1FTY2Tet3ZzIhZWy0qqT1/r/jUraJHb8qKSIZP7Cz4bQM1J/bT7xykBYD+PUQp/qienYbsgRSpmMQA5FwIMULxiwr5HUs9e2+MAm2Dl8rYNAY/s6EG+hiAkaNJtCKE4hcVKm+sINWR2mAUaBu8FH+kLCcXFtW8jSpOy6jIzKosr6g1N1O3sVB3ddJ2tNNE/wYRYg2pwaAf3l26Kb9f3vGH66RR4q3agnqFvXlH+jTcrb3RlYPeuAWlYqgvhOJOLiqumbs6cf9p5WxC2zJAd+lPNt+1w9w+pZ+FPjMAqZ/Do8uuPyy4+V/Bk7ASJa5b4fE4Lfx0vmun172tfjMvbZnFmRLqzhB1plFx5Uu3fLpwm8FzOQUjextuXWxtpM+T+SziMQBBhjIAqQ/xUgCAqmpoPSbh9XvSXc16tNG9sk0cCm89lvfzuky8HsHEAYZ7lpBtIyyU/CBBCACxyVXxqVVpWdVZ+TXamhxLEzUbczU/F3U9HS7uH6N/D16KP1JWp4FAKiYxAKoLIUUoflGh8t4bo0Db4KUyNo3Bz2yogT4GYORoEq0IofhFhcobK0h1pDYYBdoGL8Ufqd7JuHdExBpSg7DI4uCer4hSGc7t9e7bzRgAysprDT2fUFebWPe708+TZFfTCCU/UNTLyQBw84Fg4q9xmTkMVh9QEOCls3iG9aDuRgAK+rmwuObJ6+KID2WRMWWRH8rCoxmvZPZ01vJx0/Rx0wrw0GrbTNdAjyfPhyDV4W2evy3ddiT7+BUGPRoFVmb8fattv2tdl1BJPB/iMQBBhjIAhA8l/Loxa8NBqoDYUI+X+1Bcp+70jcIRC3F1+mXhcjlxl5zsLckyohT0MwaMAm2Dl+KPGnmnASBSUhoAqL73xijQNnipjE1j8DMbaqCPARg5mkQrQih+UaHyxgpSHakNRoG2wUvxR6p3Mu4dEbGG3ADgh19iDp3JIErxvH8Q5OKoCQAv3xS17v+GqMajrs4Nv9lUZI9BKPmBol5OBgAOCAWFNbOWJRy/SHVPYoSXi9aCadYjepvUlS+T+VQJNPwsKKgpKKoWFNUUFNUUFNXkF1QLimoKi2t0tXmG+jwjfZ6hPs9AV/zTyIDZwH4ddTohAEBRSe2Ri3l7z+SGR5OOBzBlwkDjjQvw27MRz4d4DECQoQyA1IdPwsvaj0+UO82XctNVtM/72w/lgcMTiGo85FkaIpj5GQVGgbbBS/FHjb/TAKH4RYW8SwZQz94bo0Db4KUyNo3Bz2yogT4GYORoEq0IofhFhcobK0h1pDYYBdoGL8Ufqd7JkPqpPDu3qrCoGgC0tXhBAZhsebENyW8AAACBoNqr48ts8r1etTR5hTGtRe8vXM8dOjUKr0fQIlD/v3N++GkU6gtRLycDxs8Xb+XPWJKQkU365zDF0VZjwVTrycPNEJ8qgYafQSh+kaO0xvw8vHTH8ZwzNwTlFUqbxLG1VD+wxq6T7JIN4vkQjwEIMpQBoH1YXiH0GRSXkCb/aj466CgqklFRUavb+gPFwJurvfrbU46US1jRfk5Mr076VGWgyw1wr1tFLGNTB0aBtsFL8UcN0GmQGgD6QhARil9UqLz3xijQNnipjE1j8DPTUINsII6FRckUFdc8f134IqzwVXhRZHRxfBLigbVFU/32LQ07tjZsG2wouyk2AUMDtc2rnEfNeE9U1NGquTRTkmYto+dhhWev5gzpTfHgqCr6dTPq1Er/t/UpO49mUtxv6JOYWjF9ScJvG1IGdTca3sukQws98lSJz0xZufDopbxdJ3LD3jOer6Fm7nizJdMtdLXxWQiqZ/vJPDpxBgBk5opbpoY6p7mX5otIxPcCADgczuE1VpRxhhhBUe2D12UPXpWGx1S8+VAhKCK2fEdrfoCbRodmWu2bagW4NejWtSzfLGyowaJyPiaUrdmUeETeZAcAPH9d+Px14brtyQDQvqXh90MsRvQ3R6xPqWNoH7PTl7LPX0NPPfTGFPuif/NevTllcC9TVH6oytHT5W1Z7jh2kNnkhXERMcq56eYJqveezN57MtvClD+kh/Gw3satm+p+lr8OSUxCxY7j2YdD8gpk7oj1pENz3Z3LbV0d5FcDUzrlFcJ1B2gtWwWAklLp+E3PNjpkocacMcZB3poU8ZKgqPbig6KQ+8UX7pHmPotITK9KTK+6cL8YAByt+eP66I/trS/Zno2FRRUo0uWwEyhyDABUPwQHUh2pDUaBtsFL8UdKcXJkdMmaTYlnLim+yEJXhzdygMWsH2w8XZED4MLs3Cr/rq+Q0ygJz1vYWorvNOeu5QyfRjr+QeDkDs9BPU3qjnAXIk9QbWyI7ZTr5WQg9/Pm/RnLNqUUlyj5BgwAtpbqg3sY9+tq2CFYr+7DZc4Bi1D8IodxY773rPjGo8Lr/xVGxqLvrPXBwVp93TyrQfi1rGR+pjgGIMhwB/mFNUai1dEyPvz7UO78v+WvJRFxfpNdP1HpT6EwKr7Sd0g80QLA11Xz+WEHDXX0Ob6JqdhyPP/gpXqt0BnXV3/pJBNHa0yqDeqziFL8kdKdLEUqJjEAxIVAIBS/qFB5741RoG3wUhmbxuBnphMopM+LLCz1oby8dsGquMAuL+oTZwBAcUnNnqPpfp1fdh4SfvcRoj6mmQn/7B4vPp/Ykru0M7K1kg4O6+syeGjbtBe9EODh88KA7mFh7xqi8tXsCZYf7wVOGUm2rFFxUjMqNx/I6PJ9tEWLsOlLk64/rNctij6ZOdU7T+QMmpVgGPS228TY9fsylR5naGpwf59m8e6SOyHOUDrP3pZ59v/4EjUCIRTC9pMMumAjzF7wXk7qTT2JT3EmhryQTTYa6ojHwvuhZV2mpjQblVjPOAMADl4qdO6fMOfvHEGR0rJkWFgkIJqvXNhRDTkGAKqPi0GqI7XBKNA2eCn+qJ5OvnYnt99YRGnOetK/u+nSuY7izVoxF+LSrdwhk6OwsyTHd3gN6W0quRBpGZWOLZ5LtHJ5cSUw0FtUP1R6IXqPi7r5MF9Dg7t2kePMcVZSrQiUP4hSGRu5fo78UPrLqqR7T+t7L6FAT5fXsYVeq0DdYD+dIF8dHW183IbxMwlUjfllROm1BwVX7he8eqecKSEy+nU22LjQ2sGaD4A4X7l+lj0GIMiEACAUwoaDub9tzayuFg7uqn9qg12djfh/t56V9JiWJPk3csn/z11flwsAora687Rg5h/SqUYDPd79vfZ+rqKgWern+6Flq/bk3A9VsksNdHl3d9kEuKkDoP1BlOKPlOVkBFIxiQFINOQGIL6GRCEBlffeGAXaBi+VsWkMfmY6qsGGGnjEYhKtCKH4RYXKGytIdaQ2GAXaBi/FH9XfyReuZQ+dFCE9Vh79uptuXeNqbY4bUN5/MnPK/BjRe2sLjbinwWpqHOyFsAt6npGFmGdBMmGYxe6/XAFAciGS0yqc24ZKDPp/Z3LgbzddHcw3COUPolTGhqafr9wVLN+c2jADKl4uWsH+On4e2oFe2k29tHW05OZUShvz+7jymITyqI/lMQnl0XHlMYkVqpgDItCphd6ymRZtm8oWtpdC089EcDKhoKh2xPyUW0/FyRB8PifttruJeH2v2HT0orQT+H3UKHCyVY+95Cw+EAoBoKRMaN0ttri0FgA0Nbi3d9lhNnEVghAS06t+WJGh9CADCHEGoP1BlOKPlOJk7IEUqZjEACQacgMQKSkNQHwhKKln741RoG3wUhmbxuBnpqEGg1FlFhZGDOhpevds06GTInLzlVz0+uKNnPtPBL/95DBjvJWmhvgRfMJwi+iPpX/vSgGAxT/Zq6kRw+hOrQ2PX6A7m3P+eu6uta7Y9MmzV3GJfiE3c1v1D790wNPRtiFy+Ht3Nuzd2fDUlbwVm1Nj4hHj9kok6mNZ1EfpRzjaaPh5aPm4ahno8/R0eHo6XF1tnp4Ot6CoRlRsI7+gOiahPCq2XOkTInLpGKy7/EfLtk11qHpGJRGTWNlzelJSujRaraoSXrxfNKG/oURSUwNXHsrJysTSNpCYgaSjxfl5tPHqPTkcDmfvUkvsZvGCototx/LpFC9XAGKcwcKiVIjdMR3YUQ05BgCqj4tBqiO1wSjQNngp/khZTo5LLOs1Khy5tLX+ONhqbl7lgl1psnF36v6TGa+uN+OLlgViLsTFm7mDJ8svrSHhaUhAc39dyYXoNiryvswshokR/+5JHy9XBfeMAIX8vP909p870uOS0ZvLfCNgggwRyvczgFT27G1Zz+mJskumh3QzOLnOFgBEpg9CSztPSsRZUHJlm32PNnV/Ql1bLS6tDf4+adsii85B0kDkwr3iuRsyE9OVHLWL8HfTOLfO2tFaDecElD+IUvxRPZ0seyBFKiYxAImG3ABESkoDkF4IcurZe2MUaBu8VMamMfiZ6agGMZmOhUW5ODtqhd4M6tlFsqBDmSSllg+YEDn2p2jJKP0vU2yfXmoqjjPw9OxkbGjAYBjvySvprt+VlcJHL4mbgANAbn5Vx6ERr94yeJCtPxOGmr2/5X9ii2sg6W60XzMdg3XvHXS5vc8ZE2eoltvPSrpNSZCNMwDg7gvclNbjNwzmNUyN1L5rhfgTdLW5YSccJXGGoKh28Ny0wXNTVRRnjO2jf3enLbvYlUWlsKEGi8rR0+VdPOQ3c6Lo4U/5HL+QFdzrteR+T8xqrIPP53w/iMGCjvAo6V0kOr6suhod5ucXVHcd9e4NxrgB4HJhSE/jlyE+l/d6dAiW2dP1K6VvJ4NHx1xv73Nu1wxxh1YRd56X9J6ZWFqGXpeRV1D9Kbtacvg6isFQ0w8DDcmKqknWm9wPLXXuE3fhnhL2s0Xy9xyz/cssDPVIzoOFRUmwLYylgdi0yvXUHh9Lc5VkNsQmlLXs8zo0XE6PPGeKjZYmcpMOBMmYHd4j3lNFEsUlNX3Hv0/9RDfnVIn06GBw56jH22u+k4ZT1Tr7otHS5E4dbvrhuuf5bY4t/YnJDSolIrZiyJxksihTxLs4aTuhP/BgqMebO0Y68Yfkwr3iLlOSZct9KgV/N41XR+1nj5QmmrCwqI6vs29iaZwM7GX29l5wn24qKfs9Z6pdc3/MLioo7Kw1ls2xJ0pJwC5XyRNIn1yRZGRX9hwbVaiau4JcvFy0dq52THkc+OcCewcblQRznwUnO42VP1kl3vH+Z6mNk11DZyymZ1V3n4qeN8GSXyg1+JRDN9RY+7O5iaGcqHdAJ92xfVVSIGTpZJO7O23ZquQsDQYbarA0KEaGauf3++5e72FqrMw7x79/u6/9rQlRiuKniTYujtKsfgoKiqThRUUlevwcS3Rc6eBp0TVybkwqxFCfN2+SZexd/3M73Dq2/IJnVQz0eD8MMbl3yPXDdc/FUy3k3pJVQVm58LspiZm5ckJMAKisko55lJRRjX9IaO6t9cNAWsMJ+1dY/T2PwayfXDo003511H7ZFGN20oSlIWFbG8tnYMIIq4/PWi6b20RXp753EW83nbBbzccOodsd8/mcvevdODR2AcHmodPcaPT+04JfViYQpQ0Llwv9uhrePuzx9qrvpOHmOtr19XBD0rW13sE/HXKf+e5aYdeQCRkEhEIYMT/lfTytxAtsqEFnOzR1Pmf3UisaDVDM7FFGr4438XejWPRHCwcr/p1dtnd32QS4s4MZLA0NG2qwfB50tHm//+IQ+7Tl6oVOLk1oDTMQCA7UP7PH+83tZj7uzObv2wTpr5jnQJTKgA2DDPTo5ufvOPxp7wnS/S9WbEr9bV0ydoct1eHlorVzlWP2y6YXd7uNHWhqqE/3T2h4PJw01/xinf6fz/U9zqP7GhHVyqawuHb++ow1u7OJijp+35p5+QFiwRESA0xlcR0t+RHEP4st/RnOXAS4a7w+4bhvuZWDFZ+oo0GHZtpn11vHX2rSsZkiXzQWlvoj/4shC1tXQ44B4J+I0dRzZTZIdaQ2GAXaBi/FH6neybh3j18U7D/x6eqdPOTGaVgszNT7fWc6day1vyeNwk0kF0IohIE/RF25Q7X9ZnCg3uPz/qKPuHI7f8AkujU5tDR5UXcCba1EM0S4E3Bu+zo5vcLEiD9vivWMMZbaWtyG9POtR4U3HxVce1AQHaeSMidMcbTR6NfZYEgPw9aSSlYkfwpOgbbBS2VsRH4uLK7dfCRn46GcgqIaf3et16ddMCbifxMRWxE45KOQpOXIEnbKxc9NQ/TPA4fFv/1ANRbyw0Cj3UstiVIR8j9RCEK4cL/40KXCkPtyMqABwMGK37+j7uyRRpiFrHUfQfpR9fJzQzZmBGINuQGIlJQGADQvBCVCyQ8UGAXaBi+VsWkMfmZaV4MNNfCIxSRaEULxiwqVN1aQ6khtMAq0DV6KP1K9k3HvJER/LH32qvBFWGHMR3GJAh1tnomRmokx39lBq0MrQy837G0J8RtwkF+IwqKariPehkWSlsQY3tfsyFZ30UdEfyzz7fqaaEHOd+2NrhzwBADsGSalVbi0k/4SC1P19fwzoOAAACAASURBVL87jOwrU3GEeMrEY4D6+jk9q+rSHcGtRwV3nhYWyUt7VDpdW+v36qDfva2+exPJw33dGRLPVAJGgbbBS2VsOCDcdy5/wd8ZeQXS9AvBU289HcnIrhAAhEJoOSou9B2DUKz0hZeGOkf0zwf+nHKRPAjo2kLn0lY70kkW8rZaB67TuB9a9uBVaeKnqiT8spcOzbQcrfgdmmmjSmWo1s+fq9MQI9aQG4BISWkAwPRCoBBKfqDAKNA2eKmMTWPwM9NQQ7YtsrB8TjxctD1ctMcPEz35kTf3eqOvx7t+1Lfr8LcR0eiFrO7O0tFmFwdNA321gkL5SYIibj7MP3kpZ3hf3Fqbp69wN6HMnMoxP8cePpf971pnK3NFBsYVxtqcP3Wk2dSRZiCEhy+Lrj0QPHxR/DycNOqqJ828tQM8tZt6awV6aQf7MpvtUgpxKZU//J7y6DXxQr+KKusYhMsI2X8+n1Gc4emkgd1z1cWeNNm5SwudkM3kcQZzOjbX6ticMCFCfYdjYflssKEGy5dNYVFNfkF1nqBK9HRuZaHuSjvzw9hQ7cYxn85DI6LjEEUegwKkS2fV1DgDu5scOE2ahCHLwj+ThvY2xdZoik+WFmCQcPOhwLd7+P51zn27qjxHAUn7IL32Qbqi9x8SKiI/lEbGloW/L4uIKY1PQZwwHXxctZr7ajf30Wnmox3kq/15b4EHLuTPWpNWVo7Ij0lMqwRMqFFdDct30N0lR0S/jriVPs290G2vXVOdkE12mhrM4owHr0oBwN9Nk10twvKlw4YaLF8ez14V3n8ieBJa+PhlQSFmSaoEawsNJwfN4ED9jq0M2gXrU6xzMTPh3zjm02no23j8liJcLqdtEO4uMryfKaNQI/VTRcitvIHdpQFEOsm+soLC6oFTY2aNs1q3GLFLXEPi1kTDrYnGoLpzLi2rDY8uy86tEhRWC4pqBIU1BUU1gsKa/MLqopJaHS2uvi7PQI9nbMAzMuDZmKvbWvGtzfkO1qRP9g1MSVntlGWpJ68JiIo6svNxk0dnbxWkZdItjCFiUFdcI2mB2R1NQks/7av/2GtRzDkDCIpqw2PKHoSWhn+oSEyvehODSPgIcNf0d9Po2Fy7fVMtR+sGHQZjYaknbKjB8sWQkFz+7/FPJy5kJaUiOmIs6ZkV6ZkVj14UiDZ6DQ7U79TaoHMbw85tEMUMrC3U75/x6zXmXWSMdIA90FuHEKB0amVoaaaekY0OF5Bs2ZeODTXyKeuAbT346eXb4tPb3azMGstdRFuL2ypQB4Qgb0RC7tT1ZyAhtbLXtITYJKqBmQJ8nsrGw1RpwrI4WKs399bE/u2O1nxbC34qJl75rpXu6Q222priZA4Cb2IqLt4vCrlXhIwtCLyJKX8TU37wUgEABLhrjuurP7aPATvgwfJFwDZTli+AzOyqmYtj3do8X7stWW6cIcuLsMK1/6R0HxWh5/54yJT3tx4SH3OtzNX/O+c3aoC5RDKgB7GkKY8H86baEITUPHpZGJckPVvq+tYA8CysqFmft49CSfMKWWhy5UFR0yGx1HEGAC7/LyK24mUkYh6NgrnjZFJ6AQZ2EY9zcDic5dPNL2+z15XZlCcxvWrO+kzn3nHNRsSv2JlNJ84g8Cam/Jf1Wc5941fuzhUUIeaGWFgaFcTvAAtLo6KgsGbR/xJcWj/bfTidqGNOeXltyI2cXmMi/Lu+PnAqE1vfQleHd3CT26blzpoaXAD4fpA07JAwZbSllTmz2YF7T6TlGZD7zRLIyq3q+n3U+Rt5RAWe3j/ErNme/vpdqfxk+a+F2lp4/rZ0zp/pPabEE3V4th/P7f9jQlHdZr8UaGCuyJ1nzLJi7Sz5kwcj0mtG9dIHAEtTtes77JdMNeXh5+4OXSpoNiLBuffHzUfzEtMZjJAhERTVrNiV49w3fstxBmsBWFgaHjbUYGm8xMSVBXYLXb8juRyV01cfomJLJs//YOj5eNzsD4mp0mffmeOtnl0KWDzLvq4qBg4tTe5f9MqfS7j3tEDy3ojeFvbV1cJhP8buPEqaF1JTAzf/K1i2MSV4QIR927A129OZZhh8WUTFlU/6PcWsdWSbkbFbDmeHRVGtEFn0d8ZPa9KIUhLMjKVX5O5zZqHG5oVWyOUkwT5aiyaZRZ5z6dpSmnCamF61cleOSfsPE5amKzCGQY2gqOaX9VldpqawwxssjRbEV0UubF0NOQaAH5lFI3d6Wyj5QUKdjtQGo0Db4KX4I9U7GfeOiBDOXc2esfBDbn5D3EQH9TSdM8WmRSBytzbihRgw6f2VO3JGHSTYWGokPmkqev/3nvQFfyTh9VSsmmu/aLq1rJdy8qotg19hJRwOp0MLvfGDzUb1M5GueaHnZ+z/0AjFL3JU1ZhvPCpaty/r/nPijFLZGz8+MX9WCABTl6X+e5bupQGAqzuadG8jXn1j1DpK7s5qEob3MDi21lZ8QOnDxPSqlTuzD14kztmpAkM93p1d1Juoof2MAaNA2+Cl+KPP3mlg/4dGKH5RofLeG6NA2+ClMjaNwc9M62qwoxosjZQHTwUNE2cAwLlrOW0Hhg+Z8v51hPxH24Mb3ZzsKUJtHOmZlVV1e2T4ejDb1GPJhmTk2EapzBiPUCi8/6xw/Pw4r+/e7j2ZLfnELxShEE5fF7QY9qH31DjZOAMAkJXdV27PZBRnAEBTT/GCkVxBDf04w9tFc+8K+Vk7ielVE5emO/eKbZg4AwAERTUh9+U3YBaWhocNNVgaKZtXuW5d46pPe/OR+hNyM3fKgo9EqQwGerzLB7xpnphQKEz5JJ6Sb99Cn+la1lnLE09cYrAs4mNS+bTfEzy6vb35n3Ti5guiskq443iOe8/3I+cmvnpHmqQpG0ntO5e/cjsiLKPA11XTzFicSZH0iW5Qa2Gidm2Hg7am/OvYeVJSgwUZAGCgxzu7wXrZVESmKgvLZ4cNNVgaL9PGWr+9G9SlHSL5ThUY6qud3OFBlKJwbaJ55YCXAb0NzNIzxaGGhjqnUysDvFIOQqFw/Py4qI+47AQdLTlf26S0il4TYwbNiE3NqG/iYUPyMLTEt1/0rNWpckuH6eG3qw2PKZ+xMhUroUNfTPWttCxaoYa5sdqtPY425rSu+7mNttid2FRK/4568ZecBnQUTwaxsDQ25PRZLCyfFxtL9evH/E7t9nZzUnlB67O7PZ0d6M6MtGyqd/ekr4UZInuUQEWldLR/cE/GD53V1cIJ8+JqMKP7xoZqdEZHLt7O9+4R8dfuT3IX2X52Cotrxy9M7jw2Ng5VUJWApSlfDXOvr6oWjluYrMDfOLyntMhKWRliRoaAi73Gs6NO3s4UmRA4Atw17+51UHW04WDFv7PL/twGa7bABktjhm2dLF8AA3uaRtwL+muJs7aWSjpufT21Oyd827dkNuTg56H99IKfuxOiQCQZo/qbmhozrtD1KrLkz53Stb4cDrjQC4lKSmsWr0/x7/PuyevGO4X/JKzEt2/0kYt00yw8nXF/+/92ZUXGUq1JQdK9jZ6PizRokJsIGOyr/eRwEweGNTpVGm0Y6PGWTjGNv+wksxMKC0ujgw01WL4MuFz4ZYrtuwdBIwdYEHX1w8dd52mIP9M4Q4SdtfrjC35t8CXMCfC40hEILU3uil/sMEq6/LkjLb9AOrLh685gjCcmvqz9iPdLN6bVyn90b2hW/pPR4fvYtLo5Jjo095beWXPya9buZbZriYjVP+F2cudQDhIN7KJ/798mJoaKRAyiaMPfnVZoSBNxkHHJic3MYPlSYEMNli8JWyuNQ1s93twOmjrWmmJnE/qsmu8YdiPQjcnIBAEDPd6to95zp9hwSO5XJpjiDQAweaRFM1/Gc+pl5bX7TkvvqW2bI9flUvG/HekDp8dWVMp7fm8oqqqEo+clrvznk1DukAKeVgHShTy7T+dWVjEOoPp00G/qhbv3mxih0y801Lnr51md3mDPdKc0LAHumq9POC2dakZUMMfBii8JMtgZE5YvCEW+P2xdDTkGQGNAFuq5MhukOlIbjAJtg5fij1TvZNw7ImINuQFAWVntiZCsI2czHz5jnOdvZMCfOsZq5nhrSzM1yg8BeRdCqrj3uGDMz7GZOcQH9MzXQcaGdXcyIQDAx6TyoL5vi2mUs8RiZ6UR/zBAFM8kplS4dHpDtKBB2+Z6l/e46erU3aVo+BmE4hc5jBtzUUlt/+lxD0MZT+vweJysRz4GelwAqK0Fu85RmTm0MjolGOjx3px1tbfiY8/n3ccKv0EfpMcAAODuqHFqgz1mnoXkj6Ttw8T0qhU7cw5dYtxcAaB/R73+HXXH9aUaP5P1swx1OlIbjAJtg5fijxp/pwFC8YsKlffeGAXaBi+VsWkMfmZaV4MNNfCIxSRaEULxiwqVN1aQ6khtMAq0DV6KP1K9k3HviIg15AYgUgoBICm14trdvP+eFzx4Jsik3A7N0ECtewej/t1Nh/aRbHFSzwuBUQghT1C9ZEPy7qMZEpm5KT/tRXOsjYhLt/MHTY2Wyulx67Bnp1b6AABCaD886slrRM0JuXRooX9tn5u40iUTP5PDzIflFcKu42OfhUs3t6NPrw76F/8RF2y98qCw/8wEvF4OXC7n0j+OPdrqAuD+popKoV6LdzU1YpGGOve3KWbzxptiK5eTOoGhDwVFtQcvCkLuFT94JccDBnq8js20+3fU7d9Jz1CPy9TPKOp0pDYYBdoGL8UffUGdBhUq770xCrQNXipj0xj8zIYa6GMARo4m0YoQil9UqLyxglRHaoNRoG3wUvyR6p2Me0dErCE3AJGSaBCfXB4dW5qQXJ6WWZGcWpGTV2Vtod7EXtPBVtPNSatlU9l5B9yFSEipCI8qjvpQWl0jBABNDa6RvpqhAc/YgG9tqe7pIjvPgvnHdW9fhhcv+CPpvxcFANC9g9Hl/ZgFtBjzzfs+zVuTKD2mwS8TrdYttgcAEMLpq3kjZ8cSLejRu5Phue2uPJ7ifsbDoDFXVgn7z4i/9Vi6NQwjLm536tVefBFnrEzdfYpB0REAOPSH3eg+dQtP8OfsOzA2Kq6cw+EM72nw588WdpZ8GRvcgaCoNjymXFBUEx4tKjSO0zpaqztY8zs0r0upQflQUFT7JqY8PKZcUFQrKKoJjykHANE/8XfTDHDXkNkpnoGfSajTkdpgFGgbvBR/9IV2GkRU3ntjFGgbvFTGpjH4mQ010McAjBxNohUhFL+oUHljBamO1AajQNvgpfgj1TsZ946IWENuACIlpQEAnQsRl1h+5U7e9fv5L98UCQqp9nkHABtLDScHTWd7TWcHTWdHzSB/XUfbugF2/EfdflQwZeHHySMtFs3EVJbE2yz4M+nvPQy2kfN00Yq47gcAIAShEAL7RER+IK1zRc3EoWa71zgqyc8MGvOUJcn7zjKLDyQ099F+dtJV8ln2naPS6dXDEPHXXKu54zEb9uLPecbqtMjYir0rbdwcMAuYMTZvosvefigXBQf3X8oZkJDgaK3ev5Pe2L4GAe7yVsnSaKv0/UxCnY7UBqNA2+Cl+KNvp9OQ9zuEkh8oMAq0DV4qY9MY/MyGGuhjAEaOJtGKEIpfVKi8sYJUR2qDUaBt8FL8keqdjHtHRKwhNwCRktIAgPpCHDiV+ffu1PexCt6tRQR66/buYtSrs1GQHzLZk8rJAPD7uuS1O+luDwYAn140MzMW55c8eFHUZXQU0YI2l/e49WgvWncjc1pY5PuZbmO+9rCw77Q4opI2D4+4tg7UFv2yj8mVHr3eEy3I+d/Plgt+wCdmEs+ZeAwAiWlVF+8VPggtuR9aIihklltDwNFafdk007F9yRc6UbZVAKDvZ3LqdKQ2GAXaBi/FH30LnQYAANTzQmAUaBu8VMamMfiZDTXQxwCMHE2iFSEUv6hQeWMFqY7UBqNA2+Cl+CPVOxn3johYQ24AIiWlAQDZhTh5Mfv3vxITU5S5x6aJEb9LG4M+XY37dTXW0UZseiZ7BAAcEB4+lzP1t/hKTKUvCm4f8ezYUl/ye35elbTtkDQ1hBE2Furvrvnq6nARp4VFvp9pNebColqPnlFZuQzGIbDMGGW65TcbAPG5hNwpHDw7AW+CRk+Hd/hPu74dZebOiOcsPX4TXX7ooiDkXmFiGlXqjwI4WquP62ewdCpmcEUCSVvFQMvPlDZ1OlIbjAJtg5fij77uTgNDPS8ERoG2wUtlbBqDn5mGGuxyKZZvi/jk8u9GRXw/K1q5cQYA5OZXnbqcM/bnD5bNXoz88cOFG3nFJbSihzGDTJ+e87G1kjfADgAA7/DlqtYusA/0YraLm4S0zMqlmxnX81aY3zelKxxnBHpqrZ1rjZVE0Cvb5eqg8eKkax9MDXIKBEW1c/7KcO75odmwj5uP5Cg9zgCAxPTKFTuzm41IeBMjvy4qC8tXAxtqsHxDHDyd6d/t1b3Hiqw2pE95Re2Zqzm/r0uSrimVh7+n9tvrfjPGWHIx9b6QpKTj7n8a6pzT/7hKF9MyZOfxbEbpDgoTl1y5+1QOUUoPUyO189uaaOF3OEtOl3Pa6nzu4ikWYWfdXLG5F5QY6nHvvyxRRYRB4E1MebMR8QcvfpFb4rGwKADdrpCF5Utn7sr4SfM+lMvswK4i9qx1IYoo0dflbVnu+Oy8jx/lXvN5BcTEVUdb9VuHPPR0FSloVllZ+8cOBnmpCrNkc7oC25QAgL4u78a/zrai9SAYcgREP2Bp31w3IsRt5SwLpqW39q2Svzu8spi4LH3isk9EKQvL1wgbarB8E4ycEb3lXwbZl/Vk2c/2rZrJJAfQoKmPTuhF35Nb3Zp6owOOUtTGYP6e2rcOeVjS2PtNln/P5NQz4VEuWbnV524qMpJkY6F+96CLv7vsGmMoIpmc6txS79a/Tnf3OznbKeKNAA/NpdPNiVKVcfCigI02WL4F2FCD5etn7OyYM1eyiVKVMaSX6W+zbIlS2nC5MLin8YsQ33M73QNk8jB4JIMXzX11wi77fNeOfIEDCZWVtSG3FYkD6HPgfJ4CQxoDuxm+Puce4IGIMwCAK9N19eqg/+yk6829TTq1QC4Fosuy6eZj+xkRpSqDjTZYvgVkvq8sLF8dOqrZDxZJv27Gx7e5kWyHwox+XY1CL/pe3OPet6uRJIdDV5v0bzEzVru6z/3UNlczhpvHnr5Gd1dVxTh9jUGmOgBYm/Ov73E+vcmRYoczbU1x36WpwR0/0PjpCdeL/zhid2KrD/tX2zRktCF/xQMLyxeOIj0iu9hVjgHQ6TzquVwKpDpSG4wCbYOX4o9U72TcOyJiDbkBiJSUBgCSC/H2fcmSvxKv3lXtPfWXSTZ/LXbAy6icDLT9nJpRef5G/s3/BMN6m4wZaErt59z86mlLEs/foPvH8vnc/FeBpGkN8v1M1Zgzc6pt2r0lSkngcjnf9zPatMhWX5fwFIT5ACEAwLajOc/flvZoq9e3k4G+rsx6XZnzoelnLBN+Tzt0kVmQxJSxfQ2XTTMVVwVlOw2ZAylSMYkBSDTkBiBSUhoAqP5CYBRoG7xUxqYx+JnpYleSzoUSNtSQYwCg+sYKUh2pDUaBtsFL8UeqdzLuHRGxhtwAREpKAwDChYhNKPv3eMaBU5m5+XLWLzDF2JC/bZXT0N6ym3ojnJxfUF1QVFNYXFNcUlNdtzGpni7P3IRva6Uu8zcRjwFo+Tk+uWLXsax9Z7LzZTJJZbl7xKN9EMm8g3w/UzXmY5fyx/6aQJTKYGasNm2E6aQhJjYWyCEZzAegPwvhZywPQ4sNdHkBHpiOi2hDPAaAzYdzV+zMKihSci6LgR5vXF+D2aONcaXH2U5D5kCKVExiABINuQGIlJQGAKq/EBgF2gYvlbFpDH5mQw30MQAjR5NoRQjFLypU3lhBqiO1wSjQNngp/kj1Tsa9IyLWkBuASElpAIC8EMUlNdsPfjp5Mevte7rlpakZ0tt060onU/RG5MLE1IrHoUXvY0sjY0qjYssS5NXzMDJQszTjW5qpW1uo21upBwfotgvSM9THTyXQ9nNFpfD01dwdR7Oeh1Nto/rnfLt5kyyIUhHy/UzVmGevTv3naBZRiqFLK/2pw036dzHA7MkiC0aBsnnwsrigqOZNdFlBUe2b6DKRhGiEJ8BDy1CP16G5jqONup+bZoAHqq6JEBLTqyYuSX0Qqpym4u+uOXuUcd32aXhQbRUPlZ8BQOwaKps6HamNHD8Tpfijr7jTwFPPC4FRoG3wUhmbxuBnNtRAHwMwcjSJVoRQ/KJC5Y0VpDpSG4wCbYOX4o9U72TcOyJiDbkBiJSUBgDUF+Lt+5KNu1Mv3Mhlup+7hL5djRfOtA0OIO4UCgBxSeWnr+Seu5YT9k4Jdyl7aw0fd+3R/U2G9zEBUMTPb96XbjuUde5GXmEx4o+dMMR0zxpHolSEfD9TNeYuY2MfvETsQGtuwh/aw3DWGDMXew3p7yf9PRhF3duDF/Iv3isIjy5TSiUMRxv1/p30OwTp9O+EWTpU91n3X5ZsOZobck/BXeL83TXH9TXo30lPZgc1DJRtFQCo/QwA4tOlslHEz3jwUvzRt9BpAABAPS8ERoG2wUtlbBqDn9lQA30MwMjRJFoRQvGLCpU3VpDqSG0wCrQNXoo/Ur2Tce+IiDXkBiBSUhoA0LwQj14U3nksePi84GNCeXqm/DKOgd66ndoYTB5p6eKIeRSu+6iLt/I27/v08LnyCzTt/sNp4lAzAMX9XFMDz94UR34oe/am+PzNfEmM1b29wZU9rhIzHPL9TNWY3bu/i0sWu9TMmD+il5G/p5afu1ZTL2wKZ92/J/09GEXd282Hc+auVf4CZkcb9WXTzcf2MwQg+jkxvepgiOBBaAmdQQ5/d01/d82OzXU6NNd2tOJT/G1i6LVVSoSSHyQo4mc8eCn+6JvqNCgRSn6gwCjQNnipjE1j8DMbaqCPARg5mkQrQih+UaHyxgpSHakNRoG2wUvxR6p3Mu4dEbGG3ABESkoDAAUuRFFxjZ4ur6S09t4Twcvw4oTksk9ZlbW1oKvD83LVbu6n26m1AaY6J+YfC+HaPcGCPxLff6zX/m1kNLHTjL3nLz5Qhp9raiDyQ9mT10XZuVV21uoTBqM25gA6fib6EMu2I9l5gmp3J42mXtou9hoka3Pq/j3p78H5WYSgsMa5+3ulJ1KIcLRR3zDfagB2hAN/cvdfluIDDrHW313TUI/XUbJ9vFRJ+reJYd5WZRBKfpCgiJ/x4KX4o2+205BBKPmBAqNA2+ClMjaNwc9sqIE+BmDkaBKtCKH4RYXKGytIdaQ2GAXaBi/FH6neybh3RMQacgMQKSkNAFR/IcSK3PzqX1YkHA9RYfWOvX86jR9Stzdp4/JzPX0IUh2pDUaBebtye+bK7QruNkeHAZ31/11pW5dXQXJyyvEhqL6tgsJ+xoCX4o/YTqMOoeQHCowCbYOXytg0Bj8zDTVkUpNYWFgY8jK82LdbmErjjEBvHWmcwVLH0hkWyFqiyuLC3ULnXjFvouVk8rKwsFCDzJlnYWGhy4Nnhf1/eF9SqpJhfBFamtyDG5yJUkoEhTXh70sBIPx9qaCwGgAKimrevEfP7Bjq8X4aa96hhSKV1OXy4EXxyn9Iq2E62qg7WKsDCA31ef4eWiAEf3ct4nIbSv5dY998SAxRqjwEhTVdJif8v717j4uqzv8H/p4rd1AhQQFRAS+ZgqVm0q6VpVu75aq531833a/13bXa2kpza7ttfdtLZZd1W7tstRtWKiQKXgHxkoJ3ZdS8Yl8STTAJhGEGmDlzfn+cw8w5Z845MMMcmLHX89HYnM/7zTDzOcOZ93w+5/LWwgFzp/t8JlYA4KDUAPDfmuIfZs8/IW0NtM/ezrg6o5Pv7tv3NluO2yzHbdXn2rbv8flAiTkzvM8IEhiNTcz2vTJHoHC2Sxt4kydEDx5ozhoRkTUiYrLSCT+IiCh7RPjHrw568Pmz0kDgNDYx8148R8TOnd5HGgOALkCpAeCn3FUXH1x4WtoaaLlvZky/Tf4k2dXn2orKGgpLG/yoLSQmT9BkSIOIJk9QKxSUbN9rFVYhkydET78l7q5bYgcny1xEbe4v+27fZ80t7OrZUf0z78XzRIRqA8AP2FcDwB+7Dzb/9pkqaWugffxa+r3TZcYbijY3TLn/eMbNlU+9+m3364y7pvT1ac7CJ31iDXdN6e7H8/a91qf+dj5j6vFxs07lFsrsjPbJn1Mev1/hCJrAeWpxLfbbAPADSg0An1lbXPf87qQfVyvtuvAw/fIlmXNnSXcFzS24lHFT5cyHT3W/wnD7/VxtL5v++znSV+G3yhP2ec+dzZh23LvgeOuZgR+/mippDKzGJubBl76TtgJAZ1BqAPjso+W15y50fqYvv00cG1O5YczsO0TjGZXHbOPuOjpv0Znqc4H81ZMnxGq0Q6jb5AnRk8cH8ldUn2+f99zZcXefkowxzP1l3/1fDtP0mJTKE/ZPCxulrQCgCqUGgM+eeGigpeTaF34/aEB/mV0HuuPGcbEF7w/fmT8qI0106ppXlpwfd9eRymOdn6TSVy/+bqC0SQMv/i5J2tRtlSfs4+4++crSOmFj9ojwA6syP341NW1ggFdN1vDwt54ecGbjMOyuAeArnMJLjG9WiHJY/qZG85PAkCemmCMIyOeIW8VL2ney6J4UH1FOIC6omkCk/Ypgj5yw7bNY9xxqXl/WUHfJz4txxMYYH5iR8MgDScOHhkt+V2OTc1ZAp0uEHp+b+NYfB6m8PKKu9HOX+vCpv5xfskztumt+mzw+etXf00S7m7BERJ8WNuSuadi+v5PrrqlIG2iePC7qpnFR02+J7ROjsLUMmfcqeWKKOYKAfI64VbyEjUYH1v2PHEFAPkfc6pUTDP3s6ym8FP54VKHU6CSBSPs3K3liijmCgHyOuFW8pH0ni+5J8RHlBOKCxq8nVQAAIABJREFUqglE2q8IQYClr0/ZK49ZT56xnzhjP3nGfuy0/HksOKkDw8aOisoeGXnd6Oif3yL4oix4yMYm5tb7j2kxmEFEWSMjy3JH9IlVu6AqUVf6uUt92HiZmfLr05YTdmkwELJHRGz+ZKin2hA8n+rzju37rZYTdsuJ1k7LjsnjovrEGLJGhE8eF5U9IqJPtHDcV+FF8s0KUU7nfUjav1fJE1PMEQTkc8St4iVsNDqw7n/kCALyOeJWr5xg6GeUGvLLRD51tEKUw/I3NZq/WckTU8wRBORzxK3iJe07WXRPio8oJxAXVE0g0n5FCAJyOdXnWmu+a3O5+MWIMH1crLFPrCExgb/Cp0o/a1pnxMUYDxSO6jh21Os5CHXez13tw+rz7dfNPKHRVUtE1YbX83H3c2OTq/KknUiac9N48VVLOKIcrwfl8M0KUU7nfUjav1fJE1PMEQTkc8St4iWVN7PSMpGkTS6BhM0KCeSOKCcQF1RNINJ+RQgC8jniVq+cYOhnlBryy0Q+dbRClMPyNzWav1nJE1PMEQTkc8St4iXtO1l0T4qPKCcQF1RNINJ+RQgC8jniVq8clX7WaOcMIoqLMZZ9Njx7ZGSA+tmHPqw8YZ8y97RG1cbk8dFl/x5KJPN8VfpZaZlI0iaXQO5mhSin8z4k7d+r5Ikp5ggC8jniVvGS9p0suifFR5QTiAuqJhBpvyIEAfkccatXTjD0s6+lBnYLBQhGT736rUZ1RtbIyAOFo7JHyn2J1172iIiyTzOzRmhykMj2fdan/oaDUQGCDkoNgKBTWNqw5D+K1w3pjjkzEsqWjRicEuCjM3ySPSKi7D+Z3T+vl6wln13avk+TEg0A/IZSAyC4NDYxC/5cLW3ttrTksFVLMz95bYh2Jwbtuj6xhoJ/DFn1j6EBPySViB58vqaxSZMJGgDwD0oNgOCy5D8XAnuSrrTksI//NuRA4ajpt2oykOC36VPiDhSMePOZlMAWHNXn25d8dknaCgC9B7uFivHNClEOy9/UaL5jEXliijmCgHyOuFW8pH0ni+5J8RHlBOKCqglE2q8IQUA+R9zqlSPp58YmJmPyIe6y790UF2Ocfmvf6bf1UaswAtPP3exDImILyy5z/wVkj9E+sYaqjdxxvDzt388KUU7nfUjav1fJE1PMEQTkc8St4iXtO1l0T4qPKCcQF1RNINJ+RQgC8jniVq+cYOhnX3cLxZVdAYLLm8+lWY7bLMdbKo/ZLjf7VnPExRizR0ZOvj4ma2Tk9Fvd14NV3moEjelT4qZPiWu8zGzfZ7WcsG/fZ92+r5NzYHiLizFkj4jIGh6u0W6nAOAfjGqI8c0KUQ7L39RoXheTJ6aYIwjI54hbxUvad7LonhQfUU4gLqiaQKT9ihAE5HPErV45nfZz5bGWy81M9bm2b88LZlVEOWzWyMg+sca05DDR/p6eHK9f4cZHlBOIC6omUDf7kDwxcU5jE2M5YW9sZlRO/JU1PKJPrCEuRp89QrBR8vpdnfaz9zKRtJ+FCx6B6UPS/r1KSv0sIAjI54hbxUvad7LonhQfUU4gLqiaQKT9ihAE5HPErV45wdDPvo5qoNQQ45sVohyWv6nR/M1KnphijiAgnyNuFS9p38mie1J8RDmBuKBqApH2K0IQ8MqpvaQrLdefqdFZbfwfWnQkO2msa1K2KzqSz74i+rmbfUiemGKOICCfI271ypH0s9WmrzhirjpnOHOeH9lNT3ZmpDgnjW6Pjug44RpJHsfrQTmB6UPS/r1KWvfzFfFmJu1XhCAgnyNu9coJhn72tdTABApA4FWd1b2/wmg5wVcYUZGUnsoePqkj0pUf1BPRnOnMjFsZd8EBPcZq0y9dHVm8O8zdEhXBtth1laf5jeG069vm/MyWFB+AXUYAgINSAyDAincaFn9iIKKpOa5JY5mcaz3fkq0tuvJD+tWlhtxCQ0m54aVHHZmD8JHWc6rOGV/6KKa2Xp+ezMy6yZ6V4XSXFFa7rvywuXhPWPGesPIj5qfvtd44JpDHAQH8mGECRYxvVohyWP6mRvMhOPLEFHMEAfkccat4SftOFt2T4iPKCcQFVROItF8RggBLRFRQanhvuSE9lV34oDNjECv9yY6lglLDeyuM0ZG0+On2jEGCEXtBjtIykaRNLoGEzQoJ5I4oJxAXVE2gbvYheWKKOYKAfI641StHR2zVOeOCf8SyLD06q2Xa9W1eOfxy5WnTix/Ftth1i+6zTpvQ6p0gFZg+JO3fq6R1P2Oj0YF1/yNHEJDPEbd65QRDP/s6gYLzagAEjOWEnqszFv+BqzMUzbyNWTjPabXR4n/z110Drb3xeTTL0luPN027Xm24IjvT8eGixsR+rqWro6rOYdwXIABQagAEzOJPjFGRtPgPTslOGLWXdKtLjcsKje79Q4loWg7zwF1M1VldcXnvn77zile8J6zqnGHu7faMFM/xw1a7PndjZMnecKtdtCVMimcW3ddsteneWB4jbAcA/6BmBwiM8oP62ku0cJ50Z89lhcbcQr6YuCHbJRztmHkbU1BqKD9kmJbT03tsVNXoW+w6y0nuifFPKTqS0lOYrGGBeTKW08a6en1tfUd1xRIRZaQyURFserK0l7RWsC0isZ9r1s2ig2YrTxs/3RhBRNGRkbMm2+fcbnOHsjMdUye0lewNqzpnFFYnAOAHlBoAgVFxSE9Ewp1AiWjpcuPqUkN6KjvjNiZrhCspXvT5Gh3JZo1wcT+otdpL+sOnDZaTesspQ+2lTnbSykh1TZ3knJTlTIoX70fSmdp6fYXFVG4xWk51MlSTFM+mpzBZw5xjMp098Fledc4w8ybhjhdERDeOaf9g0eUz5w2fboz8dGMkSzRXUG1Mu761ZG/Yqu0Rf7ivWfBDAOAzlBoAgfFNjW7McFb4Zb32ko6rM95/uZ1v8vomn5GqbalhOWmosBgsJ/VVNfxvSYxnJ2UzGakuIkpPcUVHsO6nZbXrztToq2oMllOGpSvNS1ea59zZPvNmR1dGIKw23bINYavKzMT9iixnhmeAhI2KYFtsOuJ+xTlDbb3+zDl9ucVYbjESUVK8a+rE9qkT25P6+VbZdJHltImIZB88I8WZkeLMGeP4zWtxuRsjp01ocx+Tkp3pIKK6HzRcOwA/Eig1AAKj6qxu0ljRh1lJuZ6IHpiu+Vd2b1abrqTCWFBm5AYwEuPZmVMcWcNd6SmupATvU1R5KomcbP5OcYWpoMyUu9ZcUmH603x7RqrarEpVjeFPH0TW1uuyMpmZt7TnZDvEcdb9DxHlZPFRq01nOW0st5gspwy568Nz14dnpDAzb2mbNLpLxU0ARUe45t5ue/3z6PIj5lk3eSZZ0pOZM99hIwnQXfgrAtCK5YTMlIqEe7AhUCwnDQVlxvJDBuIrDOfUSQ5uDMMn0yY5pk1y5K41564zL3w7cvGTNqVqo6rGsPCdKJZlH57dOuuWjvGbLoiOZHOyHDlZDiK26pyhYEtYucX0em4kEU2b2D7j5raMFPnf6KuoCJaIalXHJxL7MURktYumlqIjXGfOdzITBACdQqkBEBjpqazwABMiSkpgD5/U1V7SJSXIf0e32nSHT+olYyF+s5w05K41WU7qiShrmGvmrY6cbH7+Qpzogzl3tifGs298GrY4N/z951qkYSKrTbc4N4Jl2TeVa5GuyEhhFs2xWVt05YdNuevDi3ebi3ebs4Y559zemjWsu8NCGSnOqAi24oj50VkyL4FT94NMSVHXYEhP9v9FAQAHpQZAYERF0jc1olJjzHC2pJwsJ/RJN8p/XBWUGqw2yhkrH+26kgpj7loTN1cydRIz505HUoKrKwVGbb2+wmIorzTU1eujI9jEeDYn2zn1BtH0x7QbHHX1utx15lVl5llTpIMWBVvMVTX6h2e3etcZJbvN5RZjXb2eiBLjXVmZzqnXt6vPjERHstMmtk+b2G45ZSzeYy7ZbV5wKrqj4JBMyvgmZ0x7yZ6wVVsjJAehuFWeNhFRzmjPC7Ta9bX1emELAPgHpQZAYORc6zp80lB1Vuc+nDXnWtd7KwzvrzBmjXB5D2wUlxuWFRnSU9nuHOlaUmHMXWusvaSLiqA5dzpm3io9pYeK4grje3lhVhsRUVQE1V7SVdVQeaWheJfx5fmtwseZeUt78S7T6i3SUsNq0xVsMaenuCTzJlU1hsXLIri5oaxMhogqTxrKK42568OffsDm3ldDRdYwZ9Yw55w7WnM3hAek4Hh0pq38sDl3U0RWpsP7gJedh80le8PSkxlhqPywmYiyMvz8jQDgJjNm2Kknfp8ZE92bNUonB+pBIKCTfdU3llaXGhwOnXvnDLOJUpNcJeWG0nJDvzhK7yhBai/p3l9hWlZkiIqgNxe1R0d6HqTrLCcNC98MK64wsKzuntsdz/+mffw1jLnLpx4trjC+8Z+wvrHsI79qX/Trtrl3ts+5s33qJKfVpquoNO4/ZrxpnNP9aGYTW1ev33fMMCmL6RfnKUG27jdt2298aIZopwqrTTf/r9G19bo5P297eb79zp+2T7uh/Z5pbYn92H3HjCW7zYn9WO8hEFnczhxTJ7Zb7boKi6lkj9lSZUrqx/p6CC4RhZnY8SMdxXvCCraF63S69GTGbOJfSMne8HfyokxGeuWhpn6xnkd+44uYH5r0z//a6s4Eddho9Ixg6OfLLew7BdKjx1X485xxDZROEoi0P4s+eWKKOYKAfI64VbykfSeL7knxEeUE4oKqCUTarwhBgKUFr5kOn9Qte90hGMNgi3ca3lthbLERESUlUO0lPjBmOPvw/3PKXG5N+ruky5aThtwiI7dPhme6xJtyP1tOGha8GZ6e6nrzKW70QpSwNC+soMw05xftc+5sJ+L72XLKuOCtiDm/aJ/zC89ZvV//NLxkl2nNW83REZ5HeP3TiJLdJvEuonwfVp0zvPR+ZN0P+vf/aBXv8tnx49Jn6sbW1utzN0SU7DYTUVamc84drVmZwvEG8U96PQ73fq46Z3zxXzHc8avZmU4iqjpvsNp0URHsovtE11fbeTjspY9ipk5oE5xUw+tBOXyzQpTD8jc1mr9XqSv9LHtXQK2fsdHowLr/kSMIyOeIW71ygqGffb0GCkoNMb5ZIcph+Zsazd+s5Ikp5ggC8jniVvGS9p0suifFR5QTiAuqJhBpvyIEAZZqL+keWGTKGsEuXuT+FGSJqPaSrqDUcOas/sxZXfogNimBnTSWyRnrIh/7Wa7IYL1/gOdplibM/9+IC5f0n//V1lEiSBPu+2NUi1235m1rR5Alolvnx0hKjQVvRVpOGTa/3+R+AKtN98sFMYnx7OevCk975enDqnOG+X+JzhrGvPmEVZog+L8XPlBbr89dH1Gyx7vgEP+k1+MI+7l4T1j5YbPVpq/9QZ/Uz5Uzpn3a9W3REYKBGbv+t6/3abbpPlzUmNTP3e71oBy+WSHK6ehDNZq/V6nr/Sy5K6DWzz69mT1EbXIJJGxWSCB3RDmBuKBqApH2K0IQkM8Rt3rlBEM/+1pq9OY8CMAVJimBnXGba3WpfvEnxoXzPLP+SQnsI/c4idT+ftUJi4ys4a45dzqzhnsNh3RNVY2+qkY/c4ojOlJxi5k1jCnZZayqMUhmOjxnGe8gmf05c85ARNMmKu5KmZHCTJ3oKNltqq3X+zEPkhTvWvRAy5w77LkbIkr2mBf8Pbqj4FD8jd6mXd8md2VXj6UFUbX1+kdmtgjqDADwH0oNgEB65B7n4ROm4p16IlG14TdpkXGXM2s4o/Ix2amKSiMRdRwHK48rArhJHw53HK/kxOpExO1V6pOsTGfJbpPllDHpBh/qAyF3wfHGZ1GW08aOgsMunlLx0+ufxxTvCZs6oW3WTfbu9DMAuKHUAAiwxX9wLnzNWLxTb7WZFs7z88SXVpuuolJfsNlYdVZHwiIjQNQfqqrGQETpghN/cdc04c6F5ZYY7yIy1Nbr3ef85hIkJ8KS4OqY7p/wOyne9ebvm/l9OPaYF/w9JiOFmXlz61TVa8SrqK03vPFFdOVpU87o9j/cj+ueAAQMSg2AAIuOZN9/2fHGx8aScr3lhPnhe5xTfTmc1XJSX1JhKD9k4AYMpk5ipuUw6pWBTzodh+Aum5I1THTxVe5iJTnZonGanCxnyS5TeaXRvQdoRiqTGM8WbDFPnehQP8xEUrX4zT3CUbLHvGpr+OvLopauiswZ48gZ0z7Jl1NiFGyP+HRjpNWmmzqhDXUGQGCh1ADQxNMPOscMNywr1L/xsfG95capNzI5Y11jhsnvnVB1Vv/NOZ3lhN5yUu+5asmtzNRJjPzRJd3A7V1RVaP3Plu55ZShotK4qswUFUEP/0pwMiubrmSXKTFeepRp1jAmKoJdvSVMeF6NRXPsC96OXPhO1Jyft43JdHoXHLX1eiIK1EnHOUnxzJw77DNvai3YFl68O4w72Wh0JJszxpGe7ByT4cxMkZ9bsVSZyg+bi/eGccehvPxQs/A4FAAICJQaAFqZdiMz7UZn8U7DskJDQYmhoMRARBmD2CjBrpQtNuKmSDjpqXyFkTFIWgcEStYwhshUUmHM+C/Rl/4Xl0ZUWPgrp7z8sOjsn+/lhxOR8NgTTnQkO2uKI3ededUWs7vayBrmfPm39tdzw5fmhxGFPTy7ddYtoh8sP2yKimDTA1pqcKIj2Tl32OfcYa+qMZbsMZcfNhfvNhOZuWhGCiM8KNdq11Wd408slNjPNedntmnXt0VHaNXtAD9mKDUAtDXtRmbajUztJZ3lhL7ikN5q07EsHT7JD10kJbBZw9ms4a70QWx6qispQfGokEDJGs4kxrMlu0wzpziFoxTTJjkyUpn0VJdklmRVmbl4lzE9xTVNfMJyzsxb2ssrje/lh2ekuNwXK8nJdnw+zGk5ZTxzTs+dLdTNcspYYTHOvLmTM5R3E3dp+Edm2WrrDZYqY1293nLaZLXrKk97tnjpyUzO6PasTGdWBnf+UA2fD8CPnNreW0pwXo1OEoi0PzKbPDHFHEFAPkfcKl7SvpNF96T4iHICcUHVBCLtV4QgIJ8jbvXK6ZV+Lq80vrQ0LCPVtVjuFF5C7+WFrSozJcazHzzXolQcVNXoF7wVqdPpHr67dZr8QSV8H1adMyx8J5pl2Q/+aBXPxXQ8svxvoFDoZ4Uoh+VvajR/r5InppgjCMjniFvFS9p3suieFB9RTiAuqJpApP2KEATkc8StXjnB0M++nlcDJyYHeejkntEr/TwoyRUVQSW7jOt2mPrFUbrX7hREVLLL9Man4eWVxvQU13MPtarsMtIvzjX+aqbcYirZbbKcNiZ57dJBRFabbkVJ+N9XRFpt9I9FLYOSpAla65V+/rFBJ/eMYOhnnJhcfpnIp5pOIcph+Zsazeti8sQUcwQB+Rxxq3hJ+04W3ZPiI8oJxAVVE4i0XxGCgHyOuNUrpxf7ubjCuHRlWIudkhLYrGFMYkd9UFevL680cgeqzJzimPPz9uhI9cqAJZasNt3S/PCS3SYiSopns4Y53Q9oOWU8c85gtVFiP9eiOXa5i8J3PEP5Z0qh0M8KUQ7L39Ro/l4lT0wxRxCQzxG3ipe072TRPSk+opxAXFA1gUj7FSEIyOeIW71ygqGffR3VQKkhxjcrRDksf1Oj+ZuVPDHFHEFAPkfcKl7SvpNF96T4iHICcUHVBCLtV4QgIJ8jbvXK6d1+trboCspMxbuMdeLTgKanuLKGMzOnOJLiuYvRKz4CEQn7sLZeX7DFXG4xeT0gM3WiQ7J/qEDHzyv+nuDvZ4Uop/M+JO3fq+SJKeYIAvI54lbxkvadLLonxUeUE4gLqiYQab8iBAH5HHGrV04w9DNKDfllIp86WiHKYfmbGs3frOSJKeYIAvI54lbxkvadLLonxUeUE4gLqiYQab8iBAH5HHGrV06Q9LPVpjtTw59TS3oOD5a/KZPpw9p6fV19xwNyV373yhHoiCnmCALyOeJWrxzt+1khymH5mxrN36vkiSnmCALyOeJW8ZL2nSy6J8VHlBOIC6omEGm/IgQB+Rxxq1dOMPSzr6VGb+5yAQBBIjqSlVYY3ZMU7/LeYwMAfpy6e25gAAAAABUoNQAAAEBDKDUAAABAQyg1AAAAQEMoNQAAAEBDKDUAAABAQyg1AAAAQEMoNQAAAEBDKDUAAABAQyg1AAAAQEMoNQAAAEBDKDUAAABAQyg1AAAAQEMoNQAAAEBDKDUAAABAQyg1AAAAQEMoNQAAAEBDKDUAAABAQyg1AAAAQEMoNQAAAEBDKDUAAABAQyg1AAAAQEMoNQAAAEBDKDUAAABAQyg1AAAAQEMoNQAAAEBDKDUAAABAQyg1AAAAQEMoNQAAAEBDKDUAAABAQyg1AAAAQEMoNQAAAEBDKDUAAABAQyg1AAAAQEMoNQAAAEBDKDUAAABAQyg1AAAAQEMoNQAAAEBDKDUAAABAQyg1AAAAQEMoNQAAAEBDKDUAAABAQyg1AAAAQEMoNQAAAEBDKDUAAABAQyg1AAAAQEMoNQAAAEBDKDUAAABAQyg1AAAAQEMoNQAAAEBDKDUAAABAQyg1AAAAQEMoNQAAAEBDKDUAAABAQyg1rhD7DzVJm0LZmW/tzVZG2hrKjlfZpU2hrPL4lfVyTrRKm0JZ5ck2aVMoO3SqXdoEoQalxhXiraXVh79ulraGrBVrLhaVXJK2hqzCkh+WFXwvbQ1ZNRccz799XtoashxO9oFna6StoezRv11saHJJW0PWP79sLj98RRVPP0IoNa4Edrtrfen3+YV10kDI+uzL2vy1F6WtIStvXf2KoiunclpWWF9a3tTccoV8mG3caT12pnWX5QoZp6mpc+4+Yv9y8xXyxcPhpPwtLSs3t0gDEFJQalwJ1m66aLczX3z5nTQQmr4+2VJVbS/Z3nBlzKHYW11rNzfUfNe2z2KVxkJT/oYfGIbN39ggDYSmvE2NRJRXfFkaCE1fbGwmorzSK6TUKN5jb25x5W9pYVlpCEIISo0rQd6aWiKqOd96oPJK2GMjr+giETkcrlUbroRJh3VlDfZWhojy1tVLYyGo6tu2I6fsRJS38QdpLATZW9k1W5qIaOXGxivjw4wrMrbut18Zcyh5m1uIqO4HZtvBK2p/mh8blBohr9nKbCzjB+fzC2vFwZDElRpElF90JZQa+ev5CmN54ZUwh/LFWr7C2Lq7ueFyyA87rd/RbG91EVFdvXPHQZs0HGqqahyVJ1uJiGXZ5ZtC/ouHw0mFO/iVkleGOZQQhlIj5K1ZX+dw8F9froBS4+ARa9X/8bPmZTsbGi47xfEQ02xl1pXxEw11l9orDoT8sLa71GAYNi/051C42ZOO+yE/h7Ki2PMGyysN+Qm7deU29y5BeVtsTMhXtj9eKDVCnrC8qDnfuudAaG8uhXuDMgy7an1oD2ysLWtwF4IkGOEIUYdP2qu+9Yxj54f4HIq9ld2ww/PZvCL051CWrfOMZOystNfVh/aHMzd7wmloYsoOYA4lVKHUCG0Njc7SbaJPr/w1oT2wsXKN6MCT/LWhXWrki/fPyF9fH9IfZvkbRMMY2/da6y6F8LDTmi1N3OwJp6GJ2bovhEfpvz7TXlXjOQUFy7IrS0J4FM3exhbtEB0WJKw8ILSg1AhtBWvrGEb02bVydW3ofpjtOdhU853oi8vW8sbQnUNptjLFX3nG54mo7lL7jr0hPIP+WZGocmJZ9sviEJ5DWSmYPeGE9ByKd2ER0sehFO2w2dtEe7bmb21xhOrG4McOpUZo8945o+77tvI90g1oqHDvEOrGsuzKQmljqFi1qV44e8LJC9k5lP1HbTUXpOdtzN8QqnMozS2uTeXST+IvSy6H7g4BKwU7anB2HbbX1IXqh3PeZuleus0truI9V8jpT35sUGqEsIZG59YdMht67/ojJLAsyVYVeSF7HIpk9oSTt+5SiH6YSWZPOOUHW0J0DmVV6WWHQzoA2NDEbN4dkntTHjrRJpw9ccvzGuoICc02dl25tNQgorwymUYIfig1QtiKggus3GRJwdo6ueZgt3PP5brvZbaVO/dervveIW0Neg2XnWXlMsNLDZed23aH5Ci97Ik0WJZdvk6mPfgpnbNLqT3IKc2VKLUHucKvbA6nzFascIcNcyihCKVGCFPaA7Tu+7Zt5aG39c9TOBM5y7LeEyvBb9WGesluNG6heBzKrsoW79kTTiieNlRl9GJVaZPsh1yQUzqLxv5jraE4h6J0Fo3mFte6csyhhB6UGqGq7vt2lX0ylKqQoMUwavtk5IXgcSh56xVP2FWwqT7k5lBkZ084eywtNRdCbNgpv/iyUiHY3MIUl8tXIUFr79HWmlrFVfD5BvkqJGg129ji3Yr1hFIVAsEMpUaoWrFKfvaEs8rryJQgt62isaFRcVu5+8Dlmu9C6dKOdZcc23Ypbt8bLjtLdyqWiUGIZWml6u6fK1SjQUj9SJOQm0NRnyVRjwahL7e0qAwsFe2w29sUoxCcjNIG6A37D11uaHQ6GZfTyTIMyzAsd8fpZJ1Ol5NhGYacTpfTyTIurpFdseqC9FEEGhodjz9zInlguNGgMxh0RoPOaNTx9z13iFvkEwy60VdH908wSx/Ld8dP285faHU6Waf7hXB3XKzTyTJOz31nx4st/aqTz6onX6waOzpa9EIMOqNRp9cT12I06gx6ndHouZOeFj4kNUz6QL47e77t1Dd2p5NlGBK+EO6+y/NCyP2KDh+3qRSCRPSXf547cMRq0OuMRhI9eYPO4H5F/Msko1Fn0NOARPM1wyKkD+S7+gZn5XGb08k6GeLfY9xa4FcTCVYN/3ov1jvqLikWgkT0cX59axtrNJD7vWQ0kucVGchoIP4Vdby6iAj9jddGSR/IL2W7rIzL/R4jp7Pj+XP3GZZxEcPfYZ1OcjjZrXvVxi2Ktja/8t5Fz1rgnzMZ9PzKMhrIoNeP5eMQAAAaE0lEQVQZOu4YDWQ00JTrA/Nytu23tTk6Op8hF79qiF9NTuJfCP9+I8bVyTnILafaXnivPtzMPU/Bczbq+FdkIP5PyUAd60s34eqw2KgAfBc9dLL9+0aGe578Xw1DjIt7ddzLJH7FdbzSgq1q4xb2Ntcjb/yQnmLkVw33igw6I3+f5f9q+CifMGqIaUCCQfpY0FN00oYuqD5zx4DEcGmrR8cWVnFLKwjI54hbvXJ03k3SBukykaRNLoHczQpRDsvf1Kh+zBARESt8jJNVLXc/cPBkldofmKb0et1zTw557qmh+o5tS3c6+dIPjnvmH91Wrjjk3gNm/+Kqj94cHhne6TtctCLksG1t7BMvffPRit6ck7pxXMzKdzMTE0z8sg9vZtE9ImJZeu3DC3/6+3mn8hdHraUPCit4d+ioDPdmpOOZKD4jQcArp7Csae6zZ622XpuU6htr+OK1lKk3KJcaLH9T07HR2H2k9e6F5y5832s7WISH6d98ImH+rFhpgEj6KsRLshuN6gvOGYvqLKd7bVRSp9MtvDfmz7/tYzT4tiKUdb7RcP8jR+3NTETSVq8c2X5WXyaStMklkLBZIYH4yNmLTNp9PmzhO90Qy0Cp0UkCkR9v1tZW1xPPHv/ksxpRa49IvCpsxUejcyb0ETZ2s5NZll77R/WfFv9fz8/jREYYlryaMXd2IpE/K8ILy/1TWPLDr586ZW3p6c8zvV733KPJLzyW7K4CiXx6M4vuue2ubJn9u6oLF+X39NTU7J/1/fjPgyIj5F6PzDPlCAJyOdXn22c9Xm05qTjBr50bx0ateD1lwFWq35hZ/qZG8F5taHLd++z5kl298N0jPcW0+s0Bo4aaFZ6vuFW8pLTRcDjp6SX1S/J6YVqqb6x++csJUyd0fGD5uCIUdHWjoaCTN7O01StHqZ9VlokkbXIJJGxWSCA+glJDfpnIp45WiHJY/qbG3zfrl4W1Dz1+xNaD389uyun3xYejE+JNkucTkE7ec7Bp9kNHL9T13BeaUcOiVn5w9fD0jokGf1eEAOv+p/pc292/OW453nMfAIkJ5pXvZtw4LkYaEPezcMHD0yyf0HCZuffJM6U7e+4DIDJCv+T51F/P6CcNuJ+h/DMlUUA+h3U42affuPDu54p74wacXq/74/8kvPTb/no9KT0tHsvf1Hi9V9/5vOGZJRe9T/6hndm3xXzyYn9+LFD+14pbxUvqG4315bb7X7p42So9qZ12bswKX/lKvGjexK8V4cWHjYYcQUA+R62TqbN+ll0mkrTJJZCwWSGB+IivpUYApuIggO6ennRgW86Ya2SHLgPMaNS/+lxG8ZfXJsR3DMsH2vXXxlq2TLhtsvdHiyYeunfAnvXXeuqMQBucErarMOuRuQOkAW3cNDHOsmGMTJ0RIH3jDBs/Hrb42UEmU09sB4YPCd/35Qi5OiMwTEbdO88OLFo6JC5GdYAhQBLjjVs/GfzyI1ydoYkn7utb/p+0wQO1+vMUigzXf/xi4oq/JHZhztFPP8+JPPx5ynUjArD7VKf0et0L/x237d3+2D8jSPizGp74fWZMdG/uT6rVn0Jw6NfX9N/3pTQ0OvYf0vDr5oDEsPUrxv7XL5N0Cr2p0OyziHD9fbOSYmOM2yoaXS7lSrl7oqMMXyy9esH8FKMxUE9cnsGgu/2mvuPGxGzc1tAmvkBDABmNuleeGvTBn4dGRWr2OdZhYnb07T+NK95xucmq4Vjag3cnrP7n0KQEzbcbmWlh9/6i784Dtgtanvbt5glRZR8NGTFE80/NgVcZH/xlnxP/136iWsOpruFp5i0fpNw6IVIa8FGnf3tx0bp5d8a0ttOuIxqOdCb2M2x486q5t0cpbdxCXTC8rMst7DsFPlxo15/njAmUThKIAjIEt6H0+7nzj1xuCvwW87ab4j97f0zfPuJCU/x8At7JBw833/3gUcnV1AIi6+roL/81arDswSaBWBHuf4RqvmufPf/4gSNqBzL4Z0B/c/7SYROzozsavH43qfWzh6dZIYHcEfZyMzPvmerCzT6MiHZRdJThX/87aPbtfVSehecZKuYIAvI5olang577+4W3Pr2kfhyQHwwG3cuP9H/mwQTPx1hHH3Ysy2H5mxrVp/peXuOCty62tQe+un3wl3FLFl4VHsa9Ht/6WbLU9Y1GyR77PS9839AU+Or25uvCV76SkNBHoUbv9oogIiI/NxodutXJ5Es/i4ja5BJI2KyQQHzE1wkUlBpifLNClMPyNzUBerPWnGud/evKg5aADW+Yzfq/PJ/5+G8GEZH0VYiXtOjky03OOY8d37A5kLPpj/538hvPDzWZFN7JAVoRsjlOJ/vH179956PvAvh5dttP+nzxTmbfOGEVKPfgqv3M8zQrJJA7wv/vvS++X/jXmgB+nmWNiFz17tDBySYitWfhiSnmCALyOeJWloiotMJ676KzAbwy8ICrTF++lTpxjHiGTtyH8lj+pqazd9HXZ9pmPHX+jNyFTvwTHan/6IXE2be6i1ryr5/dfNpoXLjEzHrm4u6jAfvuYTDoXn6oz7MPxKgNZgRiRRD5v9Egom52MvnYzx6iNrkEEjYrJBAf8bXUwARKUIuLMf763uQWG7PnQACqjcGpEcVfjrvr9qukATladHJ4mP6eGYlX9TNvKW/o/pEpcbHGvPevfmxessGgxZPtnF6vu+0ncROvjdmwpaG125MpZrP+9WfT/vHy4IgwhS9k2hs/OuqXt/Ut3dkUkI/nR+/rn/f3IfF9em1bkZ5qfuDOvrsqbefqAjA0OHVSdNlHgzMHBeDEM/7p38/w4C/7VNU4jn0TgNmHrGFh2z5IzclS+dLoM5/+DmMi9b/+eQzL0s7DbZ1/uHdmQIJx09uJ99wWqVZnXCmC4SViAkV+mcinmk4hymH5m5rO/3R8q4tLt9Xf/xuLyvk0OzX99v7/fvea6Cjlr8viJU072XLM+l+/OXqm2v9DE68bE5P/4ajUgZ1t9wO9IrywRHThomP2/BN7Dvl/TsbBKWGr3h+eNTKSyPt3SZeJutrP3vek+IgowWZ3Pfhsdb7cxdW6KC7GsOyNIXdMdu/drN6H5Ikp5ggC8jniVsESw9DLS+v+9tFFv3cVMpl0f/190pMPKOzQKteHUix/U9Pl9+onay4//sZFe6v/1e2jv+rz5pNXmWSKQP/7mfzdaGzd33rvixfrfvB/MmXq9RHLX0noG83V6DK/wiOgK0IZ6/5HTrc6mfztZ3GbXAIJmxUSiI/4OqrRa9+fwCe33RRfuSPn+nGiU190UXi44d3XRub/O0tcZ/SmrKujD5ZOmH1nf2mgC3Q63YL5qTsLx6YOlNs5ozcM6G/anj/6mUdS9Hp/avfpU/tVbsji64wgEBmhX/7O0A//PDgi3J/tw3WjIisLrxbUGb3MYKBXHkss+deQhL4yH62dSk0yleemP/lAvDTQe+b9Mu7A52nDB3dWZ8uJizYUvZO85GnZOqN33Hxd+JHPU26+zp8Dx0xG3eLH+216u3/fGH/eq9BjsHpCxoDEsMf+J03a2gVJ/c2/mZsibe1tkRH6557w5+Xo9fTHx9O0PtLEVwYDvfB4arhfcx9/mD8wOhBngA6seXcnZKapDF4q+u09V6UO6InjM31y84So2yYJd0roqhlT4q672p9+0NTwwea5d8ZJW7vgupFhP78xWIpat4Q++ifv8eflxEbpn/wvrY4GhwAKug0cqCjcqHjtUxXVZ+1fnwj8gRLdV1Tsz/6hDMNu2BKMF2Ev/qrRZvdnEHitBsd9dF/1+fbDJ23S1i4oKgvAfkUBxzC0frs/M1z5JcH4coiocJs/f9TbD9qbWvyfedFO0Vf+nBmv/jKz5+uA7ScL2kGpETIYhl1f4k+pQUSFG4PxIuxFJX5WDEXFfv6gptaW+rlzQ2FpMJYahZv9vPZsSXmTzR50H2Zb91n9O3HIhe8dlpM+7P7WM+obmT1H/NnViWHYtdv9+VDXFMvS6u3+1LVEVLjDzx+EnoRSI2SUffWD3ycsX1scdKXGhbr2/ZVql6NUsX5zfXu78l5LvYFlqWizn6XGsdO26nMBOKYgsIr8HWtpb3eVlPu5ZrVTuMX/p1S0zZ/hEE2tKvNnSINTFHylxq6jbfWX/dy4FX6FUiMEoNQIGWv9mj3hHKi83JMXIukK/2ZPODY7s22Xn9+5NVKxv7m+wf/jgwo2+VmmaKTJyny1rxsfZsE3h7J6czdKja3+/6xGirb7v3Y2lLe09+B1VbqiqBvlwolvHdUX/CxToMeg1AgZRRvrpE2+KAqyOZTC7g20FJX4X6loodDf2RNOsO2usaa0sTvnJVuzubEbPx14B47Zu3Oe8oPH7b14SXdvtla2bK//IxO2VlfZPn8mX7STV+b/yyGi/C3d+nHoASg1QsOByib1YYmpNyfExart9h9UcyhNzUzpdrXP5nFZsUMGqR38Fmy7axSqPp9ByWE3XKe2n/yOfU2XfgiiD7OiMrVBo5gowx03qR0v0GRldhzw/2t3wK3tbFjiVz/r5DDygrJOHqEnbdjZybDErClqbzbq3qBIwJ341lF9Qa0QvGVcxFV91Q7UL9oRXJUTeEOpERoKNygOaURFGd97c9S6FdceKc/5yQ19peEOZV/VNzUHy4fZRuVDSPR63TOPpe1YM7Zy8/h5/0/xGqoX6tr2W4JlBv3rU/ZvziruOXjv9Kssm7K3rrjmT0+mqhyju25LsAxstDvYkp2Kn6yTxkYf3TCq6P2M/7w2JDZa8QOgaHMQzaGo7KgxNMW8f2Xm8tdTd+QOTU5ULNaDag5ljfK+I/F9DOuXpOS9NuBEwZDRGYonnlm1xRo8w04qO1uEh+neeTJ+8z8Sj32R/LOJit89Ko601V8Ouj2RQQilRmgo2iS/o0b26NgDW2948P5kIkrqb968evzrLw83m2VWK8Owxcof8D1srcL0R/KAsG0FY//3D0OMRl1khP6DN4at/uSaPnHyJxvy+wCWgFM69iQ2xpj33vBP386IjtIbDPTcYyk78q9JS5b/APB7N8yAK9nRJHvUrtGo+98nk7d9Ppz7SL5/er9DhVePHx0lzSMiojX+HsAScNXnHUdOyX/rfWhWP8uqYWNHhhPRpOzIo6szZ94qP1qzdV9LkzUoPswYhtbvkJ8vmDIh8mj+4J9NiiSizEGmfZ+lPT23n+xp5eobmb1fKxbHPaxI4RCSkYPNB/4z8PFfxRBRfJx+w1uJ7y6Mlz1tP8uya5TrFQgGMqsNgk31WfsxrxNj6PW6RY8PqSi+fmiap9jX6eiJ+Wm7SyZmDpX5APDvtBwBxzCs7KjGjDuuOrxlwg3jRGeZ/MVt8Ue2jP/J9TLj293ZsTSwZHfUuOG62MPF2TOmic5mPW5MdOXG7LmzZE6Tuml7Y5AcVlNYJlP0DE0N25U38tnfJukF24y0ZPPOFSNe/N0A78vQVJ9vO3IqKD7M1myRGV/pE2tY84/BH7yUHBnheeax0fr8t1L//WpKjNd5dRmGXf+V4lhCT9q63+Z91G6YWf/Wgv4l76X07+d55iYj/e2xhLL3U5ISZIr1wuA4DqX+smv3UenUsE6n+/1/xR7KHThysGic6ZGZMZW5A0any5wmtfAr+WoSggRKjRCwep109iR5QPjWteNffT5TdkD+mpHRB7be8PC8VEn7prJL3b/IWfdt2dkgmcqJjTH+Z8nIvA9HxcZIN/FElNTfXJaf9bfnhkpGa74+1VJdI91I9bwLFx2SqRyjUffyU4O2rbwmOUlmmxgdpf/o9fS8pcNjY0QfAO3trk3be38kgGVldtSYd3dCZdHVY6+WGcE2GOjF3w3YuXy492hN0Rbp4/SKtV6zJz8dF/V14bA7J8vv0DDnrj6WVRnjr5GeUrNQedqiJ3nvZjFySNiBL9J+f6/85OlPr434On/wnT+VninV+3F6RcG2FskOyP37GUqWJL79RD+z3HRWZqpx/78HLLgnVie+rlrJXruttfc3bqAEpUYIKBKPRsz4eaJlZ84N42W+6LuFh+v//tcRa5dfG9/P82nX1OzculPmC2sPKxSPRozLjj1YOu6+mYnCRgmdjhbMT929/trMIaIPgDWben9gQzKPM3RQeMXqMX/8XYrw27+3GdP6Hd6UJdlXNBjmUMoPWusbPIVgn1jjmvcyP3w1LTJC7fWMHx1pKRr5wHTRhULWBsEhr/WNzFcHPF/fw8z6NxcN2PLJUNkv+m5pA03ly4a+ML+/cLRm/VfN6jtj9oyCLZ6KR6fTPXZP34PL00YOkSlq3frE6Ne8NfDjF5OiIz0r8fj/tVd/1/s7b0kOc/3ZxIivv0ieMk7tTPAmI73xWN+t/0xMivd8M2l3sMV7gmIUDWSpbT4gGNT/4KjYy387jIk2fvLu6JX/zpZ8IVYy7ZZ4y44bbvmJ5wNgrcI+Hz3JPfFhNOpeWjBkZ+HYtBS1LYvb6BFRB0uv+5/7B7pbgmF3jSLBuT7/e3bioY3ZY0fJzF55S04yb1txzV8WDTKZ+D/DtWUNvb6z3lrBkMZPx8cc3TDqFzfL774gER2p//ff0vKXDHXvK7r/aEt3DjENiPXbm9xfmkcODT+Qn/HEAwlduc64wUB/eqR/ee7QtI6rB9vsrq37ennS4eCJNvdht/37GYuXpryzsL/Z1IXXQ/Tru2IPLR80doTnb23Vll4e2LC1sqV7+YmPiDD90kUJG95OjI/r0qfST7PDjn0x8E7B9VyKdmJ3jeDVpZUKvWjtpovctnLc2LiD23Pu/5Xng7Yr+ieYN3157Tt/GREebiCiNRt6udTYX9nMHbWblhK+Y821zz+Z5j3NryI8TL/0r5nrlo2J72siop17Lwu/gve8pmamrLyRiPrEGlf/a+SHr6Wrf/uX0Otp0W8HVqy6ZuigcCKqb3Ds3N/Lo/SrihuIyGzWv/6H1LJlw5OukhvFVjbjtj5H1l09aSw/XL+mt49DcR978ui98Qe/zBg5VDrLo278NRGHV2Xc9wt+BLFQMKLQK9zXPfnZpKij+YOnTJDO8qgbmmza/Wnqcw/24/7o/LuKSgBt3GXnBopGp5srlyXPnyE/paWkT4y+8PWrPnwmPipCT0Srt9t6vVIHJT5sFqFXrN100WDQvfB0xo4N16eldunbv7dH5qXuKbl+5LDoC3VtBy3SqeuexJ16a87sAZVlE8Zl+7ZlcZt2U9/DW8bfcmNflmXXbe7NgY1N2xsZhv3J9XFHNo/9xRT5yfJOjR0VWblhzP/ck0i9fS6vY1Wt1efaMgeH71k18ql5iV359u8tOdG07bNhrz6ZbDLpvHf76EntDrZ0V3P/eGPJv4YueXZgF7/9S0RH6nP/nJL/1qDYaEOvn6G8aJs1Ilz/z2cT1/8jJb6PzI5NnTIa6JWH47d9mJLc31hxuLV3jxEt+qpFp9M9fV+f/f9Jzkzt0kitt4fuirbkDhg7zNzU4vqqsvd33gJZKDWCms3GnDjVsmPDxBeeTvfp27+3kcOi9m2e+Phv0nr3XF5bdjbk/euaj98eEe21k79P+ieYir8Ys/jF9OKtMkd/9JiNWxv+9uzgsuWjfP32LxEZoX/v1SFrPhy+paI3hwHWlDY8fG//Q0WjRg+T2QO06/R6euY3iRUrR1Sfb+/FY0SLdzb/5LqoI2uG3zJRulOkr2ZOiT26OmNIsmnf0V470qH6OwdL7KHlg+ffrbafVldMGhN+NC9txs1RvbhzKMPQnq/bti5Neu13fU1+lhm8ocnGPR8PeHZO3FrMoQQrfz69qs/cMSBR5et1xxiW4liWICCfI271ytF5N0kbpMtEkja5BHI3K0Q5LH9T0/lAHtvZY7BEdPFie0SEIUb+REkdP6/4OIKA4O4339o7jo8V/6R4SaNOPnehLSXJPYgtk8DjI8oJxAXZqurWjMHK78YArQilnG/Otg4d1PFy5HPUOpm8+rn2e0dslEE8C+P1M9R5PxMJmxUSSNrP39S0DU31mmJg+ZsyxT5ssbkam5nkRCOR+mN0xBRzBAH5HHErS0RUdbY9YxC/p0Wg3s/V3zkGDxSXlXyO3I+7sfxNTWfv1ZpaRyrXk4pY9z8KOmId/6+qcWSkCl+O4IflH0fcKl7yqZMbmlxE1DdWL86R/gDP06yQQEQsffOdc+hA2a1lB5a/qelsRRApvuE7sO5/5AgC8jniVq8cn/rZQ9Qml0DCZoUE4iNnLzJp9/kwBItSQ4xvVohyWP6mRvM3K3liijmCgHyOuFW8pH0ni+5J8RHlBOKCqglE2q8IQUA+R9zqlXNF9HM3+5A8McUcQUA+R9zqlaN9PytEOSx/U6P5e5U8McUcQUA+R9wqXtK+k0X3pPiIcgJxQdUEIu1XhCAgnyNu9coJhn72tdTABAoAAABoCKUGAAAAaAilBgAAAGgIpQYAAABoCKUGAAAAaAilBgAAAGgIpQYAAABoCKUGAAAAaAilBgAAAGgIpQYAAABoCKUGAAAAaAilBgAAAGgIpQYAAABoCKUGAAAAaAilBgAAAGgIpQYAAABoCKUGAAAAaAilBgAAAGgIpQYAAABoCKUGAAAAaAilBgAAAGgIpQYAAABoCKUGAAAAaAilBgAAAGgIpQYAAABoCKUGAAAAaAilBgAAAGgIpQYAAABoCKUGAAAAaAilBgAAAGgIpQYAAABoCKUGAAAAaAilBgAAAGgIpQYAAABoCKUGAAAAaAilBgAAAGgIpQYAAABoCKUGAAAAaAilBgAAAGgIpQYAAABoCKUGAAAAaAilBgAAAGgIpQYAAABoCKUGAAAAaAilBgAAAGgIpQYAAAAAAAAAAAAAAAAAAAAAAAAAAAAAAAAAAAAAAAAAAAAAAAAAAAAAAAAAAAAAAAAAAAAAAAAAAAAAAAAAAAAAAAAAAADAj97/B96wUOxaexjaAAAAAElFTkSuQmCC;imageWidth=30;imageHeight=30;" vertex="1" parent="3d76a8aef4d5c911-1">
          <mxGeometry x="30" y="-5" width="60" height="60" as="geometry" />
        </mxCell>
        <mxCell id="3d76a8aef4d5c911-11" value="" style="html=1;shadow=0;dashed=0;shape=mxgraph.bootstrap.rrect;rSize=5;strokeColor=#dddddd;rounded=0;fontSize=12;align=center;" parent="1" vertex="1">
          <mxGeometry x="860" y="150" width="330" height="400" as="geometry" />
        </mxCell>
        <mxCell id="3d76a8aef4d5c911-12" value="320x200" style="shape=rect;fontSize=24;fillColor=#f0f0f0;strokeColor=none;fontColor=#999999;whiteSpace=wrap;" parent="3d76a8aef4d5c911-11" vertex="1">
          <mxGeometry x="5" y="5" width="320" height="200" as="geometry" />
        </mxCell>
        <mxCell id="3d76a8aef4d5c911-13" value="Thumbnail label" style="html=1;shadow=0;dashed=0;shape=mxgraph.bootstrap.anchor;fontSize=26;align=left;whiteSpace=wrap;" parent="3d76a8aef4d5c911-11" vertex="1">
          <mxGeometry x="15" y="220" width="300" height="40" as="geometry" />
        </mxCell>
        <mxCell id="3d76a8aef4d5c911-14" value="Cras justo odio, dapibus ac facilisis in, egestas eget quam. Donec id elit non mi porta gravida at eget metus. Nullam id dolor id nibh ultricies vehicula ut id elit." style="html=1;shadow=0;dashed=0;shape=mxgraph.bootstrap.anchor;strokeColor=#dddddd;whiteSpace=wrap;align=left;verticalAlign=top;fontSize=14;whiteSpace=wrap;" parent="3d76a8aef4d5c911-11" vertex="1">
          <mxGeometry x="15" y="260" width="300" height="80" as="geometry" />
        </mxCell>
        <mxCell id="3d76a8aef4d5c911-15" value="Button" style="html=1;shadow=0;dashed=0;shape=mxgraph.bootstrap.rrect;rSize=5;fontSize=16;fillColor=#3D8BCD;strokeColor=none;fontColor=#ffffff;whiteSpace=wrap;" parent="3d76a8aef4d5c911-11" vertex="1">
          <mxGeometry y="1" width="80" height="40" relative="1" as="geometry">
            <mxPoint x="15" y="-60" as="offset" />
          </mxGeometry>
        </mxCell>
        <mxCell id="3d76a8aef4d5c911-16" value="Button" style="html=1;shadow=0;dashed=0;shape=mxgraph.bootstrap.rrect;rSize=5;fontSize=16;strokeColor=#dddddd;whiteSpace=wrap;" parent="3d76a8aef4d5c911-11" vertex="1">
          <mxGeometry y="1" width="80" height="40" relative="1" as="geometry">
            <mxPoint x="100" y="-60" as="offset" />
          </mxGeometry>
        </mxCell>
        <mxCell id="3d76a8aef4d5c911-17" value="Template name" style="html=1;shadow=0;dashed=0;shape=mxgraph.bootstrap.rect;strokeColor=none;fillColor=none;fontColor=#999999;align=left;spacingLeft=5;whiteSpace=wrap;rounded=0;" parent="1" vertex="1">
          <mxGeometry x="40" y="130" width="200" height="20" as="geometry" />
        </mxCell>
        <mxCell id="3d76a8aef4d5c911-18" value="Uncompleted Profile" style="html=1;shadow=0;dashed=0;shape=mxgraph.bootstrap.rrect;rSize=5;strokeColor=#dddddd;;align=left;spacingLeft=10;fontSize=16;whiteSpace=wrap;rounded=0;" parent="1" vertex="1">
          <mxGeometry x="40" y="150" width="800" height="40" as="geometry" />
        </mxCell>
        <mxCell id="3d76a8aef4d5c911-19" value="Subject" style="html=1;shadow=0;dashed=0;shape=mxgraph.bootstrap.rect;strokeColor=none;fillColor=none;fontColor=#999999;align=left;spacingLeft=5;whiteSpace=wrap;rounded=0;" parent="1" vertex="1">
          <mxGeometry x="40" y="210" width="200" height="20" as="geometry" />
        </mxCell>
        <mxCell id="3d76a8aef4d5c911-20" value="Hello, %USER_FULL_NAME%" style="html=1;shadow=0;dashed=0;shape=mxgraph.bootstrap.rrect;rSize=5;strokeColor=#dddddd;align=left;spacingLeft=10;fontSize=16;whiteSpace=wrap;rounded=0;" parent="1" vertex="1">
          <mxGeometry x="40" y="230" width="800" height="40" as="geometry" />
        </mxCell>
        <mxCell id="3d76a8aef4d5c911-21" value="Insert System Variable" style="html=1;shadow=0;dashed=0;shape=mxgraph.bootstrap.rect;strokeColor=none;fillColor=none;align=right;fontSize=10;whiteSpace=wrap;rounded=0;" parent="1" vertex="1">
          <mxGeometry x="690" y="210" width="120" height="20" as="geometry" />
        </mxCell>
        <mxCell id="3d76a8aef4d5c911-22" value="" style="shape=triangle;strokeColor=none;fillColor=#000000;direction=south;rounded=0;shadow=1;fontSize=12;fontColor=#000000;align=center;html=1;" parent="1" vertex="1">
          <mxGeometry x="812" y="217" width="8" height="4" as="geometry" />
        </mxCell>
        <mxCell id="3d76a8aef4d5c911-23" value="Message" style="html=1;shadow=0;dashed=0;shape=mxgraph.bootstrap.rect;strokeColor=none;fillColor=none;fontColor=#999999;align=left;spacingLeft=5;whiteSpace=wrap;rounded=0;" parent="1" vertex="1">
          <mxGeometry x="40" y="290" width="200" height="20" as="geometry" />
        </mxCell>
        <mxCell id="3d76a8aef4d5c911-24" value="Hello %USER_FULL_NAME%!&#xa;&#xa;At vero eos et accusamus et iusto odio dignissimos ducimus, qui blanditiis praesentium voluptatum deleniti atque corrupti, quosdolores et quas molestias excepturi sint, obcaecati cupiditate non provident, similique sunt in culpa, qui officia deserunt mollitiaanimi, id est laborum et dolorum fuga. Et harum quidem rerum facilis est et expedita distinctio. Nam libero tempore, cum solutanobis est eligendi optio, cumque nihil impedit, quo minus id, quod maxime placeat, facere possimus, omnis voluptas assumendaest, omnis dolor repellendus." style="html=1;shadow=0;dashed=0;shape=mxgraph.bootstrap.rrect;rSize=5;fontSize=12;strokeColor=#dddddd;align=left;spacing=10;verticalAlign=top;whiteSpace=wrap;rounded=0;" parent="1" vertex="1">
          <mxGeometry x="40" y="310" width="800" height="240" as="geometry" />
        </mxCell>
        <mxCell id="3d76a8aef4d5c911-25" value="Insert System Variable" style="html=1;shadow=0;dashed=0;shape=mxgraph.bootstrap.rect;strokeColor=none;fillColor=none;align=right;fontSize=10;whiteSpace=wrap;rounded=0;" parent="1" vertex="1">
          <mxGeometry x="690" y="290" width="120" height="20" as="geometry" />
        </mxCell>
        <mxCell id="3d76a8aef4d5c911-26" value="" style="shape=triangle;strokeColor=none;fillColor=#000000;direction=south;rounded=0;shadow=1;fontSize=12;fontColor=#000000;align=center;html=1;" parent="1" vertex="1">
          <mxGeometry x="812" y="297" width="8" height="4" as="geometry" />
        </mxCell>
        <mxCell id="3d76a8aef4d5c911-27" value="%USER_FULL_NAME%&#xa;%USER_EMAIL%&#xa;%USER_PROFILE_COMPLETENESS%&#xa;%USER_NUM_SUCCESS_TRADES%&#xa;%USER_FULL_NAME%&#xa;%USER_EMAIL%&#xa;%USER_PROFILE_COMPLETENESS%&#xa;%USER_NUM_SUCCESS_SELLS%" style="html=1;shadow=0;dashed=0;shape=mxgraph.bootstrap.rrect;fontSize=12;rSize=2;strokeColor=#dddddd;align=left;verticalAlign=top;spacing=10;shadow=1;whiteSpace=wrap;rounded=0;" parent="1" vertex="1">
          <mxGeometry x="590" y="400" width="240" height="140" as="geometry" />
        </mxCell>
        <mxCell id="3d76a8aef4d5c911-28" value="Message Type" style="html=1;shadow=0;dashed=0;shape=mxgraph.bootstrap.rect;strokeColor=none;fillColor=none;fontColor=#999999;align=left;spacingLeft=5;whiteSpace=wrap;rounded=0;" parent="1" vertex="1">
          <mxGeometry x="40" y="570" width="200" height="20" as="geometry" />
        </mxCell>
        <mxCell id="3d76a8aef4d5c911-29" value="Email + Push" style="html=1;shadow=0;dashed=0;shape=mxgraph.bootstrap.rrect;rSize=5;strokeColor=#dddddd;align=left;spacingLeft=10;fontSize=16;whiteSpace=wrap;rounded=0;" parent="1" vertex="1">
          <mxGeometry x="40" y="590" width="390" height="40" as="geometry" />
        </mxCell>
        <mxCell id="3d76a8aef4d5c911-30" value="" style="shape=triangle;strokeColor=none;fillColor=#000000;direction=south;rounded=0;shadow=1;fontSize=12;fontColor=#000000;align=center;html=1;" parent="1" vertex="1">
          <mxGeometry x="410" y="607" width="10" height="5" as="geometry" />
        </mxCell>
        <mxCell id="3d76a8aef4d5c911-31" value="Tap target" style="html=1;shadow=0;dashed=0;shape=mxgraph.bootstrap.rect;strokeColor=none;fillColor=none;fontColor=#999999;align=left;spacingLeft=5;whiteSpace=wrap;rounded=0;" parent="1" vertex="1">
          <mxGeometry x="450" y="570" width="200" height="20" as="geometry" />
        </mxCell>
        <mxCell id="3d76a8aef4d5c911-32" value="Profile Screen" style="html=1;shadow=0;dashed=0;shape=mxgraph.bootstrap.rrect;rSize=5;strokeColor=#dddddd;align=left;spacingLeft=10;fontSize=16;whiteSpace=wrap;rounded=0;" parent="1" vertex="1">
          <mxGeometry x="450" y="590" width="390" height="40" as="geometry" />
        </mxCell>
        <mxCell id="3d76a8aef4d5c911-33" value="" style="shape=triangle;strokeColor=none;fillColor=#000000;direction=south;rounded=0;shadow=1;fontSize=12;fontColor=#000000;align=center;html=1;" parent="1" vertex="1">
          <mxGeometry x="820" y="607" width="10" height="5" as="geometry" />
        </mxCell>
        <mxCell id="3d76a8aef4d5c911-34" value="Send to Group" style="html=1;shadow=0;dashed=0;shape=mxgraph.bootstrap.rect;strokeColor=none;fillColor=none;fontColor=#999999;align=left;spacingLeft=5;whiteSpace=wrap;rounded=0;" parent="1" vertex="1">
          <mxGeometry x="40" y="650" width="200" height="20" as="geometry" />
        </mxCell>
        <mxCell id="3d76a8aef4d5c911-35" value="Top Management" style="html=1;shadow=0;dashed=0;shape=mxgraph.bootstrap.checkbox;fontSize=12;strokeColor=#999999;align=left;labelPosition=right;spacingLeft=5;rounded=0;" parent="1" vertex="1">
          <mxGeometry x="50" y="673" width="14" height="14" as="geometry" />
        </mxCell>
        <mxCell id="3d76a8aef4d5c911-36" value="Marketing Department" style="html=1;shadow=0;dashed=0;shape=mxgraph.bootstrap.rrect;fontSize=12;rSize=3;strokeColor=#999999;align=left;labelPosition=right;spacingLeft=5;rounded=0;" parent="1" vertex="1">
          <mxGeometry x="50" y="693" width="14" height="14" as="geometry" />
        </mxCell>
        <mxCell id="3d76a8aef4d5c911-37" value="Design Department" style="html=1;shadow=0;dashed=0;shape=mxgraph.bootstrap.checkbox;fontSize=12;strokeColor=#999999;align=left;labelPosition=right;spacingLeft=5;rounded=0;" parent="1" vertex="1">
          <mxGeometry x="50" y="713" width="14" height="14" as="geometry" />
        </mxCell>
        <mxCell id="3d76a8aef4d5c911-38" value="Financial Department" style="html=1;shadow=0;dashed=0;shape=mxgraph.bootstrap.rrect;fontSize=12;rSize=3;strokeColor=#999999;align=left;labelPosition=right;spacingLeft=5;rounded=0;" parent="1" vertex="1">
          <mxGeometry x="50" y="733" width="14" height="14" as="geometry" />
        </mxCell>
        <mxCell id="3d76a8aef4d5c911-39" value="Supply Department" style="html=1;shadow=0;dashed=0;shape=mxgraph.bootstrap.rrect;fontSize=12;rSize=3;strokeColor=#999999;align=left;labelPosition=right;spacingLeft=5;rounded=0;" parent="1" vertex="1">
          <mxGeometry x="50" y="753" width="14" height="14" as="geometry" />
        </mxCell>
        <mxCell id="3d76a8aef4d5c911-40" value="Set Type" style="html=1;shadow=0;dashed=0;shape=mxgraph.bootstrap.rect;strokeColor=none;fillColor=none;fontColor=#999999;align=left;spacingLeft=5;whiteSpace=wrap;rounded=0;" parent="1" vertex="1">
          <mxGeometry x="450" y="650" width="200" height="20" as="geometry" />
        </mxCell>
        <mxCell id="3d76a8aef4d5c911-41" value="" style="shape=ellipse;dashed=0;strokeColor=#999999;fillColor=#ffffff;html=1;rounded=0;shadow=1;fontSize=12;fontColor=#000000;align=center;" parent="1" vertex="1">
          <mxGeometry x="460" y="673" width="14" height="14" as="geometry" />
        </mxCell>
        <mxCell id="3d76a8aef4d5c911-42" value="News" style="html=1;shadow=0;dashed=0;shape=mxgraph.bootstrap.rrect;align=center;rSize=3;strokeColor=none;fillColor=#58B957;fontColor=#ffffff;fontStyle=1;fontSize=10;whiteSpace=wrap;rounded=0;" parent="1" vertex="1">
          <mxGeometry x="480" y="673" width="40" height="14" as="geometry" />
        </mxCell>
        <mxCell id="3d76a8aef4d5c911-43" value="" style="html=1;shadow=0;dashed=0;shape=mxgraph.bootstrap.radioButton;strokeColor=#999999;fillColor=#ffffff;rounded=0;fontSize=12;fontColor=#000000;align=center;" parent="1" vertex="1">
          <mxGeometry x="460" y="693" width="14" height="14" as="geometry" />
        </mxCell>
        <mxCell id="3d76a8aef4d5c911-44" value="Reports" style="html=1;shadow=0;dashed=0;shape=mxgraph.bootstrap.rrect;align=center;rSize=3;strokeColor=none;fillColor=#55BFE0;fontColor=#ffffff;fontStyle=1;fontSize=10;whiteSpace=wrap;rounded=0;" parent="1" vertex="1">
          <mxGeometry x="480" y="693" width="50" height="14" as="geometry" />
        </mxCell>
        <mxCell id="3d76a8aef4d5c911-45" value="" style="shape=ellipse;dashed=0;strokeColor=#999999;fillColor=#ffffff;html=1;rounded=0;shadow=1;fontSize=12;fontColor=#000000;align=center;" parent="1" vertex="1">
          <mxGeometry x="460" y="713" width="14" height="14" as="geometry" />
        </mxCell>
        <mxCell id="3d76a8aef4d5c911-46" value="Documents" style="html=1;shadow=0;dashed=0;shape=mxgraph.bootstrap.rrect;align=center;rSize=3;strokeColor=none;fillColor=#EFAC43;fontColor=#ffffff;fontStyle=1;fontSize=10;whiteSpace=wrap;rounded=0;" parent="1" vertex="1">
          <mxGeometry x="480" y="713" width="70" height="14" as="geometry" />
        </mxCell>
        <mxCell id="3d76a8aef4d5c911-47" value="" style="shape=ellipse;dashed=0;strokeColor=#999999;fillColor=#ffffff;html=1;rounded=0;shadow=1;fontSize=12;fontColor=#000000;align=center;" parent="1" vertex="1">
          <mxGeometry x="460" y="733" width="14" height="14" as="geometry" />
        </mxCell>
        <mxCell id="3d76a8aef4d5c911-48" value="Media" style="html=1;shadow=0;dashed=0;shape=mxgraph.bootstrap.rrect;align=center;rSize=3;strokeColor=none;fillColor=#3D8BCD;fontColor=#ffffff;fontStyle=1;fontSize=10;whiteSpace=wrap;rounded=0;" parent="1" vertex="1">
          <mxGeometry x="480" y="733" width="40" height="14" as="geometry" />
        </mxCell>
        <mxCell id="3d76a8aef4d5c911-49" value="" style="shape=ellipse;dashed=0;strokeColor=#999999;fillColor=#ffffff;html=1;rounded=0;shadow=1;fontSize=12;fontColor=#000000;align=center;" parent="1" vertex="1">
          <mxGeometry x="460" y="753" width="14" height="14" as="geometry" />
        </mxCell>
        <mxCell id="3d76a8aef4d5c911-50" value="Text" style="html=1;shadow=0;dashed=0;shape=mxgraph.bootstrap.rrect;align=center;rSize=3;strokeColor=none;fillColor=#999999;fontColor=#ffffff;fontStyle=1;fontSize=10;whiteSpace=wrap;rounded=0;" parent="1" vertex="1">
          <mxGeometry x="480" y="753" width="30" height="14" as="geometry" />
        </mxCell>
        <mxCell id="3d76a8aef4d5c911-51" value="Save Template" style="html=1;shadow=0;dashed=0;shape=mxgraph.bootstrap.rrect;align=center;rSize=5;strokeColor=none;fillColor=#3D8BCD;fontColor=#ffffff;fontSize=16;whiteSpace=wrap;rounded=0;" parent="1" vertex="1">
          <mxGeometry x="40" y="810" width="150" height="40" as="geometry" />
        </mxCell>
        <mxCell id="3d76a8aef4d5c911-52" value="Cancel" style="html=1;shadow=0;dashed=0;shape=mxgraph.bootstrap.rrect;align=center;rSize=5;strokeColor=#dddddd;fontSize=16;whiteSpace=wrap;rounded=0;" parent="1" vertex="1">
          <mxGeometry x="210" y="810" width="100" height="40" as="geometry" />
        </mxCell>
        <mxCell id="3d76a8aef4d5c911-53" value="Delete Template" style="html=1;shadow=0;dashed=0;shape=mxgraph.bootstrap.rrect;align=center;rSize=5;strokeColor=none;fillColor=#DB524C;fontColor=#ffffff;fontSize=16;whiteSpace=wrap;rounded=0;" parent="1" vertex="1">
          <mxGeometry x="670" y="810" width="170" height="40" as="geometry" />
        </mxCell>
        <mxCell id="3d76a8aef4d5c911-54" value="" style="html=1;shadow=0;dashed=0;shape=mxgraph.bootstrap.rrect;rSize=5;strokeColor=#dddddd;rounded=0;fontSize=12;align=center;" parent="1" vertex="1">
          <mxGeometry x="860" y="640" width="330" height="400" as="geometry" />
        </mxCell>
        <mxCell id="3d76a8aef4d5c911-55" value="320x200" style="shape=rect;fontSize=24;fillColor=#f0f0f0;strokeColor=none;fontColor=#999999;whiteSpace=wrap;" parent="3d76a8aef4d5c911-54" vertex="1">
          <mxGeometry x="5" y="5" width="320" height="200" as="geometry" />
        </mxCell>
        <mxCell id="3d76a8aef4d5c911-56" value="Thumbnail label" style="html=1;shadow=0;dashed=0;shape=mxgraph.bootstrap.anchor;fontSize=26;align=left;whiteSpace=wrap;" parent="3d76a8aef4d5c911-54" vertex="1">
          <mxGeometry x="15" y="220" width="300" height="40" as="geometry" />
        </mxCell>
        <mxCell id="3d76a8aef4d5c911-57" value="Cras justo odio, dapibus ac facilisis in, egestas eget quam. Donec id elit non mi porta gravida at eget metus. Nullam id dolor id nibh ultricies vehicula ut id elit." style="html=1;shadow=0;dashed=0;shape=mxgraph.bootstrap.anchor;strokeColor=#dddddd;whiteSpace=wrap;align=left;verticalAlign=top;fontSize=14;whiteSpace=wrap;" parent="3d76a8aef4d5c911-54" vertex="1">
          <mxGeometry x="15" y="260" width="300" height="80" as="geometry" />
        </mxCell>
        <mxCell id="3d76a8aef4d5c911-58" value="Button" style="html=1;shadow=0;dashed=0;shape=mxgraph.bootstrap.rrect;rSize=5;fontSize=16;fillColor=#3D8BCD;strokeColor=none;fontColor=#ffffff;whiteSpace=wrap;" parent="3d76a8aef4d5c911-54" vertex="1">
          <mxGeometry y="1" width="80" height="39" relative="1" as="geometry">
            <mxPoint x="15" y="-60" as="offset" />
          </mxGeometry>
        </mxCell>
        <mxCell id="3d76a8aef4d5c911-59" value="Button" style="html=1;shadow=0;dashed=0;shape=mxgraph.bootstrap.rrect;rSize=5;fontSize=16;strokeColor=#dddddd;whiteSpace=wrap;" parent="3d76a8aef4d5c911-54" vertex="1">
          <mxGeometry y="1" width="80" height="40" relative="1" as="geometry">
            <mxPoint x="100" y="-60" as="offset" />
          </mxGeometry>
        </mxCell>
        <mxCell id="3d76a8aef4d5c911-3" value="" style="html=1;shadow=0;dashed=0;shape=mxgraph.bootstrap.rect;fillColor=#000000;strokeColor=none;fontColor=#ffffff;spacingRight=30;whiteSpace=wrap;" parent="1" vertex="1">
          <mxGeometry x="344.62" y="120" width="129.375" height="40" as="geometry" />
        </mxCell>
      </root>
    </mxGraphModel>
  </diagram>
</mxfile>
